<?xml version="1.0" encoding="UTF-8"?>
<svg xmlns="http://www.w3.org/2000/svg" id="Layer_1" data-name="Layer 1" viewBox="0 0 68.6 109.1">
  <defs>
    <style>.cls-1{fill:#aca8a1;}</style>
  </defs>
  <path class="cls-1" d="M17.56,2.26h.2c.3,0,.3.1.3.7v1.4c0,.7.1,1.1.5,1.4a1.8,1.8,0,0,0,1.1.3,1.6,1.6,0,0,0,1.1-.4,2,2,0,0,0,.4-1.4v-.7a4.48,4.48,0,0,1,.1-1.2c0-.1.1-.1.3-.1h.2v-.1a.1.1,0,0,0-.1-.1h-1.3a.1.1,0,0,1-.1.1v.1h.2a.37.37,0,0,1,.3.1c.1.1.1.5.1,1.2v.7c0,.7-.2,1.5-1.1,1.5s-1.1-.5-1.1-1.5V3.06c0-.6,0-.7.3-.7h.1v-.1a.1.1,0,0,0-.1-.1h-1.4l-.1.1Zm5,0h.1a.44.44,0,0,1,.3.1c.1.1.1.2.1.4v1.7a3.75,3.75,0,0,1-.1,1.1.35.35,0,0,1-.2.1h-.2v.1a.1.1,0,0,0,.1.1H24a.1.1,0,0,1,.1-.1v-.1h-.2a.37.37,0,0,1-.3-.1c-.1-.1-.1-.5-.1-1.2V2.76c.1.1.2.3.4.4s.2.2.2.3L25.36,5a5.35,5.35,0,0,1,.7.9h0c.1,0,.1,0,.2-.1h0V3.46a3.75,3.75,0,0,1,.1-1.1.44.44,0,0,1,.3-.1h.1v-.1a.1.1,0,0,0-.1-.1h-1.3a.1.1,0,0,0-.1.1v.1h.1a.44.44,0,0,1,.3.1c.1.1.1.5.1,1.2V5l-.7-.7-.8-.9a11.27,11.27,0,0,1-1-1.2h-.9a.1.1,0,0,0-.1.1c.2-.1.3,0,.3,0Zm20.8,43.5c-.2.1-.3.1-.7-.3a10.28,10.28,0,0,1,.1-1.8c-.3-.3-.6-.8-.9-.7-.5,0-1.2.9-1.3,1.2a1.34,1.34,0,0,0,.1.9.1.1,0,0,1,.1.1,2.4,2.4,0,0,0-.7,1.2,1.43,1.43,0,0,0,.5,1.1,5.63,5.63,0,0,1,1.4-1c.1.3.3.4.6.6a8.7,8.7,0,0,0,.9-1.1C43.56,45.76,43.56,45.56,43.36,45.76Zm-1.5.1a4.35,4.35,0,0,1-.7.4c-.2-.2-.5-.3-.1-1.1.3.2.4.1.9,0A2.64,2.64,0,0,0,41.86,45.86Zm-1-1.1a1.1,1.1,0,0,1,0-.8c.2-.3.3-.3.5-.3s.7.4.6.6v.8C41.56,45.06,41.26,45.16,40.86,44.76ZM11.66,9.26c-.1,0-.1.3,0,.3h.4c.7.1.8.3.8,1.7v5c0,1.4,0,1.6-.8,1.7h-.2c-.1.1-.1.3,0,.3h3.4c.1,0,.1-.3,0-.3h-.4c-.8-.1-.8-.3-.8-1.7v-1.8c0-.4,0-.4.7-.4h3.9c.7,0,.7,0,.7.4v1.9c0,1.4,0,1.6-.8,1.7h-.3c-.1.1-.1.3,0,.3h3.4c.1,0,.1-.3,0-.3h-.3c-.8-.1-.8-.3-.8-1.7v-5c0-1.4,0-1.7.8-1.7h.3c.1-.1.1-.3,0-.3h-3.3c-.1,0-.1.3,0,.3h.3c.8.1.8.3.8,1.7V13c0,.4,0,.4-.7.4h-3.9c-.7,0-.7,0-.7-.4v-1.6c0-1.4,0-1.7.8-1.7h.3c.1-.1.1-.3,0-.3h-1.6A12.12,12.12,0,0,1,11.66,9.26Zm27.6,37c-.3.1-.6,0-.6-.3v-3.9h-1c0,.4.2,4,.1,4.5,0,.3.4.6.7.8.2-.2.5-.7.8-1C39.56,46.26,39.46,46.16,39.26,46.26ZM1.36,2.86h0c.1-.2.1-.3.3-.4s.4-.1.7-.1h.3c.1,0,.1,0,.1.1v2.6c0,.6,0,.6-.3.7h-.2l-.1.1a.1.1,0,0,0,.1.1h1.6l.1-.1v-.1h-.2c-.3,0-.3-.1-.3-.7V2.36H4c.3,0,.5,0,.6.1s.1.2.1.4h.1c.1,0,.1,0,.1-.1h0a3.08,3.08,0,0,1,.1-.9h-.2c-.1.1-.1.1-.4.1H2c-.3,0-.4,0-.4-.1h-.2a2.35,2.35,0,0,1-.2.8h0C1.16,2.86,1.36,3,1.36,2.86ZM3,17.76a5.8,5.8,0,0,0,3.4.9,8.81,8.81,0,0,0,2.2-.3.9.9,0,0,1,.5-.1,5.84,5.84,0,0,0,.7-1.9.6.6,0,0,0-.4-.1,3,3,0,0,1-2.9,2c-2.3,0-4.1-1.6-4.1-4.5s1.8-4.2,3.9-4.2,2.6,1.1,2.8,2a.3.3,0,0,0,.4,0c-.1-.8-.2-1.7-.2-2a.76.76,0,0,1-.4-.1,9.28,9.28,0,0,0-2.4-.3,5.86,5.86,0,0,0-3.7,1.2,4.67,4.67,0,0,0-1.7,3.7A4.4,4.4,0,0,0,3,17.76ZM11.36,6h2.8c.1-.2.2-.6.3-.8h0a.1.1,0,0,0-.1-.1h-.1c-.2.3-.3.5-.4.5s-.3.1-.7.1a2.44,2.44,0,0,1-.7-.1c-.1-.1-.1-.3-.1-.6v-.8c0-.1,0-.1.1-.1h.7c.1,0,.1.1.1.2l.1.2h.1c.1,0,.1,0,.1-.1h0V3.26h0l-.1-.1h-.1l-.1.3a.35.35,0,0,1-.1.2h-.8c-.1,0-.1,0-.1-.1V2.46c0-.2,0-.2.1-.2h.9c.3.1.3.2.4.5h.1a.1.1,0,0,0,.1-.1h0v-.1a5.64,5.64,0,0,0-.1-.7h-2.6l-.1.1v.1h.1c.3,0,.3.1.3.7v2.1c0,.6,0,.7-.3.7H11a1.4,1.4,0,0,1,.4.4ZM6,2.26h.2c.3,0,.3.1.3.7v2.1c0,.6,0,.6-.3.7h-.1v.1a.1.1,0,0,0,.1.1h1.3l.1-.1v-.1h-.2c-.3,0-.3-.1-.3-.7v-.8c0-.1,0-.1.2-.1h1.6c.2,0,.2,0,.2.1v.8c0,.6,0,.6-.3.7h-.1v.1a.1.1,0,0,0,.1.1h1.4l.1-.1v-.1h-.2c-.3,0-.3-.1-.3-.7V3c0-.6,0-.7.3-.7h.1v-.1a.1.1,0,0,0-.1-.1H8.66l-.1.1v.1h.1c.3,0,.3.1.3.7v.7c0,.1,0,.1-.2.1H7.26c-.2,0-.2,0-.2-.1V3c0-.6,0-.7.3-.7h.1v-.1a.1.1,0,0,0-.1-.1H6l-.1.1a.1.1,0,0,0,.1.1Zm22,0h.2c.3,0,.3.1.3.7V5c0,.6,0,.7-.3.7H28v.1a.1.1,0,0,0,.1.1h1.4l.1-.1v-.1h-.2c-.3,0-.3-.1-.3-.7V3c0-.6,0-.7.3-.7h.2v-.1a.1.1,0,0,0-.1-.1h-1.4l-.1.1c-.1.1-.1.1,0,.1Zm26.6,0h.2c.2,0,.2,0,.4.4l.7,1.3a1,1,0,0,1,.2.7V5c0,.6,0,.7-.3.7h-.2v.1a.1.1,0,0,0,.1.1h1.6l.1-.1v-.1h-.2c-.3,0-.3-.1-.3-.7v-.3a1.1,1.1,0,0,1,.3-.9l.4-.6c0-.1.1-.1.1-.2.2-.4.4-.7.6-.7h.2v-.1a.1.1,0,0,0-.1-.1h-1.1a.1.1,0,0,0-.1.1v.1h.1c.1,0,.2,0,.2.1a3.63,3.63,0,0,1-.3.7h0a4.05,4.05,0,0,1-.5.9,3.55,3.55,0,0,1-.4-.9c-.1-.1-.1-.2-.2-.3a1.47,1.47,0,0,0-.2-.4l.2-.1h.1v-.1a.1.1,0,0,0-.1-.1h-1.3l-.1.1a.1.1,0,0,0-.1.1Zm10.2,16.4a4.68,4.68,0,0,0,4.8-4.8,4.53,4.53,0,0,0-4.8-4.7,4.78,4.78,0,0,0-4.9,4.9C59.76,16.46,61.66,18.66,64.76,18.66Zm-.3-9.1c2.6,0,3.6,2.5,3.6,4.7,0,2.7-1.6,4-3.2,4-2.7,0-3.7-2.6-3.7-4.7C61.16,10.56,63.06,9.56,64.46,9.56ZM48.76,14a4,4,0,0,0,1.3,3.1,5.73,5.73,0,0,0,4.2,1.5,11.78,11.78,0,0,0,2.5-.4,2,2,0,0,1,.7-.1c.1,0,.1-.1,0-.2s-.3-.4-.3-1v-.8c0-.7,0-1.1.6-1.2H58c.1-.1.1-.3,0-.3h-3.5c-.1,0-.1.3,0,.3l.6.1c.9.1.9.2.9,1.3v.6a5.38,5.38,0,0,1-.1.8,2.23,2.23,0,0,1-1.5.4c-2.8,0-4.1-2.1-4.1-4.7,0-2.1,1.2-4,3.8-4a2.53,2.53,0,0,1,2.8,2,.3.3,0,0,0,.4,0,19.09,19.09,0,0,1-.2-2c-.2,0-.6-.1-.9-.1a6.25,6.25,0,0,0-1.8-.2,5.74,5.74,0,0,0-4.4,1.6A5.37,5.37,0,0,0,48.76,14Zm1.4-11.1h0c.1-.2.1-.3.3-.4s.4-.1.7-.1h.3c.1,0,.1,0,.1.1v2.6c0,.6,0,.6-.3.7h-.2l-.1.1a.1.1,0,0,0,.1.1h1.6l.1-.1v-.1h-.2c-.3,0-.3-.1-.3-.7V2.36h.5c.3,0,.5,0,.6.1s.1.2.1.4h.1c.1,0,.1,0,.1-.1h0a3.08,3.08,0,0,1,.1-.9h-.2c-.1.1-.1.1-.4.1h-2.4c-.3,0-.4,0-.4-.1h-.2a2.35,2.35,0,0,1-.2.8h0C50.06,2.86,50.16,3,50.16,2.86ZM66.36,6h1.5l.1-.1v-.1h-.2c-.3,0-.3-.1-.3-.7v-.8c0-.1,0-.1.1-.1h.8c.1,0,.1.1.2.2l.1.2h.2v-1h-.2l-.1.2a.35.35,0,0,1-.1.2h-.9c-.1,0-.1,0-.1-.1V2.66c0-.2,0-.2.1-.2h.9a.7.7,0,0,1,.4.5H69a.1.1,0,0,0,.1-.1h0V2h-2.7l-.1.1v.1h.1c.3,0,.3.1.3.7V5c0,.6,0,.6-.3.7h-.2c.2.1.2.2.2.3Zm3.1,19.7c-39-3.8-68.5,0-68.5,0v48.6c3.1,32.9,33.9,36.8,34.2,36.7,5.5-1,31.4-6.2,34.2-36.8Zm-12,8.7c2.5,1.1,3.5.1,4.4.1a2.44,2.44,0,0,1,2.6,2.3c0,.3.1.4.1.6a1.76,1.76,0,0,0-.1-.6c-.1-.4-1.2-.6-2-.3-1.1.5-4,2.1-5,1.8Zm-.1,8.2s.5.8,4.5.2c2.2-.3,2.5,2.3,2.5,2.3h0a2.49,2.49,0,0,0-2.4-.2,9.59,9.59,0,0,1-4.7,1.6v-3.9Zm-21.6-12.5s5.7-2.7,9.9-1.1a26,26,0,0,0,11,1.1V51c-4,.3-12.3-2-14.4-2-4.4,0-6.5,1.7-6.5,1.7ZM40.06,54a.89.89,0,0,1-.6,1,1.57,1.57,0,0,0,1.9-.8c.4,1.8-1.4,1.9-2,2,0,0,.9.3,1,.9.1,1.5,1.1,1.4,1.3,1.3,0,.2-.3,1.1-1.5.3-.2.2.3.5.4,1.2.1,1,.1,1.9,1.2,2.5-.7.5-1.5-.9-1.6-.7s1,.7-.2,3.4c-.5-.3-.2-.2-.8-1-.5-.4-.6-.5-.3.2a4.62,4.62,0,0,1,.6,3.3c-.6-.2-.4-.7-1.1-1.3a2.84,2.84,0,0,0,.9,2.1,4.76,4.76,0,0,1,1.6,2.6,21.36,21.36,0,0,1-.3,3.4c-.6-.1-1-1.7-1.2-1.6s.1,1.6,1.1,2.5c.5,1.5.3,2.3.2,2.3s-.7-1.5-1.1-1.2c1.5,3.8.5,5.1.1,6.3-.3-1.2-.5-2.1-.9-3.5-.8.6-1,1.6-2,2.5,0-1.6-.9-5.3-1.6-6.2,0,0-1.3,3.4-1.9,4.9a8.57,8.57,0,0,0,0,6.3c-1.8-2.6-2-7.5-.5-8.2.1-.3-.1-1.5-.5-1.4a2.52,2.52,0,0,1-.5,1.6c-1.2-.4-.7-1.9-.6-2.4,1.6-1.9.6-2.3.5-2.3-.2.4-.3,1-.8,1.2-1-1.7-.4-4.5,1.6-6.6.1-.8-.9.6-1.5.5-.2-1.5.4-4,3.1-4.1-.5-.2-.8-.2-.9-.7.8-.1,3.4-.3,3-2.4a3,3,0,0,1-1,1c-.5.3-.9.3-1.2-.1,1.2-.4.8-1.9-.8-1.4a1.11,1.11,0,0,1-1.2-.9c.3.4,1.1.1,1.5-.2,1.8-1.2,2.8.5,3.1.9.1,0,.8-1.7-1.7-2.1a2.23,2.23,0,0,0-2.5-1.5c-.6-2-2.3-1-2.2-.1-1.8-1.3,0-3,.8-3.3.5,0,.4,1.6,1.3,1.4.2-.1-.7-1.1-.3-1.6.8-.5.8.6,1.2.2a2,2,0,0,1,1.7-1.2C36.86,53,38.26,55,40.06,54Zm-12.3,4.9c-.5-.9.7-1.8.7-1.8,0,2.6,3.3.8,5,1.6a2.58,2.58,0,0,1,.9.9C32.46,58.36,29.06,61,27.76,58.86Zm-13-29s5.5.7,7.7-.1c7.6-2.9,12.3.3,12.3.3v20.6a15.64,15.64,0,0,0-5.9-1.7c-3.1-.2-9.3,2.3-14.1,1.9Zm-3.5,4.9h2.6v2.6h-2.6Zm0,8.9h2.6v2.6h-2.6Zm-3.1-10.1c2.9,0,2.9,4.5,0,4.5S5.26,33.56,8.16,33.56Zm0,8.9c2.9,0,2.9,4.5,0,4.5A2.25,2.25,0,0,1,8.16,42.46Zm3.5,42.6a27.79,27.79,0,0,1-.6-9.1c.1-1.7.6-4.2.4-4.3s-4.1,9.8-5,11.7c-1.6-.5,1-9,4.3-13.1.3-1.3-1.7,1.3-3,2.4-1.1,1-2.5,2.2-4.1,1.8,2-2.1,6.5-6,7-7,.4-.8-3.1,2.6-6.8,1.3,2.4-1.3,8-4.2,8.1-6.2h-.1c-.1,0-4.3,2.7-7.1,1.4,2.1-1.1,9.2-5.7,11.2-7a1.76,1.76,0,0,0,1.6-.3c-.7,0-3.2.4-2-1.8.5,2,4,.2,5.2-.1,3.5-.8,3.5,2.9,3.2,4.5-.1.6,1.1,1,1.6.9-1,2.5-2.7.1-2.9,1.1-.1.4-1.2.7-1.2,1.6,0,1.3.5.6.6,1.6s-.4.2-.3,1.3c.2,1.7,2.9-.2,4.1.2.6.2.9.7,1.5.6.2-.1.1-.8.1-1-.1-.5-1-.6-1.5-1.3s.5-2.5.9-3.1c.7,3.1,3.6,2.1,4,5.4.3.9-1,2,0,3.5-.8.7-1.7,4.3-.1,6a2.94,2.94,0,0,0,.8,3.5,5,5,0,0,0,0,3.6c-.9,0-.7-5-6.1-5.2-.1,0-.1.6,0,.8.6,1.1,1.5,1.1,1.3,3.7-.1.9-.6-.2-.9-.4a3,3,0,0,1-1.4-2.5,4.58,4.58,0,0,0-1.8,4.8s-.5-1.3-1-2.7c0-.1,2.2-2.8,2.6-3.4,4.5-8.2-2.9,2.6-2.9,2.6a17.83,17.83,0,0,0-1-2,15.08,15.08,0,0,0,1.9-2.7c3.5-7.3-2.1,2.4-2.3,2.3-.4-.4-.8-.9-1-.7a15.17,15.17,0,0,0-.3,2.1,13.36,13.36,0,0,1-2.7,2.6s-.2-2-.2-2.1c.4-.5,2.2-2.4,2.5-2.9,5.7-9-2.7,2.2-2.7,2.1a4.8,4.8,0,0,0-1-1.5,26.28,26.28,0,0,0,2.3-3.5c3.5-7.2-2.8,3.2-2.9,3.1a.37.37,0,0,0-.3-.1c-.2-.1.2-2.1.4-3.3.5-2.4-.8-.5-1.1,3.3-.3.1-1.1.1-1.4.4.2,1,.4.2.9,1.2.5,1.2-.7,3.1.4,4.5.4.5.4.4.3.8C12.46,84.46,12.06,84.46,11.66,85.06Zm1.9,5.7a33.15,33.15,0,0,1-1.6-4.3,17.6,17.6,0,0,0,2,.9C14.86,89.46,14.06,91.66,13.56,90.76Zm44.3.5c-.8,1.1-1.1-1-.4-3.1a6.67,6.67,0,0,0,2.5-1.9A13.7,13.7,0,0,1,57.86,91.26Zm3.3-6.8c-1,.3-1.5,1.5-2.2,2.1-2.4,2.4-6.1,1.5-9,2.8-2.6,1-4.5,3.4-7.3,4-.8.3-.9.7-.4.6a4.66,4.66,0,0,0,4.7.4c.9-.4,3.7-2,4.1-2.1-1.5,1.4-2.3,2.7-3.6,3.5a12.21,12.21,0,0,1-7.5,1c-1.5-.3-2.6,1.1-2.2,1a2,2,0,0,1,2.2.6c1,.8,2.4,1.7,3.6.3a2.78,2.78,0,0,1,4.1.4c-1.9-.1-1.7,3.3-5.4,2.9-1.3,0-4.3-3.1-5.2-2.1-1.5,1.7,3.2,3.3,1.2,5.4-1.8,1.9-4.1-1.5-4.1-1.5,1.2.5,3.3.8,2.3-1.1a4.85,4.85,0,0,1-1.1-2.8c-.2-.7-4.4,5.4-7.2,2.7-1.1-1.1-3.3-3.5-5.3-4.4,5.3-.5,6.2,1.7,6.4,2,1.7,2.3,3.3,0,3.7-.4.6-.6,1.3-1.5,1.1-1.6a7.56,7.56,0,0,0-6.2-.4c3.8-5.2,6.7-.3,6.7-.3.4.3-.1-3.1-3.9-3.3-2.3-.1-4.4,2-6,2-1.3,0-5.3-2.7-6.2-5.1,2.3,1.7,5.3,2.7,7.1,1.6,3.5-2.1,7.8,1,8,.7-1-.8-3.2-3.7-9.1-2-2.3,1.3-3.3-1-4.7-1,2.4-2.1,4.1-1,4.9-1,.2,0-1-1-1.9-1.1a39.4,39.4,0,0,1-10.7-2.5s.5-1.3,3.4-.4c0,0-2.5-1.5-2.5-3.5.1-1.2.7-2.5-.3-3.6,3.8-.2,1.1,5.2,3.8,6.5a1.93,1.93,0,0,1,.4-2.3,4.06,4.06,0,0,0,2.9,2.6,2.2,2.2,0,0,0,.5-.6,9.32,9.32,0,0,1-.9-5.8h0c.2,0,.6.8.8,1.3.6,1.2.5,2.9,1.6,4.3a8.32,8.32,0,0,0,1.5,1.9,3.6,3.6,0,0,0,0-1.8c-.1-.9-.7-2.5.9-3.9.7,2.1,1.7,1.5,1.8,2.5a5.88,5.88,0,0,1,0,2.3c.1,1.5,1.4,1.9,2.6,2.8,2.7,1.5,4.5,2.3,5.6,4.1.6-3.2-8-3.8-6.9-9.9-.1-2.4.3-2.6-1.4-4.1,3.4.1,5.3,5.7,5.5,6.8.3,1.9,1.5,2,3.1,4.4.2.1-2.8-6.6.8-12.2,0,0,1.2,2.9.6,4.9a11.28,11.28,0,0,0,0,3.2c.1.7-.1-2.7,2.4-4.5.2,1.3,1.4,3.3.2,5.5-1.4,2.6-1.5,1.7-1.6,4.9a12.59,12.59,0,0,1,1.5-3.5c2.1-2.6.6-4,2.6-6.3.2,1.1.4.7.6,1.7.3,2.3-2.1,4.7-1.6,4.7s1.6-.6,1.9-2.3c0,0,.9,1.6.1,2.1a2.85,2.85,0,0,0-1.5,3.1c1.2-1.4,2.7-2.9,2.5-4.9.1-1.2,1.4-1.7,1.7-4.4,0-.5.5-1,1-1.3-.2,1.5,1,3.1-.4,5,.3.2,1.5-1.5,3.2-.9-3.4.6-2.4,4.3-5,6-.8.5-.7,1.1-.9,1.2,2.3-.1,4.1-2.9,4.4-3.1,2.3-1.6,2.8-1.8,3.8-4.4.4-1,.1-1.4,1.4-2.7.6,1.3-.3,4-.5,4.5-.4,1.2-1.9,2.3-1.6,2.3,6.2-2.8,6.2-4.6,7.7-6.6a7.22,7.22,0,0,1,3.5-2.2c-.2.4-1.1,1.1-1.1,1.8a6.29,6.29,0,0,1-1.2,3.3C59.66,85.16,60.36,83.76,61.16,84.46Zm-7.4,1.1c-.8.7-1.3,1-1.2.6a9.29,9.29,0,0,1,.5-1C53.06,85.06,53.76,85.56,53.76,85.56Zm-.6-1a10.1,10.1,0,0,0,.3-1.7.6.6,0,0,1,.1-.4c0-.1,1.8,1.5,1.9,1.5-.4.6-.8.7-1.2,1.1A2.82,2.82,0,0,1,53.16,84.56Zm9.9-16.3c-1.6-1.6-3.4-5.8-4.1-5.2-.1,0,3,4.9,4.5,7.7a13.08,13.08,0,0,1,1.5,5.1c.2,7.7-.9,7.1-.9,7.1-1.8-6.1-2.7-13.1-5.3-16.4-1-1.3,2.8,5.7,3,12a8.27,8.27,0,0,0-3.2,1.7,21.85,21.85,0,0,0-1.6-9.4c-.9-2,.4,4.6.5,6.1,0,.1-7-9.1-2.8-2a11.46,11.46,0,0,0,2.8,3,10.68,10.68,0,0,1-.3,2.9c-.4.3-9.6-12.2-4.5-3.5.6,1.1,4.3,4.3,4.3,4.4a4.45,4.45,0,0,1-1.2,1.7c-.1-.1-2.1-1.6-2.1-1.7-.1-1-.2-1.9-1.4-1.2,0,0-4.5-5.2-2.4-1.6a5.72,5.72,0,0,0,1.8,2.1,6.27,6.27,0,0,0-.9,2c-.1.4-3.9-4.2-2.4-1.3a8.47,8.47,0,0,0,2.2,2,13.78,13.78,0,0,1-.6,1.6,32,32,0,0,1-3.6,3.2,7.8,7.8,0,0,1,2.1-3.2,5.29,5.29,0,0,1,1.4-.8,1.35,1.35,0,0,0-.7-1,6.43,6.43,0,0,0-2.1.1c.1-.8-.5-2.5-.5-4.4a4,4,0,0,0-1.9,1.5c-.2,3.1-.9,2.2-1.5,4.4-.7-.9,0-2.3-.6-3.2a5.5,5.5,0,0,1-1.2-3.5c.2-.1,1.2-1.2.3-3.4-.1-3.5,1.4-4.8-1.4-7.2.2-.1.4-1.8.4-1.8,2,1.1,1.6-1.3,2.4-1.7,1.3-.7,1-1.5.5-2.4,3.6,1-.2,3.5,1.5,3.5a2.63,2.63,0,0,0,2.5-1.1c.5-.8-.1-1.4,1.4-2.7.1-.1.6-1-.7-1.3-.3-.1,0-1.1,0-1.1-1,.8-1.3,2-2.8,1.2a1.4,1.4,0,0,0-1.6.2.71.71,0,0,1,.5-.9c1.7-.6,2.1-1.3,2-1.6-.2-.9-.3,0-.3-.9,0-.4.5-.9.8-1.3,1.2-1.4,2-.9,2.3-.7a3.65,3.65,0,0,1,1.4-.7c1.1-.4,3.4.3,4.7.9a3,3,0,0,0,2.1.3.79.79,0,0,1-.5.7c-.4.1-.9,0-.9.3s.6.2.9.3c1.9.5,4.4,2.2,2.8,1.9-.2,0,1.2,1,2.2,2.4l3.7,3.6c-.2.2-1.5,0-5.5-3.8-.6.5,5,4.7,7.2,9.1A9.06,9.06,0,0,1,63.06,68.26Zm-39.3-59c-.1,0-.1.3,0,.3h.3c.8.1.8.3.8,1.8v4.9c0,1.5,0,1.7-.8,1.8h-.3c-.1.1-.1.3,0,.3h3.4c.1,0,.1-.3,0-.3h-.3c-.8-.1-.8-.3-.8-1.8v-4.8c0-1.5,0-1.7.8-1.8h.3c.1-.1.1-.3,0-.3h-1.7A10.9,10.9,0,0,1,23.76,9.26Zm39.4-3.2a2,2,0,0,0,2-2.1,1.88,1.88,0,0,0-2-2,2.05,2.05,0,0,0-2.1,2.1A2,2,0,0,0,63.16,6.06Zm-.1-3.8c1.1,0,1.5,1,1.5,1.9,0,1.2-.7,1.6-1.3,1.6-1.2,0-1.5-1.2-1.5-1.9A1.31,1.31,0,0,1,63.06,2.26Zm-15.6,0h.2c.3,0,.3.1.3.7V5c0,.6,0,.7-.3.7h-.2v.1a.1.1,0,0,0,.1.1H49l.1-.1v-.1h-.2c-.3,0-.3-.1-.3-.7V3c0-.6,0-.7.3-.7h.2v-.1a.1.1,0,0,0-.1-.1h-1.4l-.1.1v.1Zm-3.4,3.6h0a1.44,1.44,0,0,0,.9.2c.8,0,1.3-.4,1.3-1.1a1.17,1.17,0,0,0-.7-1.1l-.5-.3a.79.79,0,0,1-.5-.7.57.57,0,0,1,.6-.6c.5,0,.7.3.7.6H46a.1.1,0,0,0,.1-.1h0c0-.2,0-.6-.1-.7h-.2c-.1,0-.4-.1-.5-.1-.7,0-1.2.4-1.2,1a1.25,1.25,0,0,0,.6,1l.6.5c.4.3.5.5.5.8s-.2.6-.7.6a.88.88,0,0,1-.9-.8h-.1a.1.1,0,0,0-.1.1h0C43.86,5.26,44,5.66,44.06,5.86Zm-13.6-3.6h.1c.2,0,.3.1.4.4l1,2.5a6.89,6.89,0,0,0,.3.8h.2c.1-.3.4-1,.6-1.5l.3-.7c.3-.6.5-1.1.6-1.3s.2-.2.3-.2h.2v-.1a.1.1,0,0,0-.1-.1h-1.2l-.1.1v.1h.1c.2,0,.2.1.2.1v.2a8.93,8.93,0,0,0-.5,1.3c0,.1-.1.2-.2.4a2,2,0,0,1-.4.8c-.3-.6-.5-1.3-.8-1.9a2.71,2.71,0,0,1-.3-.8.31.31,0,0,0,.2-.1h.1v-.1a.1.1,0,0,0-.1-.1h-1.3l-.1.1a1.75,1.75,0,0,0,.5.1Zm16.4,35.8a2.37,2.37,0,0,1-1.2-.9c-.1.1-.6.7-.9.8a1.32,1.32,0,0,0-.9-.7,10.44,10.44,0,0,1-1.4,1c-.1.1-.1.3.1.3a4.35,4.35,0,0,1,.7-.4,1.15,1.15,0,0,1,.8,1.2,2.93,2.93,0,0,1-.9,2.1c.8-.2.9-.7,1.4-1.3a3.18,3.18,0,0,0,1,1,10,10,0,0,0,1-1.1A2.61,2.61,0,0,1,45,39a1,1,0,0,1,0-.9C45.26,38.36,46.36,39,46.86,38.06ZM31,17.76a5.8,5.8,0,0,0,3.4.9,8.81,8.81,0,0,0,2.2-.3.9.9,0,0,1,.5-.1,5.84,5.84,0,0,0,.7-1.9.6.6,0,0,0-.4-.1,3,3,0,0,1-2.9,2c-2.3,0-4.1-1.6-4.1-4.5s1.8-4.2,3.9-4.2,2.6,1.1,2.8,2a.3.3,0,0,0,.4,0c-.1-.8-.2-1.7-.2-2a.76.76,0,0,1-.4-.1,9.28,9.28,0,0,0-2.4-.3,5.86,5.86,0,0,0-3.7,1.2,4.67,4.67,0,0,0-1.7,3.7A4.17,4.17,0,0,0,31,17.76ZM39.46,6h1.4l.1-.1v-.1h-.1c-.3,0-.3-.1-.3-.7v-.7c0-.1,0-.1.2-.1a.52.52,0,0,1,.4.2c.1.1.2.3.3.4a1.38,1.38,0,0,0,.3.4A1.23,1.23,0,0,0,43,6h.3v-.1a.1.1,0,0,0-.1-.1h0a.76.76,0,0,1-.4-.2,4.84,4.84,0,0,1-1.1-1.5V4a1.16,1.16,0,0,0,.7-1,.83.83,0,0,0-.5-.8,1.8,1.8,0,0,0-1-.2h-1.3l-.1.1v.1h.2c.2,0,.2.1.2.6v2.1c0,.6,0,.6-.3.7h-.2c0,.2,0,.3.1.4Zm1-3.5c0-.1,0-.1.3-.1a.88.88,0,0,1,.9.8.91.91,0,0,1-.3.7,1.27,1.27,0,0,1-.6.1h-.4V2.46ZM35.26,6h2.8c.1-.2.2-.6.3-.8h0a.1.1,0,0,0-.1-.1h-.1c-.2.3-.3.5-.4.5s-.3.1-.7.1a2.44,2.44,0,0,1-.7-.1c-.1-.1-.1-.3-.1-.6v-.8c0-.1,0-.1.1-.1h.7c.1,0,.1.1.1.2l.1.2h.1c.1,0,.1,0,.1-.1h0V3.26h0l-.1-.1h-.1l-.1.3a.35.35,0,0,1-.1.2h-.8c-.1,0-.1,0-.1-.1V2.46c0-.2,0-.2.1-.2h.9c.3.1.3.2.4.5h.1a.1.1,0,0,0,.1-.1h0v-.1a5.64,5.64,0,0,0-.1-.7h-2.6L35,2v.1h.1c.3,0,.3.1.3.7v2.1c0,.6,0,.7-.3.7h-.2a1.4,1.4,0,0,1,.4.4Zm4.9,12.5h1.4c.1-.1.1-.3,0-.3h-.5c-.3,0-.4-.1-.4-.3a4.55,4.55,0,0,1,.3-1.1l.5-1.4c.1-.3.2-.3.5-.3h2.1c.4,0,.5,0,.6.3l.6,1.9a4.08,4.08,0,0,1,.2.7c0,.1-.2.2-.5.2h-.4c-.1.1-.1.3,0,.3h3.3c.1-.1.1-.3,0-.3h-.4c-.6-.1-.8-.3-1.2-1.5l-1.9-5.5-.6-1.8c0-.1-.1-.1-.2-.1a1.79,1.79,0,0,1-.7.5,2.4,2.4,0,0,1-.2,1l-1.4,3.7c-.6,1.5-1,2.4-1.2,3.1a1.08,1.08,0,0,1-.8.7h-.5c-.1.1-.1.3,0,.3A7.08,7.08,0,0,1,40.16,18.46Zm1.9-4.4.9-2.4a2.71,2.71,0,0,0,.3-.8h0a4.65,4.65,0,0,1,.3.9l.7,2.2c.1.4.1.4-.3.4h-1.7C42,14.36,42,14.36,42.06,14.06Zm-15.2,21.5c.3,0,.8-.4,1-.5.4-.2.3-.4-.2-.3A1.43,1.43,0,0,1,26,34a12.88,12.88,0,0,1,1.7-1.6c-.3-.3-.4-.8-1-.8a2.21,2.21,0,0,0-1.8,2C24.56,34.76,25.86,35.46,26.86,35.56Zm-.7-3.6a1.17,1.17,0,0,0,.6.6,9.32,9.32,0,0,1-1,1C25.46,32.66,25.56,32.36,26.16,32Zm2.5,13.6v-1.7l-.6-.8h-.2l-.9.8c-.2.2,0,.3.2.1l.6.3v1.8c.1.2.3.3.5.6l.4-.4.4-.4C28.66,45.76,28.86,45.76,28.66,45.56Zm-1-4a1.2,1.2,0,0,1-.7.7,3.74,3.74,0,0,0,.7.6,2.34,2.34,0,0,1,.7-.7C28.06,42,27.76,41.86,27.66,41.56ZM26,40.16a3,3,0,0,1-.4-.8c0-.3-.3-.3-.3,0s.1,1.3.1,1.5.3.2.3,0,.1-.2.3-.2a6.18,6.18,0,0,0,1.5.1,1.6,1.6,0,0,0,1-2c-.3-.8-1.2-.7-1.8-.9s-.8-.5-.2-.9,1.6.3,1.7.4.2.2.2-.1a2.48,2.48,0,0,0-.1-.9c0-.2-.2-.2-.2,0s-.3.1-.5.1a2.26,2.26,0,0,0-1.3.2c-.3.2-1.1.8-.7,1.5.2.4,1.7.8,2.1,1a.71.71,0,0,1,.1,1.1A1.86,1.86,0,0,1,26,40.16Zm-6.4-1.6a1.64,1.64,0,0,0,.1,1c.1.1.1.1.2.1-.3.3-.6.5-.6,1a1.15,1.15,0,0,0,.8,1,1.45,1.45,0,0,1,1-.7,1.14,1.14,0,0,0,.3.8c.2-.2.8-.7.9-.8s0-.3-.1-.1-.3,0-.4-.2a15.48,15.48,0,0,1,.1-2.2c-.3-.3-.6-1-.9-.9A1.81,1.81,0,0,0,19.56,38.56Zm1.4,1.9v.3c-.1,0-.2.1-.4.1-.2-.2-1.1-.5-.5-1,.4.2.5.1.9-.2Zm-.5-2.4c.1,0,.6.5.5.8v.6c-.5.3-.7.3-1.1-.1a.78.78,0,0,1-.1-.8C20,38.36,20.26,38.06,20.46,38.06Zm10.6,2.3c.2-.3,0-.5-.2-.1s-.8,0-1-.3a1.49,1.49,0,0,1-.3-1.4c.3-.3.6-.2,1.1-.2.3,0,.4-.3.4-.5a5.74,5.74,0,0,1-.7-.4,8.74,8.74,0,0,0-1,.8,1.68,1.68,0,0,0-.5,1.8,1.63,1.63,0,0,0,1.5,1.1C30.56,41.06,30.86,40.56,31.06,40.36Zm-4.8,5.1a.42.42,0,0,1-.7,0,3.33,3.33,0,0,1-.1-1.4s.6-.1.7-.1.1-.3,0-.3-.7,0-.7-.1a6.15,6.15,0,0,1,.1-1.3c0-.3-.1-.3-.2-.1s-.6,1.3-1,1.5.3.5.3.5a4.84,4.84,0,0,0,.2,2.2c.2.3.8.5.9.2a3.49,3.49,0,0,1,.6-.9C26.56,45.46,26.46,45.36,26.26,45.46ZM19,42.66c-.4.3-1.8.9-2,2.3a2.36,2.36,0,0,0,1.7,2.4c.2-.3.5-.8.8-1.2s0-.3-.2-.1-1.1,0-1.4-.4c.4-.3,1.5-1.2,1.9-1.6A6.38,6.38,0,0,1,19,42.66Zm-1.2,2.7c-.4-.5-.6-1.3.6-2a2.55,2.55,0,0,0,.7,1A7.57,7.57,0,0,1,17.76,45.36Zm6.7-5c-.1.1-.5-.2-.5-.2a5.84,5.84,0,0,1-.2-1.8l1.2-.1c.1,0,.1-.3,0-.3s-1,.1-1,0a2,2,0,0,1,.1-1.3c.1-.2,0-.4-.1-.2s-.8,1.3-1.2,1.4-.3.2-.1.3.4.2.3.2a7.81,7.81,0,0,0,.1,2.3c.2.3.6.6.8.4s.4-.5.5-.6C24.76,40.36,24.56,40.26,24.46,40.36Zm-.9,5.9c-.2,0-.3.1-.3,0s-.1-1.4-.1-2.1a1,1,0,0,0-.6-1,6.47,6.47,0,0,0-.9.8c-.2-.1-.3-.5-.5-.9-.3.2-.5.5-.9.8.2.2.5.5.5.8v2.5h.7v-2.8l.4-.4c.2.1.5.2.5.4a8.53,8.53,0,0,1,0,1.6,1.53,1.53,0,0,0,.2,1.3,7.63,7.63,0,0,1,1.1-.8C23.86,46.26,23.76,46.16,23.56,46.26Zm8.5-8.6h.3l.3-.3v-.5l-.4-.5-.5.4v.6ZM22,33.26v2.5h.8V33c.1-.1.2-.1.3-.2a3.39,3.39,0,0,0,.6.6,4.17,4.17,0,0,0,.8-.6c.2-.2,0-.3-.2-.2-.1-.1-.4-.5-.6-.7-.2.1-.6.4-.8.5-.2-.2-.4-.2-.8-.5-.2.2-.6.5-.9.8C21.56,32.86,22,32.86,22,33.26Zm23.9,12.8c-.2.2-.6,0-.7-.1a14.64,14.64,0,0,1,0-2.1h.7c.1,0,.1-.3,0-.3s-.6,0-.7-.1a1.73,1.73,0,0,1,.1-1c.1-.2-.1-.3-.2-.1a3.26,3.26,0,0,1-1.2,1.1c-.3.2.4.5.4.5,0,.9-.2,2.3.1,2.8a.69.69,0,0,0,.9.3c.3-.1.6-.6.7-.7C46.26,46.06,46.06,45.86,45.86,46.06Zm-12.8-11.3c.2,0,.4-.4-.6-.4C32.36,34.36,32.06,34.66,33.06,34.76Zm-.1,3.9-.4-.6h-.2l-.9.8c-.2.2,0,.3.2.1l.5.3v1.9c0,.2.2.3.5.6l.5-.4.4-.4a1.49,1.49,0,0,1-.7-.3Zm.1,7.4c-.1.2-.4,0-.5-.1a17,17,0,0,1-.1-2.2c-.3-.3-.8-1-1.1-1a2.18,2.18,0,0,0-1.3.9c-.1.2,0,1,.1,1h.1a1.74,1.74,0,0,0-.6,1.1,1.25,1.25,0,0,0,.6,1.1,3.69,3.69,0,0,1,1.4-.7,2.1,2.1,0,0,0,.8.6,2.7,2.7,0,0,1,.8-.7C33.36,46.06,33.16,45.86,33.06,46.06Zm-2.3.1c-.2-.2-.9-.6-.3-1.2a1.34,1.34,0,0,0,.9.2v.5a.37.37,0,0,0,.1.3C31.26,46.06,31,46.06,30.76,46.16Zm.7-1.2a1.67,1.67,0,0,1-1.1-.4c-.1-.1-.1-.5-.1-.7.2-.3.2-.4.3-.4s.8.4.8.7A2,2,0,0,1,31.46,45Zm1.7-10.8c.2,0,.3-.4-.6-.4C32.36,33.66,32.06,34.16,33.16,34.16Zm-4.1.1a11,11,0,0,1-1.1,1,3,3,0,0,0,1.5.6,3.26,3.26,0,0,0,1.8-.7c.8-.6.5-1.2-.3-1.7-.1,0-.1-.1-.2-.1.5-.4.9-.7,1-.8a2.57,2.57,0,0,0-1.4-.8,2.65,2.65,0,0,0-1.9,1.1C28.16,33.46,28.66,33.86,29.06,34.26Zm1.4,1.1c-.4.2-1.2-.4-1.4-.6a4.37,4.37,0,0,0,.8-.7,3,3,0,0,1,.8.4C31.06,34.76,30.86,35.16,30.46,35.36Zm-.8-2.9a2.42,2.42,0,0,1,1.1.6c-.1.1-.3.2-.5.4h-.4a.88.88,0,0,1-.7-.6C29,32.66,29.36,32.46,29.66,32.46ZM54.46,41a5.64,5.64,0,0,0,.7.1c.2,0,.1-.3,0-.3s-.4-.1-.6-.1S54.26,40.86,54.46,41Zm-1.7,3.8A5.93,5.93,0,0,0,52,44a5.38,5.38,0,0,1-1.2.9c.4,0,1,.1,1,.5v2.5h.9v-2.7c.1-.1.3-.1.3-.2a5.72,5.72,0,0,0,.8.7,5,5,0,0,0,.8-.7c.2-.2,0-.3-.2-.2a2.85,2.85,0,0,0-.8-.7A1.39,1.39,0,0,1,52.76,44.76Zm-.2-6.4a2.52,2.52,0,0,0-1.9,2.4c0,.6.5,1.9,1.6,1.9a4.81,4.81,0,0,1,1.1-.9,3,3,0,0,0,.5-1.6A2,2,0,0,0,52.56,38.36Zm.1,3.6a3.4,3.4,0,0,1-1.2-1.2,1.39,1.39,0,0,1,.4-1.7,2,2,0,0,1,1.2,1.2A2.41,2.41,0,0,1,52.66,42Zm-2.5,4.4a13.28,13.28,0,0,1,0-2,6.47,6.47,0,0,0-.8-.9l-.9.9c.3,0,.8.1.8.3a6.48,6.48,0,0,1,0,1.4c-.1.5-1.4.3-1.4-.1s.1-1.4.1-1.8a1.58,1.58,0,0,0-.7-.7,5.74,5.74,0,0,0-.9.8.6.6,0,0,1,.6.3,10.8,10.8,0,0,1,0,1.8c0,.4.3.5.6.8.3-.1,1.2-.5,1.6-.7a1.12,1.12,0,0,0,.7.8c.2-.2.4-.3.6-.5C50.26,46.76,50.26,46.66,50.16,46.36Zm0-10.4a2.09,2.09,0,0,0,.7,1.3,3,3,0,0,1,1.4-.7,1.16,1.16,0,0,0,.5.7l.8-.9a3.08,3.08,0,0,1-.6-.6,14.08,14.08,0,0,1,.1-2.1,1.76,1.76,0,0,0-1.4-.6,2.91,2.91,0,0,0-1.2.9.45.45,0,0,0,0,.5.52.52,0,0,0,.4.2h-.1A1.78,1.78,0,0,0,50.16,36Zm1.3.5a1.5,1.5,0,0,1-.4-1.7c-.1,0-.1-.1-.2-.1a10.41,10.41,0,0,0,1.2.5v1C52,36.36,51.76,36.36,51.46,36.46Zm-.8-2.2c-.1-.1-.1-.1,0-.2.2-.3.4-.5.5-.5s1,.4.9.7v.9A11,11,0,0,1,50.66,34.26Zm-2.1,4.4c.2.2.5.5.8.5s.7-.1.8-.3a9.32,9.32,0,0,1-1-1c-.3.2-1.7.9-1.8,1.7a1.92,1.92,0,0,0,.8,2.1.87.87,0,0,0,1,.3c.2-.2,1.2-1,1.3-1.1s0-.2-.2-.1l-.2.2a2.16,2.16,0,0,1-1.1-.1,1.61,1.61,0,0,1-.9-1.5C48.06,39.06,48.36,38.86,48.56,38.66Zm5.9,1.6c.2,0,.4.1.7.1s.1-.3,0-.3-.5-.1-.6-.1S54.26,40.26,54.46,40.26Zm-36.8-4a3.07,3.07,0,0,0,2.1-.1c.3-.1.3.1.5.3s.4.1.3-.1a.52.52,0,0,1-.2-.4v-1.4c0-.1-.3-.1-.3,0a1.64,1.64,0,0,1-.2.9,1.23,1.23,0,0,1-2.2.1,2.38,2.38,0,0,1-.3-1.2,3,3,0,0,1,.3-1.1,1.26,1.26,0,0,1,2.2.2,3.08,3.08,0,0,1,.1.9c0,.1.3.1.3,0v-2c0-.1-.2-.1-.2,0,0,.3-.2.3-.4.2a3.39,3.39,0,0,0-2,0,2.48,2.48,0,0,0-1.3,1.9A2,2,0,0,0,17.66,36.26Zm17.5,18.8a.9.9,0,0,0,.1,1.3,1.61,1.61,0,0,1-.9-.3c0,.3.3.4.5.5,1.3.5,2.2-.7,3.4-1h0c-.8-.1-1.4-.7-2.1-.9a1.92,1.92,0,0,0-2,.5C34.16,55.46,34.36,55.56,35.16,55.06Zm.9,0a8.26,8.26,0,0,1,1.3.7l-1.3.6s.4-.4.4-.7A1.08,1.08,0,0,0,36.06,55.06Zm11-21.9a10.06,10.06,0,0,0,.3,2.7c.1.3.5.8.7.7s.5-.8.6-.9,0-.4-.2-.3-.3-.1-.4-.2a7.74,7.74,0,0,1-.1-2.1s1.6-.2,1.7-.2.1-.3,0-.3h-1.6a1.47,1.47,0,0,1,.1-1.1c.1-.2-.1-.3-.2-.1a3.64,3.64,0,0,1-1.4,1.4C46.36,32.86,47.06,33.16,47.06,33.16Zm-28.8,8.3a9.22,9.22,0,0,1,.5-.8,1.65,1.65,0,0,1-1.4-.3,1.5,1.5,0,0,1-.3-2.1c.5-.7,1.1.3,1.2.4a2.17,2.17,0,0,1,.7-.6,2.36,2.36,0,0,1-.6-.9,4.82,4.82,0,0,0-1.7,1.2c-.5.8-.8,1.9.1,2.6A1.49,1.49,0,0,0,18.26,41.46Zm20.5-.1a3.54,3.54,0,0,0,2.5.1c.3-.1.5-.1.5.2s.2.1.2,0v-1.5c0-.2-.2-.1-.2,0a.85.85,0,0,1-.2.6,1.7,1.7,0,0,1-2.7-.2c-.3-.3-.5-.8-.2-.9a12.83,12.83,0,0,1,1.8.1,3.92,3.92,0,0,1,1.3.2c.1.1.2.2.2,0v-.9c0-.2-.1-.1-.2,0a13,13,0,0,1-1.3.3,9.7,9.7,0,0,1-1.7.1c-.3-.1-.2-.7.1-1a1.79,1.79,0,0,1,2.8-.1.85.85,0,0,1,.2.6c0,.1.2.1.2,0v-1.7c0-.1-.2-.2-.2,0s-.2.2-.5.1a5.28,5.28,0,0,0-2.4.4c-.5.3-1.4,1-1.4,1.9C37.46,40.86,38.06,41.06,38.76,41.36Zm5.8-9.9h.3l.4-.3v-.5l-.5-.5-.5.4v.6Zm-1,1.4.7.4v2a3.28,3.28,0,0,0,.6.8h.6l.6-.8a1.6,1.6,0,0,1-1-.5v-2.1l-.7-.7h-.2l-1,.9C43.06,33.06,43.36,33.06,43.56,32.86Zm-5.4-1.5a1,1,0,0,1,1,.4,25,25,0,0,1,1.9,4.3c.1-.2,1.4-3.8,1.4-4.1a1,1,0,0,1,.7-.8c.4-.1.3-.3.1-.3a7.57,7.57,0,0,0-1.5.1c-.3,0-.3.2-.1.2s.3.1.5.5a7.83,7.83,0,0,1-.7,2.5,11.33,11.33,0,0,1-.9-2c0-.1.3-.3.4-.3.3-.2.3-.4.1-.4-.5-.1-2.5-.3-2.8-.3S37.86,31.36,38.16,31.36Z" transform="translate(-0.96 -1.86)"></path>
</svg>
