<?xml version="1.0" encoding="UTF-8"?>
<svg xmlns="http://www.w3.org/2000/svg" id="Layer_1" data-name="Layer 1" viewBox="0 0 88 88">
  <defs>
    <style>.cls-1{fill:#aca8a1;}</style>
  </defs>
  <path class="cls-1" d="M7.76,45.86a37.8,37.8,0,1,0,37.8-37.8,37.77,37.77,0,0,0-37.8,37.8Zm-6.2,0a44,44,0,1,1,44,44,44,44,0,0,1-44-44Z" transform="translate(-1.56 -1.86)"></path>
  <path class="cls-1" d="M44.06,15.66a1.5,1.5,0,1,1,3,0,1.57,1.57,0,0,1-.9,1.4,8.07,8.07,0,0,0,8,7.9h.1a1.69,1.69,0,0,1,1.4-.9,1.5,1.5,0,0,1,0,3,1.57,1.57,0,0,1-1.4-.9c-4.1,1.1-6.3,4.6-7.3,16.8h-2.8c-1-12.2-3.2-15.6-7.3-16.8a1.57,1.57,0,0,1-1.4.9,1.5,1.5,0,0,1,0-3,1.69,1.69,0,0,1,1.4.9H37a8,8,0,0,0,8-7.9,1.33,1.33,0,0,1-.9-1.4Z" transform="translate(-1.56 -1.86)"></path>
  <path class="cls-1" d="M44.06,76.06a1.5,1.5,0,0,0,3,0,1.57,1.57,0,0,0-.9-1.4,8.07,8.07,0,0,1,8-7.9h.1a1.69,1.69,0,0,0,1.4.9,1.5,1.5,0,0,0,0-3,1.57,1.57,0,0,0-1.4.9c-4.1-1.1-6.3-4.6-7.3-16.8h-2.8c-1,12.2-3.2,15.6-7.3,16.8a1.57,1.57,0,0,0-1.4-.9,1.5,1.5,0,0,0,0,3,1.69,1.69,0,0,0,1.4-.9H37a8,8,0,0,1,8,7.9,1.33,1.33,0,0,0-.9,1.4Z" transform="translate(-1.56 -1.86)"></path>
  <path class="cls-1" d="M15.36,47.36a1.47,1.47,0,0,1-1.5-1.5,1.54,1.54,0,0,1,1.5-1.5,1.57,1.57,0,0,1,1.4.9,8.07,8.07,0,0,0,7.9-8v-.1a1.69,1.69,0,0,1-.9-1.4,1.5,1.5,0,0,1,3,0,1.57,1.57,0,0,1-.9,1.4c1.1,4.1,4.6,6.3,16.8,7.3v2.8c-12.2,1-15.6,3.2-16.8,7.3a1.57,1.57,0,0,1,.9,1.4,1.5,1.5,0,0,1-3,0,1.69,1.69,0,0,1,.9-1.4v-.1a8,8,0,0,0-7.9-8,1.33,1.33,0,0,1-1.4.9Z" transform="translate(-1.56 -1.86)"></path>
  <path class="cls-1" d="M75.76,47.36a1.47,1.47,0,0,0,1.5-1.5,1.54,1.54,0,0,0-1.5-1.5,1.57,1.57,0,0,0-1.4.9,8.07,8.07,0,0,1-7.9-8v-.1a1.69,1.69,0,0,0,.9-1.4,1.5,1.5,0,0,0-3,0,1.57,1.57,0,0,0,.9,1.4c-1.1,4.1-4.6,6.3-16.8,7.3v2.8c12.2,1,15.6,3.2,16.8,7.3a1.57,1.57,0,0,0-.9,1.4,1.5,1.5,0,0,0,3,0,1.69,1.69,0,0,0-.9-1.4v-.1a8,8,0,0,1,7.9-8,1.33,1.33,0,0,0,1.4.9Z" transform="translate(-1.56 -1.86)"></path>
</svg>
