<?xml version="1.0" encoding="UTF-8"?>
<svg xmlns="http://www.w3.org/2000/svg" id="Layer_1" data-name="Layer 1" viewBox="0 0 101.7 37.6">
  <defs>
    <style>.cls-1{fill:#aca8a1;}</style>
  </defs>
  <path class="cls-1" d="M15.79,5.32H1.29v33.5h14.5c10.2,0,15.2-7.2,15.2-17C31,10.72,24.49,5.32,15.79,5.32Zm-.5,27.3H8.69V11.52H14c7.3,0,9.7,4.3,9.7,11.1C23.59,30,19.59,32.62,15.29,32.62Zm31.6-27.3H32.49v33.5H47c10.2,0,15.2-7.2,15.2-17C62.09,10.72,55.59,5.32,46.89,5.32Zm-.5,27.3h-6.6V11.52h5.3c7.3,0,9.7,4.3,9.7,11.1C54.79,30,50.69,32.62,46.39,32.62Zm39.1-12a7.4,7.4,0,0,0,4.6-7c0-6.2-4.3-8.3-10.7-8.3H63.59v33.5h16.3c6.1,0,11.8-2.9,11.8-9.7C91.69,24.92,89.59,21.82,85.49,20.62ZM71,11h6.9c2.6,0,5.1.7,5.1,3.9,0,2.8-1.9,4-4.5,4H71Zm7.9,22.1H71v-9.2h8c3.1,0,5.3,1.4,5.3,4.8S81.79,33.12,78.89,33.12Zm17.9-31.9a6.2,6.2,0,1,0,6.2,6.2A6.23,6.23,0,0,0,96.79,1.22Zm3,7.9a3.49,3.49,0,0,1-3,1.7,3.4,3.4,0,1,1,3.4-3.4A3.29,3.29,0,0,1,99.79,9.12Z" transform="translate(-1.29 -1.22)"></path>
</svg>
