<?xml version="1.0" encoding="UTF-8"?>
<svg xmlns="http://www.w3.org/2000/svg" id="Layer_1" data-name="Layer 1" viewBox="0 0 104 104">
  <defs>
    <style>.cls-1{fill:#f5f4f3;}.cls-2{fill:#aca8a1;}.cls-3{fill:#231f20;}.cls-4{fill:none;}</style>
  </defs>
  <path class="cls-1" d="M105.21,53.25a51.5,51.5,0,1,1-51.5-51.6,51.58,51.58,0,0,1,51.5,51.6" transform="translate(-1.81 -1.15)"></path>
  <path class="cls-1" d="M103.21,53A49.2,49.2,0,1,1,54,3.75,49.16,49.16,0,0,1,103.21,53" transform="translate(-1.81 -1.15)"></path>
  <path class="cls-1" d="M22.41,57.85l4.5,3.7,2.1-4.7c1.2,4,3.2,10.4,5.5,12.5a10.67,10.67,0,0,1-1.6,1.8,26.21,26.21,0,0,0,3.4,3.9c1.4,1,8.4,5.6,13.1,6.1a1.43,1.43,0,0,1,.7,1l-.1.5s6.9.1,7.4-.1.2-1.1.2-1.1.9-.2,2.5-.7,7.8-2.2,14.6-9.5c-.5-.3-1.9-1.4-1.7-1.8s3.7-4.2,5.4-12.6a39.41,39.41,0,0,1,2.2,4.5l4.2-3.2a56.22,56.22,0,0,1-3.7,10.3c1.1.8,2.5,1.9,2.5,1.9-4.1,6.9-10.3,14.2-24,17.3-.1,1,.1,1.1-.3,1.4s-10.3,1.2-11.2,0a8.88,8.88,0,0,0-.6-1.5c-3.2-.7-18.5-5.4-23.7-17.3.7-.5,2.5-1.7,2.5-1.7l-3.9-10.7Zm19.5-26.2.5-5.2.8-.8.4-2.5-1.2-1.5v-2.9l7.8-.1.1-2.2,7.2-.2.1,2.5,7.9-.1-.2,2.7-1.1,1.4.2,2.7,1,.9.5,5.1,11.7.3c0,17.5,3.5,36.9-23.9,50-25.7-13.4-23.9-27.1-23.9-49.7l12.1-.4Z" transform="translate(-1.81 -1.15)"></path>
  <path class="cls-1" d="M49.91,19.05l1.6,1.8-.7,2.4h-2.2l-.1-.6,1-1.1Zm6.3,1.5,1.6-1.4.1,2.5,1.4,1.7-2.7-.1Z" transform="translate(-1.81 -1.15)"></path>
  <path class="cls-2" d="M80.81,20.65a6.79,6.79,0,0,0,1.2-1.2,4.38,4.38,0,0,0,1-1.9,1.3,1.3,0,0,0-.5-1.3,1.38,1.38,0,0,0-1.8.1,4.53,4.53,0,0,0-1.2,1.2,8,8,0,0,0-.9,1.4,1.35,1.35,0,0,0,.4,1.8,1.38,1.38,0,0,0,1.8-.1m-13.2,71.8a.92.92,0,0,0-1-.2l-.4.2a.19.19,0,0,0,0,.3l.7,2.1a3.58,3.58,0,0,0,1.1-.6c.2-.2.2-.6,0-1.1a1.61,1.61,0,0,0-.4-.7m-13.1,3a1.49,1.49,0,0,0-.2-.9.72.72,0,0,0-.7-.4c-.2,0-.3,0-.4.1a.37.37,0,0,0-.1.3v2a2.68,2.68,0,0,0,1.1-.2q.3-.15.3-.9M28,85.25c-.1-.1-.2-.2-.3-.2s-.2,0-.2.1L26,87a2.06,2.06,0,0,0,.9.5,1.37,1.37,0,0,0,1-.6,2,2,0,0,0,.5-.9.87.87,0,0,0-.4-.7m22.1-76.2a1.44,1.44,0,0,0,.3-1.1,1.88,1.88,0,0,0-.2-.8.81.81,0,0,0-.9-.4,4.33,4.33,0,0,0-.5.1.37.37,0,0,0-.1.3l.2,2.2a1.92,1.92,0,0,0,1.2-.3m4,88.1A2.68,2.68,0,0,0,53,97v2.2c0,.2,0,.3.1.3a.52.52,0,0,0,.4.2,1.22,1.22,0,0,0,.9-.3,1.33,1.33,0,0,0,.3-1,1.21,1.21,0,0,0-.6-1.2" transform="translate(-1.81 -1.15)"></path>
  <path class="cls-1" d="M33.51,59.15a36.06,36.06,0,0,1-1.9-11.9h44.7a36.61,36.61,0,0,1-1.9,11.9Z" transform="translate(-1.81 -1.15)"></path>
  <path class="cls-2" d="M1.81,53.15a52,52,0,1,0,52-52,52,52,0,0,0-52,52m.9,0a51.1,51.1,0,1,1,51.1,51.1,51.13,51.13,0,0,1-51.1-51.1" transform="translate(-1.81 -1.15)"></path>
  <path class="cls-2" d="M58.61,32.05h-1.3v.2h8.8l-.4-5.9-.8-.8c0-.3-.3-1.9-.3-2.3l1.2-1.2v-3.5h-8v-2.4h-8v2.3h-7.9V22l1.2,1.2c-.1.5-.3,2-.3,2.3l-.8.8-.4,5.9h8.8V32H49v-.1h-6.7v-.2l.1-.8h2.2v.6h.2v-.6h2.3v.6h.2v-.6h2.1l.1.9h1.3v.4H57v-.3h.4V32h.7v-.1h.1v-.1a4.53,4.53,0,0,1,.1-.8h2.2v.6h.2V31H63v.6h.2V31h2.2l.1.9h-6.7l-.2.2m6.5-2.4H63v-1h2.1Zm-4.6-8.2h2.3v1h-2.3Zm-1.3-1.2h2.3v1h-2.3Zm2.5,0H64v1h-2.3Zm2.6,5.8h-2.6v-1h2.2a3.2,3.2,0,0,1,.1.7h0l.3.3m-1.5,1.2h-2.3v-1h2.3Zm-2.3-3.4h2.3v1h-2.3Zm2.5,1v-1h.8c0,.3.1.7.1,1Zm.7-2a4.13,4.13,0,0,1,.1.9h-2v-1h2.1c-.2,0-.2.1-.2.1m-2.1-.2v1h-2l.1-.3c0-.1.1-.3.1-.4h0l-.3-.3Zm-2,1.2h.8v1h-.9a1.73,1.73,0,0,1,.1-1m2,1.2v1H59l.2-.2c0-.1.1-.4.2-.9h2.2Zm-1.3,1.2v1h-1.9l.1-.6.4-.4Zm-1.2,1.2v1h-.8c0-.4.1-.7.1-1Zm1.2,1.2v1h-2.1c0-.3.1-.7.1-1Zm-1.1-1.2h2.3v1h-2.3Zm1.3,1.2h2.3v1h-2.3Zm1.2-1.2H64v1h-2.3Zm3.3,1h-.8v-1h.7Zm-.5-2.2a3.91,3.91,0,0,1,.4.5v.5h-2v-1Zm.4-4.6-.8.8H63v-1h1.9Zm0-.4h-.6v-1H65Zm-1.3-2h1.3v.9h-1.3v-.9Zm-2.6,0h1.3v.8H61Zm-2.6,0h1.3v.8h-1.3Zm0,1h.7v1h-.7Zm0,1.2h1.9v1h-1.1l-.9-.9v-.1Zm.2,1.4h-1.7c-.1-.6-.2-1.7-.3-2.1l1.1-1.1v2.2l.9,1m-5.9-3.7H55v.9h-2.3Zm-1.3-1.1h2.3V19h-2.3Zm2.5,0h2.3V19h-2.3Zm1.9,2.4.1.8h-2v-1h2.2a1.24,1.24,0,0,0-.3.2m.3,2h-1v-1h.8c.1.3.1.7.2,1m-2.4-2.2v1h-2c0-.2.1-.5.1-.7l-.4-.4h2.3Zm-1.2,1.2v1h-1c.1-.3.1-.7.2-1Zm1.2,1.2V23h-2.3v-.3Zm-1-1.2H55v1h-2.3Zm1.2,1.2h2.2V23h-2.2v-.3Zm1.2-2.6v-.9H57v.2a8.78,8.78,0,0,1-.8.7Zm1.3-1.1v-.9H57V19Zm-.6-2h1.3v1h-1.3V17Zm-2.7,0h1.3v.9h-1.3Zm-2.6,0h1.3v.9h-1.3Zm0,1.1h.7V19h-.7Zm0,1.1h1.9v.9h-1.1l-.8-.8v-.1Zm-.6,2.8v-2.2l1.1,1.1c-.1.4-.2,1.5-.3,2.1H49l.9-1m-5.2-.5H47v1h-2.3Zm-1.2-1.2h2.3v1h-2.3Zm2.5,0h2.3v1H46Zm2.6,5.8H46v-1h2.2a3.2,3.2,0,0,1,.1.7h0l.3.3m.1.2a3.91,3.91,0,0,1,.4.5v.5h-2v-1Zm-4-2.4H47v1h-2.3Zm2.5,1v-1H48c0,.3.1.7.1,1Zm.7-2,.1.5v.3H46v-1h2.1l-.2.2h0m-2.1-.2v1h-2c0-.3.1-.5.1-.7l-.3-.3Zm-2,1.2h.8v1h-.9a3.4,3.4,0,0,1,.1-1m2,1.2v1h-2.5l.2-.2c0-.1.1-.4.2-.9h2.1Zm-1.1,1.2H47v1h-2.3Zm1.1,2.2h-2.3v-1h2.3Zm-1.1.2H47v1h-2.3Zm1.3-1.2h2.3v1H46Zm1.2,1.2h2.1l.1,1h-2.1v-1Zm1.3-.2v-1h.7l.1,1Zm-.2-6h-1.1v-1h1.9v.2a5.4,5.4,0,0,1-.8.8m.2-1.2v-1h.7v1Zm-.6-2h1.3v.9h-1.3v-.9Zm-2.6,0h1.3v.8h-1.3Zm-2.6,0H44v.8h-1.3Zm0,1h.7v1h-.7Zm0,1.3v-.1h1.9v1h-1.1a5.06,5.06,0,0,1-.8-.9m0,5.1.4-.4h1.5v1h-1.9v-.6m-.1.8h.7v1h-.8a3.75,3.75,0,0,0,.1-1m-.1,1.2h2v1h-2.1a3.75,3.75,0,0,0,.1-1m.8,2.2h-1a3.4,3.4,0,0,1,.1-1h.9Zm2.5,0h-2.3v-1h2.3Zm2.5,0H46v-1h2.3Zm.2,0v-1h.9l.1,1Zm3.6.9h-1v-1h1Zm0-1.3h-1v-.9h1Zm0-1.1h-1v-.9h1Zm0-1.1h-1v-.1a3.55,3.55,0,0,1,.2-1l.9.5a1.27,1.27,0,0,0-.1.6m.2-.7-.9-.5a2.19,2.19,0,0,1,.9-1l.6,1c-.4,0-.5.2-.6.5m1.4-1a1.45,1.45,0,0,0-.7.2l-.6-1a2.84,2.84,0,0,1,1.3-.4Zm.2,0v-1.2a2.84,2.84,0,0,1,1.3.4l-.6,1a1.45,1.45,0,0,0-.7-.2m1,.4.6-1a2.54,2.54,0,0,1,.8,1l-.9.5c-.2-.2-.3-.4-.5-.5m1.6,4.8h-1v-1h1Zm0-1.3h-1v-.9h1Zm0-1.1h-1v-.9h1Zm0-1.1h-1a.75.75,0,0,0-.1-.5l.9-.5a3,3,0,0,1,.2,1Zm1.3,3.5h-.9v-3.6a3.1,3.1,0,1,0-6.2,0v3.6h-.9c0-.4-.4-5.2-.4-5.2l-.9-.9h0c0-.2-.2-1.3-.2-1.8h1v1h1.2v-1h1.3v1H53v-1h1.3v1h1.2v-1h1.3v1H58v-1h1c-.1.4-.3,1.9-.3,2l-.8.7-.1.1c.3-.1,0,4.7,0,5.1m1.3-.9h-1a3.4,3.4,0,0,1,.1-1h.9v1Zm2.5,0h-2.3v-1h2.3Zm2.5,0h-2.3v-1h2.3Zm.1,0v-1h.9l.1,1Z" transform="translate(-1.81 -1.15)"></path>
  <path class="cls-3" d="M49.61,32h0l-.7-.1V32h1.4v-.1l-.7.1Zm.7,0h7.6v-.1l-7.6.1Zm-.7-.1h0l.7.1v-.1Zm.7.1h0l6.9.1V32Zm8.3,0h-.7v.1h-.7v.1h1.3l.1-.2" transform="translate(-1.81 -1.15)"></path>
  <path class="cls-2" d="M53.81,63.45a3.4,3.4,0,1,0,3.4,3.4,3.37,3.37,0,0,0-3.4-3.4M42,37.75a3.4,3.4,0,1,0,3.4,3.4,3.37,3.37,0,0,0-3.4-3.4m23.6,0a3.4,3.4,0,1,0,3.4,3.4,3.44,3.44,0,0,0-3.4-3.4" transform="translate(-1.81 -1.15)"></path>
  <path class="cls-2" d="M55.71,48.15h3.1v3.1h-3.1Zm0,6.9h3.1v3.1h-3.1Zm3.4-3.5h3.1v3.1h-3.1Zm3.4-3.4h3.1v3.1h-3.1Zm0,6.9h3.1v3.1h-3.1Zm3.5-3.5h3.1v3.1H66Zm3.4-3.4h3.1v3.1h-3.1Zm0,6.9h3.1v3.1h-3.1Zm-34.3-6.9h3.1v3.1h-3.1Zm0,6.9h3.1v3.1h-3.1Zm10.3-3.5h3.1v3.1h-3.1ZM42,48.15h3.1v3.1H42Zm0,6.9h3.1v3.1H42Zm6.8-6.9h3.1v3.1h-3.1Zm0,6.9h3.1v3.1h-3.1Zm3.4-3.5h3.1v3.1h-3.1Zm-13.6,0h3.1v3.1h-3.1Z" transform="translate(-1.81 -1.15)"></path>
  <path class="cls-2" d="M32,52.85l.1.8.1.7.1.4h2.5v-3.1h-3l.1.5.1.7Zm43.7-.7.1-.5h-3v3.1h2.5l.1-.4.1-.7.1-.8.1-.7" transform="translate(-1.81 -1.15)"></path>
  <path class="cls-2" d="M76.21,33.05h-45v14.3c0,24.7,22.3,33.3,22.5,33.3h.2c.2-.1,22.5-8.6,22.5-33.3V33.05Zm-.3.5v13.8c0,23.9-21.2,32.5-22.1,32.9-1-.4-22.1-8.9-22.1-32.9V33.55Z" transform="translate(-1.81 -1.15)"></path>
  <path class="cls-2" d="M7.81,55.35a1.8,1.8,0,1,0,1.8-1.8,1.79,1.79,0,0,0-1.8,1.8m.2,0a1.5,1.5,0,1,1,1.5,1.5A1.54,1.54,0,0,1,8,55.35" transform="translate(-1.81 -1.15)"></path>
  <path class="cls-4" d="M59.31,88.85c0-1.5.4-4.8.6-6.4a8.4,8.4,0,0,1-1.4.4,29,29,0,0,1-9.6,0,5.73,5.73,0,0,1-1.4-.4c.2,1.6.6,4.9.6,6.4a.76.76,0,0,0,.5.2,7,7,0,0,0,1.6.2c1.3.1,2.7.1,3.3.1s2.1,0,3.3-.1c.6-.1,1.2-.1,1.6-.2a1.44,1.44,0,0,0,.9-.2Zm.1.3a.76.76,0,0,1-.5.2,7.18,7.18,0,0,1-1.7.2c-1.3.1-2.7.1-3.4.1s-2.1,0-3.4-.1c-.6-.1-1.2-.1-1.7-.2-.2-.1-.4-.1-.5-.2l-.2-.1c0-1.6-.4-4.9-.6-6.5l-.1-.5.4.2c.3.1.8.2,1.3.4a27.81,27.81,0,0,0,9.4,0,4,4,0,0,0,1.3-.4l.4-.2-.1.5c-.2,1.5-.6,4.9-.6,6.3v.3Zm-11.5-1.4-.3-.1c-.2-2.3-.7-5.9-.7-5.9h.7a.77.77,0,0,1,.3.1,6.83,6.83,0,0,0,1.3.4,2.77,2.77,0,0,0,.9.1v.3l-.9-.2a3.92,3.92,0,0,1-1.4-.4l-.5-.1c.1.9.5,3.4.6,5.3v.5Zm-23.7-17.3c3,6.3,12.2,14.6,23.7,17v.3l-.4-.1C36.11,85.25,27,77,23.91,70.55l-.1-.2.2-.1a56,56,0,0,0,5.5-3.5l.3-.2.1.4c.8,2.4,6.1,11.3,19.9,14.6l.2.1v1.2h-.3V82c-13.9-3.3-19.2-12.2-20.1-14.7-.8.3-3,1.9-5.4,3.2M60,88l-.7.1c.1-1.7.4-4.3.6-5.6a8.4,8.4,0,0,1-1.4.4c-.4.1-.8.1-1.3.2v-.7c.4-.1.9-.1,1.2-.2a3.32,3.32,0,0,0,1.3-.4c.1-.1.2-.1.3-.2a.35.35,0,0,1,.7,0v.2c-.1.8-.6,4.2-.7,6.2" transform="translate(-1.81 -1.15)"></path>
  <path class="cls-2" d="M30.31,65.75a.87.87,0,0,0-.7.4l.7.5.1-.1c.3,0,1,.9,1.5,1.6.8,1,1.6,2,2.4,2.1l.8-.3-.5-.6-.2.1c-.5,0-1.2-1.1-1.8-1.8-.9-1-1.6-1.9-2.3-1.9m20.3,18.8h0l-.4,3a.37.37,0,0,0,.1.3c.1,0,.2.1.4.1v.1l-1.4-.2v-.1h.4c.1,0,.1-.1.1-.3l.3-2.3V85l-.1-.1h-.2c-.1,0-.1,0-.2.1v-.1l1-.3h0" transform="translate(-1.81 -1.15)"></path>
  <path class="cls-2" d="M53.61,84.75h0l-1.2,3.4h-.3l1.1-3h-1.1c-.2,0-.3,0-.4.1l-.3.3h-.1l.2-.5c0-.1.1-.1.1-.3Zm2,3.1c.1-.1.1-.2.1-.4a.52.52,0,0,0-.2-.4,2.49,2.49,0,0,0-.7-.5,1.38,1.38,0,0,0-.3.4.6.6,0,0,0-.1.4.68.68,0,0,0,.7.7c.2-.1.4-.1.5-.2m-.2-2.1a.75.75,0,0,0,.1-.5.52.52,0,0,0-.2-.4.76.76,0,0,0-.5-.2.52.52,0,0,0-.4.2c-.1.1-.1.2-.1.4a.52.52,0,0,0,.2.4,2.18,2.18,0,0,0,.5.4,1.38,1.38,0,0,0,.4-.3m-1.2.2c-.1-.2-.2-.3-.2-.5a.86.86,0,0,1,.3-.6c.2-.2.4-.2.7-.3a1.45,1.45,0,0,1,.7.2.55.55,0,0,1,.3.5.76.76,0,0,1-.2.5,1.38,1.38,0,0,1-.4.3,3.81,3.81,0,0,1,.6.5c.1.2.2.3.2.5a.86.86,0,0,1-.3.6.91.91,0,0,1-.7.3,1.45,1.45,0,0,1-.7-.2.6.6,0,0,1-.3-.6,1.42,1.42,0,0,1,.2-.6,2.74,2.74,0,0,1,.5-.4,1,1,0,0,1-.7-.2" transform="translate(-1.81 -1.15)"></path>
  <path class="cls-2" d="M58.41,84.35h0l-.7,3.6h-.3l.6-3.2-1.1.1a.44.44,0,0,0-.3.1c-.1.1-.1.2-.2.4h-.1l.1-.5a.37.37,0,0,1,.1-.3l1.9-.2ZM29.71,70h0c-.2-.1-.2-.1-.2-.2s-.1-.1-.2,0l-.1.1c0,.1-.1.2-.2.3l-1,1.7,2-.5c.1,0,.2,0,.2-.1s.1,0,.1-.1.1-.1.1-.2,0-.1-.1-.2l.1-.1.6.9h-.1c-.1-.1-.1-.1-.2-.1h-.5l-3,.7v-.1l1.6-2.6A1.69,1.69,0,0,0,29,69a.37.37,0,0,0-.1-.3H29l.7,1.3Zm-1.1,4.1c.1.1.2.2.3.2s.2,0,.3-.2l1.7-1.5c.1-.1.2-.2.2-.3s0-.2-.2-.3l.1-.1,1.8,2.1-.5.5-.1-.1c.1-.2.2-.3.2-.4a.91.91,0,0,0-.3-.5l-.5-.5a.1.1,0,1,0-.2,0l-.9.8.5.6a.75.75,0,0,0,.3.3c.1,0,.2,0,.4-.2l.1.1-.9.8-.1-.1c.1-.2.2-.3.2-.4s-.1-.2-.2-.4l-.5-.6-1,.8c-.1.1-.1.1-.1.2s.1.2.4.5a1.33,1.33,0,0,0,.6.5.85.85,0,0,0,.7,0l.1.1-.8.4-1.6-2.3Zm4.9,2.6a.62.62,0,0,0,.7-.2.49.49,0,0,0,.1-.7c-.1-.1-.2-.3-.3-.4l-.2-.2a.1.1,0,0,0-.1.1l-.9.9c.4.3.6.5.7.5m-2.5.1a1.24,1.24,0,0,1,.3.2q.15,0,.3-.3l1.5-1.6c.1-.1.2-.2.2-.3s-.1-.2-.2-.3l.1-.1,1,1a2.65,2.65,0,0,1,.5.6.9.9,0,0,1-.1,1,.86.86,0,0,1-.6.3,1.33,1.33,0,0,1-.7-.3l-.1,1.7V79c0,.1.1.1.1.2l-.1.1-.6-.6.2-2-.2-.2-.7.7c-.1.1-.2.2-.2.3s.1.2.2.3l-.1.1-.8-1.1Zm3,2.6c.2.1.3.2.4.2s.2-.1.3-.2l1.4-1.8c.1-.1.2-.3.1-.3s-.1-.2-.3-.3l.1-.1,1.2.9-.1.1c-.2-.1-.3-.2-.4-.2s-.2.1-.3.2L35,79.65c-.1.2-.2.3-.1.4s.1.2.3.3l-.1.1L34,79.35Zm3.4-1.5,2.5,1.5-.4.8-.1-.1a1.76,1.76,0,0,0,.1-.6c0-.1-.2-.3-.4-.4l-.2-.2-1.4,2.2a.76.76,0,0,0-.1.4q0,.15.3.3v.1l-1.3-.8V81a.76.76,0,0,0,.4.1q.15,0,.3-.3l1.4-2.2-.2-.2a.73.73,0,0,0-.6-.2.91.91,0,0,0-.5.3l-.1-.1.3-.5Zm3.5,4.3.1-1.5-1.1,1Zm-2.5.3h0c.2,0,.3,0,.4-.1s.3-.2.6-.5l2-1.8h.1l-.1,3.2v.4c0,.1.1.1.2.2V84l-1.2-.6v-.1a.37.37,0,0,0,.3.1.1.1,0,0,0,.1-.1v-.8l-1.2-.6a2.25,2.25,0,0,0-.5.5l-.1.1v.2a.35.35,0,0,0,.2.1v.1l-.8-.4Zm4.4.8c0,.2,0,.5.1.6a.9.9,0,0,0,.6.6c.2.1.3,0,.5,0s.3-.2.3-.4,0-.3,0-.5-.2-.3-.4-.5l-.3-.4c-.1-.1-.2-.2-.2-.3a.64.64,0,0,1,0-.6.82.82,0,0,1,.5-.5.85.85,0,0,1,.7,0c.1,0,.2.1.4.2l.2.2h.1l.1-.1h.1l-.2,1.1h-.1a1.08,1.08,0,0,0-.2-.8,1,1,0,0,0-.5-.4h-.4q-.15,0-.3.3v.4a.54.54,0,0,0,.3.4l.3.4a5.92,5.92,0,0,0,.4.6.64.64,0,0,1,0,.6.82.82,0,0,1-.5.5,1.1,1.1,0,0,1-.8,0c-.2-.1-.3-.1-.4-.3s-.2-.2-.3-.2h-.1l-.1.1h-.1l.2-1.1.1.1ZM63,81.35h0l-.2.2c-.1.1-.1.1-.1.2a.31.31,0,0,0,.1.2c.1.1.1.2.3.3l1.4,1.4v-2.4c0-.1-.1-.1-.2-.1s-.1,0-.2.1v-.1l1-.4v.1c-.1.1-.2.1-.2.2s-.1.2-.1.5l-.1,3.1h-.1l-2.2-2.2c-.2-.2-.3-.3-.4-.3h-.3v-.1l1.3-.7Zm4.2,1.9q.3-.15.3-.3a.76.76,0,0,0-.1-.4l-1-2.1a1.24,1.24,0,0,0-.2-.3.76.76,0,0,0-.4.1v-.1l1.4-.7v.1q-.3.15-.3.3a.76.76,0,0,0,.1.4l1,2.1a1.24,1.24,0,0,0,.2.3.76.76,0,0,0,.4-.1v.1l-1.4.6Zm3-3.7a.6.6,0,0,0,0-.8c-.2-.2-.4-.4-.6-.3a1.69,1.69,0,0,0-.5.2c-.1.1-.2.1-.2.2V79l.7,1.1a1,1,0,0,0,.6-.5m-.5,2.5c.2-.1.2-.2.2-.3s0-.2-.2-.4l-1.2-1.9c-.1-.2-.2-.2-.3-.3a.76.76,0,0,0-.4.1l-.1-.1,1.2-.8a1.33,1.33,0,0,1,.7-.3.7.7,0,0,1,.9.4.66.66,0,0,1,.1.6,2.09,2.09,0,0,1-.4.6l1.6.5h.3a.37.37,0,0,0,.3-.1v.1l-.7.5-1.9-.7-.2.2.6.9c.1.2.2.2.3.3a.76.76,0,0,0,.4-.1v.1l-1.2.7Zm1.4-4.9,2.3-1.8.6.7-.1.1a.57.57,0,0,0-1,0l-.2.2,1.7,2c.1.2.2.2.3.2s.2-.1.4-.2l.1.1-1.2.9-.1-.1c.2-.2.2-.3.2-.3s-.1-.2-.2-.4l-1.6-2-.2.2a1.76,1.76,0,0,0-.4.5,1,1,0,0,0,.2.6l-.1.1-.7-.8Zm3.8-3.5h0a.76.76,0,0,0-.1.4c0,.1.1.2.2.3l1.2,1.1a.91.91,0,0,0,.5.3.67.67,0,0,0,.8-.3.86.86,0,0,0,.3-.9,1.33,1.33,0,0,0-.5-.6l-1-.9a.91.91,0,0,0-.5-.3c-.1,0-.2.1-.4.2l-.1-.1.8-.9.1.1c-.1.2-.2.3-.2.4s.1.2.3.4l1,.9a1.53,1.53,0,0,1,.5.7,1.2,1.2,0,0,1-.4,1.2,1.29,1.29,0,0,1-1.2.5,5.74,5.74,0,0,1-.7-.4l-1.2-1.1c-.1-.1-.2-.2-.3-.2s-.2.1-.3.2l-.1-.1,1.3-.9Zm4-1a1.27,1.27,0,0,0,.6.1.84.84,0,0,0,.7-.4.6.6,0,0,0,.1-.4c0-.2-.1-.3-.3-.4a.75.75,0,0,0-.5-.1,3.93,3.93,0,0,0-.6.2l-.5.2a.6.6,0,0,1-.4.1,1.27,1.27,0,0,1-.6-.1.92.92,0,0,1-.4-.6,1,1,0,0,1,.2-.7l.3-.3.2-.2c0-.1.1-.1,0-.1a.1.1,0,0,0-.1-.1l.1-.1,1,.5-.1.1a2.49,2.49,0,0,0-.8-.1,2.19,2.19,0,0,0-.5.3c-.1.1-.1.2-.1.4s.1.2.2.3a.37.37,0,0,0,.3.1,4.33,4.33,0,0,1,.5-.1l.5-.2a4.08,4.08,0,0,1,.7-.2c.2,0,.4,0,.5.2a2.09,2.09,0,0,1,.4.6,1.2,1.2,0,0,1-.2.8l-.4.4-.2.2v.1a.1.1,0,0,0,.1.1l-.1.1-.6-.7Z" transform="translate(-1.81 -1.15)"></path>
  <path class="cls-2" d="M100.21,55.35a2.11,2.11,0,0,0-.5-1.3c1.9-1.9,1.7-3.7,1.5-5.4l-.1-1-.2.2c-.3.3-.6.5-.9.8a6.3,6.3,0,0,0,.4-4.8l-.2-1-.2.2a5,5,0,0,0-.7.8c.8-1.8.3-3.3-.1-4.7l-.3-1-.2.2a5.55,5.55,0,0,1-.6.8c.6-1.9-.1-3.3-.6-4.6l-.4-1-.1.2a4.05,4.05,0,0,0-.5.9,6,6,0,0,0-1.1-4.5l-.6-1-.1.2a12.78,12.78,0,0,0-.9,2.2c-.2-1.9-1.2-3.1-3.4-4.1l-.2-.1v.2c0,2.4.4,4,2.5,5.5a10.07,10.07,0,0,0-3.2-1h-.2l.1.2.1.2a9.71,9.71,0,0,0,2.6,3.6c-.2-.1-.4-.1-.6-.2l-.2-.1.1.2.1.2a9.35,9.35,0,0,0,2.3,3.9,1.42,1.42,0,0,0-.6-.2l-.2-.1.1.2v.2a8.78,8.78,0,0,0,1.8,4.1c-.2-.1-.3-.2-.5-.3l-.2-.1v.5a10.18,10.18,0,0,0,1.3,4.2,1.38,1.38,0,0,0-.4-.3l-.2-.1v.5c.1,1.8.2,4.1,2.1,5.8a2.1,2.1,0,0,0-.4,1.1,1.4,1.4,0,0,0,.3.9c-2.1,1.5-2.5,3.8-2.7,5.6l-.1.4.2-.1a2.19,2.19,0,0,0,.5-.3,8.78,8.78,0,0,0-1.8,4.1l-.1.4.2-.1a1.42,1.42,0,0,1,.6-.2,9.82,9.82,0,0,0-2.3,3.9l-.1.4.2-.1c.2-.1.4-.1.6-.2a8.71,8.71,0,0,0-2.6,3.6l-.2.4h.2c.2,0,.4-.1.6-.1a9.33,9.33,0,0,0-3,3.3l-.2.4h.3a11.38,11.38,0,0,0,3.2-.6c-2.2,1.2-2.8,2.8-3,5.2v.2l.2-.1c2.2-.8,3.3-1.7,3.8-3.5a11.52,11.52,0,0,0,.6,2.1l.1.2.6-.9a6.14,6.14,0,0,0,1.6-4.6,5.36,5.36,0,0,0,.5,1.1l.1.2.5-.9a6,6,0,0,0,1.1-4.5c.2.3.3.6.5.9l.1.2.4-1a5.94,5.94,0,0,0,.6-4.6c.2.3.4.5.6.8l.1.2.3-1a6.54,6.54,0,0,0,.1-4.8,6,6,0,0,0,.8.8l.2.2.2-1c.3-1.6.7-3.4-.9-5.5a3.14,3.14,0,0,0,.7-1.6m.7-7.2v.5c0,.5.1,1,.1,1.5a4.86,4.86,0,0,1-1.6,3.7,1.61,1.61,0,0,0-.9-.3,3.9,3.9,0,0,0-.2-1.6v-.2l.1-.5a7,7,0,0,1,2.5-3.1m-2.7,3h0a6.07,6.07,0,0,0-.7-1,4.88,4.88,0,0,0,.7.3l.2.1h0v.1l.1-.1.1-.1c-.2.1-.3.4-.4.7m1.8-7.8.1.5a14.6,14.6,0,0,1,.3,2.2,5.29,5.29,0,0,1-2,4.1.9.9,0,0,1-.1-.5,4.09,4.09,0,0,0-.4-2.2v-.7a7.37,7.37,0,0,1,2.1-3.4M97.81,46h0l.2-.1a1.88,1.88,0,0,0-.2.8v.1a3.13,3.13,0,0,0-.9-1.1c.3.1.5.2.8.3Zm1-7.3a4.71,4.71,0,0,1,.2.5,8,8,0,0,1,.5,2.6,5.6,5.6,0,0,1-1.6,3.7c-.1-.2-.1-.3-.2-.5a6.64,6.64,0,0,0-.6-2.2v-.7c0-1.1.6-2.1,1.7-3.4M97,34.05a4.71,4.71,0,0,1,.2.5,7.89,7.89,0,0,1,.8,3.1,6.66,6.66,0,0,1-1.2,3.4c-.1-.2-.2-.3-.2-.4a6.48,6.48,0,0,0-.8-2.1v-.2l-.1-.5c-.1-1.3.4-2.3,1.3-3.8m-.2,8.1a4.74,4.74,0,0,0-1-1,2.35,2.35,0,0,0,.8.2h.2v.1l.1-.2a2.77,2.77,0,0,0-.1.9h0m-3-9.4a8.76,8.76,0,0,1,1-3c.1.2.3.5.3.5a6.63,6.63,0,0,1,1.2,3.4,6.71,6.71,0,0,1-.9,3c-.1-.1-.2-.3-.3-.4a6.06,6.06,0,0,0-1-2l-.1-.2-.2-.5v-.8m1.6,5.1a4.81,4.81,0,0,0-1.1-.9,2.48,2.48,0,0,0,.9.1h.2l.1-.2a3.4,3.4,0,0,0-.1,1h0m-4.9-10c2.2,1.1,3.1,2.3,3.1,4.5v.9c-2.5-1.5-3.1-3-3.1-5.4m3.1,5.7h0a2.09,2.09,0,0,1-.6-.4,1.27,1.27,0,0,0,.6.4h0m-3.8-1.2a8,8,0,0,1,3.7,1.4l.3.4.1.1a6.06,6.06,0,0,1,1,2,1.69,1.69,0,0,0,.2.5c-3.2-.3-4.4-2.5-5.3-4.4m1.9,3.8a7.22,7.22,0,0,1,3.5,1.8l.3.4.1.1a7.65,7.65,0,0,1,.8,2.1,4.33,4.33,0,0,1,.1.5c-3.1-.6-4.1-2.9-4.8-4.9m1.6,4a7.06,7.06,0,0,1,3.3,2.2l.2.5V43a6.64,6.64,0,0,1,.6,2.2,1.09,1.09,0,0,0,.1.5c-3-1-3.7-3.5-4.2-5.5m1.1,4.1a7,7,0,0,1,3,2.5l.2.5v.1a7.84,7.84,0,0,1,.4,2.2v.5c-2.8-1.2-3.3-3.7-3.6-5.8m.8,4.3a7.44,7.44,0,0,1,2.8,2.8l.1.5V52a5.07,5.07,0,0,1,.2,1.3v.3h-.1a3.55,3.55,0,0,0-.9.4c-1.9-1.5-2.1-3.6-2.1-5.4m1.7,6.8a1,1,0,0,1,.4-.9c.1-.1.1-.2.2-.2a.91.91,0,0,1,.7-.3h.4a1.33,1.33,0,0,1,.8.3c.1.1.2.1.2.2a1.61,1.61,0,0,1,.5,1.1,1.43,1.43,0,0,1-.6,1.2l-.2.2a1.45,1.45,0,0,1-.7.2h-.5a2.09,2.09,0,0,1-.6-.4c-.1-.1-.1-.2-.2-.2a3.14,3.14,0,0,1-.4-1.2m-2.5,6.4c.3-1.8.6-3.9,2.6-5.3a2.18,2.18,0,0,0,.8.5H98a6.52,6.52,0,0,1-.3,1.6v.1l-.2.5a6.85,6.85,0,0,1-3.1,2.6m3.2-1.6c-.3.1-.5.2-.8.3a10.63,10.63,0,0,0,.9-1.1h0l.3.9h0l-.1-.1v.1h0l-.3-.1Zm-4.3,5.7c.5-2,1.2-4.4,4.2-5.4a.9.9,0,0,1-.1.5,6.64,6.64,0,0,1-.6,2.2v.1l-.2.5a7.53,7.53,0,0,1-3.3,2.1m3.3-1.3c-.3.1-.6.1-.8.2a4.74,4.74,0,0,0,1-1h0a1.88,1.88,0,0,0,.2.8h0l-.1-.2h0l-.3.2Zm-4.9,5.3c.7-1.9,1.7-4.3,4.7-4.9,0,.2-.1.3-.1.5a7.65,7.65,0,0,1-.8,2.1l-.1.1-.3.5a7.18,7.18,0,0,1-3.4,1.7m3.5-.9c-.3,0-.6.1-.8.1a3.13,3.13,0,0,0,1.1-.9h0a2,2,0,0,0,.1.8h0l-.1-.2h0Zm-5.4,4.7c.9-1.9,2.1-4.1,5.2-4.4-.1.2-.1.3-.2.5a6.06,6.06,0,0,1-1,2l-.1.1-.3.4a8,8,0,0,1-3.6,1.4m3.8-.2-.1-.2-.1-.1h-1a7.46,7.46,0,0,0,1.2-.7h0a1.7,1.7,0,0,0,0,1m-2.4,4.3c-.3,2.2-1.2,3.3-3.5,4.1.3-2.4,1-3.9,3.6-5.1a3.08,3.08,0,0,0-.1,1m0-1.3c-.2.1-.3.2-.5.3a2.19,2.19,0,0,0,.5-.3h0m0-.3a6.62,6.62,0,0,1-3.8,1c1.1-1.8,2.5-3.9,5.7-3.9l-.1.3a5.69,5.69,0,0,1-1.4,2.1h0l-.4.5Zm1.2,3.8-.3.5a9.59,9.59,0,0,1-.6-2.6v-.4a2.77,2.77,0,0,1,.1-.9v-.1a1.42,1.42,0,0,0,.2-.4V76h0a7.57,7.57,0,0,0,1.4-2.2l.2-.2a7.34,7.34,0,0,1,.6,2.6,6.25,6.25,0,0,1-1.6,3.8m2.7-4.1-.3.5a8.54,8.54,0,0,1-1-3.4v-.5l.1-.5.1-.2a6.06,6.06,0,0,0,1-2c.1-.1.2-.3.3-.4a7.08,7.08,0,0,1,.9,3,6.6,6.6,0,0,1-1.1,3.5m2.1-4.4a4.71,4.71,0,0,1-.2.5,6.85,6.85,0,0,1-1.4-3.7l.1-.5v-.2a6.48,6.48,0,0,0,.8-2.1c.1-.1.1-.3.2-.4a5.85,5.85,0,0,1,1.2,3.4,4.49,4.49,0,0,1-.7,3m2.3-7.2a10.89,10.89,0,0,1-.5,2.6l-.2.5a8.36,8.36,0,0,1-1.8-3.5v-.7a6.64,6.64,0,0,0,.6-2.2c.1-.1.1-.3.2-.5a5.7,5.7,0,0,1,1.7,3.8m.9-4.3a8.92,8.92,0,0,1-.3,2.2,2,2,0,0,0-.1.5,6.52,6.52,0,0,1-2.1-3.3h0v-.7a3.81,3.81,0,0,0,.3-1.6h.2a2.92,2.92,0,0,0,.9-.2,4.55,4.55,0,0,1,1.1,3.1m-21.9-5-.3,1.4c0,.1-1.7,9.1-5.7,13a.42.42,0,0,0,0,.6,15.85,15.85,0,0,0,1.7,1.4c-2.8,3.4-7.9,7.6-16.8,9.6,6.3-3.4,20.8-13.3,20.8-33.7v-16H29.41v16.1c0,20.4,14.5,30.3,20.8,33.7-8.9-2.1-14-6.3-16.8-9.6.7-.5,1.2-1,1.7-1.4a.5.5,0,0,0,0-.6c-4-4-5.7-12.9-5.7-13l-.3-1.4-.5,1.3s-1.5,3.8-1.9,4.6c-.7-.6-4.9-4.4-4.9-4.4l.3,1.3a60.94,60.94,0,0,0,3.8,10.8c-.8.5-1.6.9-2.4,1.4a.37.37,0,0,0-.2.5c2.7,6,11.9,15.1,24.2,17.6V89c0,.8,1,1.2,6.2,1.2s6.2-.5,6.2-1.2v-.8c12.3-2.5,21.4-11.6,24.2-17.6a.37.37,0,0,0-.2-.5c-.8-.4-1.6-.9-2.4-1.4a60.94,60.94,0,0,0,3.8-10.8l.3-1.3s-4.2,3.8-4.9,4.4c-.2-.9-2.2-6-2.2-6m-4.6,15.1a6.63,6.63,0,0,0,1.8-1.9c.5-.6,1.1-1.5,1.5-1.6a16.82,16.82,0,0,1-2.5,4.1,3.28,3.28,0,0,1-.8-.6m-15.7,11.8a3.4,3.4,0,0,1,1,.1,13,13,0,0,1-1.3.3v-.4h.3m-27.7-34.5v-15H77v15c0,25.2-22.7,33.9-23,34l-.3.1-.3-.1c-.1-.1-22.9-8.8-22.9-34m26.7,33.8-.1.1c0,.1-.1.1-.1.2v.9a23.28,23.28,0,0,1-2.9.2l.3-.1c.2-.1,1.2-.5,2.8-1.3m-6.7.1-.1-.1c1.6.8,2.7,1.3,2.7,1.3l.3.1a23.28,23.28,0,0,1-2.9-.2v-1.1m-1.1.6h.3v.4a13,13,0,0,1-1.3-.3,3.08,3.08,0,0,0,1-.1M23.31,59c1.2,1.1,3.8,3.4,3.8,3.4l.2-.5,1.6-3.9c.6,2.6,2.2,8.5,5.3,11.8-.5.4-.9.8-1.3,1.1a15.08,15.08,0,0,1-2.5-4.3.76.76,0,0,0-.2-.4.3.3,0,0,0-.4,0s-1.3,1-3,2.1a47,47,0,0,1-3.5-9.3m6.2,7.4h0m17.7,15h0l-.1.1a.1.1,0,0,0-.1.1c0,.1-.1.1-.1.2h0v.1h0c0,.2.5,3.2.7,5.4-11.6-2.5-20.3-10.9-23.2-16.7.7-.4,1.4-.8,2-1.2.2-.1.5-.3.7-.4,1.2-.7,2.1-1.4,2.7-1.8a15.83,15.83,0,0,0,2.5,4.2c.2.2.3.4.5.6a30.84,30.84,0,0,0,15.1,9.3c-.3,0-.6,0-.7.1m12.4,3c-.1,1-.3,2.1-.3,3.1a2.77,2.77,0,0,1-.1.9V89c-.1.1-1,.5-5.4.5-4.7,0-5.3-.4-5.4-.5v-.6a2.77,2.77,0,0,0-.1-.9c-.1-.9-.2-2.1-.3-3.1a14.93,14.93,0,0,1-.2-1.7h0c.5.2,1.2.3,1.9.5h0c.3,0,.5.1.8.1h0c1,.1,2.2.2,3.3.2s2.2-.1,3.3-.2h0c.3,0,.5-.1.8-.1h0a7.39,7.39,0,0,0,1.9-.5h0a14.93,14.93,0,0,1-.2,1.7m23.7-13.9c-2.8,5.8-11.5,14.3-23.2,16.8.2-2.2.6-5.2.7-5.4h0v-.1h0c0-.2-.1-.3-.3-.4a1.48,1.48,0,0,0-.7-.1A31.58,31.58,0,0,0,74.91,72a2.65,2.65,0,0,0,.5-.6,15.83,15.83,0,0,0,2.5-4.2,24.58,24.58,0,0,0,2.7,1.8c.2.1.5.3.7.4.6.3,1.3.7,2,1.1m-5.2-4.1h0m2.9,1.8c-1.7-1.1-2.9-2-3-2.1a.74.74,0,0,0-.7-.3c-.7,0-1.4.9-2.2,1.9-.4.5-.9,1.1-1.3,1.5,2.8-3.4,4.3-8.8,4.9-11.3.6,1.4,1.8,4.5,1.8,4.5s2.6-2.3,3.8-3.4a55.75,55.75,0,0,1-3.3,9.2m-63.2,5.7c.2,0,.4.1.6.1h.2l-.2-.4a9.71,9.71,0,0,0-2.6-3.6c.2.1.4.1.6.2l.2.1-.1-.4a9.35,9.35,0,0,0-2.3-3.9,1.42,1.42,0,0,0,.6.2l.2.1-.1-.4a8.78,8.78,0,0,0-1.8-4.1c.2.1.3.2.5.3l.2.1-.1-.4c-.3-1.8-.6-4.1-2.7-5.6a1.61,1.61,0,0,0,.3-.9,2.1,2.1,0,0,0-.4-1.1c1.9-1.7,2-4,2.1-5.8V48l-.2.2a1.38,1.38,0,0,1-.4.3,9.75,9.75,0,0,0,1.3-4.2l.1-.4-.2.1a2.19,2.19,0,0,0-.5.3,8.78,8.78,0,0,0,1.8-4.1l.1-.4-.2.1a1.42,1.42,0,0,1-.6.2,9.82,9.82,0,0,0,2.3-3.9l.1-.4-.2.1c-.2.1-.4.1-.6.2a8.71,8.71,0,0,0,2.6-3.6l.2-.4h-.2a10.44,10.44,0,0,0-3.1.9c2.1-1.5,2.5-3.1,2.5-5.4v-.2l-.2.1c-2.2,1-3.2,2.2-3.4,4.1-.2-.6-.5-1.3-.9-2.2l-.1-.2-.1.2-.4.7a6,6,0,0,0-1.1,4.5c-.2-.3-.3-.6-.5-.9l-.1-.2-.2.3-.3.7a5.94,5.94,0,0,0-.6,4.6c-.2-.3-.4-.5-.6-.8l-.2-.2-.1.2-.2.8c-.4,1.4-.9,2.9-.1,4.7A5,5,0,0,0,8,43l-.2-.2V43l-.2.8a6.33,6.33,0,0,0,.4,4.8c-.3-.3-.6-.5-.9-.8l-.2-.2v.2l-.1.9a5.89,5.89,0,0,0,1.5,5.4l.2.2c.1-.1.2-.1.2-.2l-.2-.2a4.86,4.86,0,0,1-1.6-3.7,7.57,7.57,0,0,1,.1-1.5v-.5a7.6,7.6,0,0,1,2.5,3.1l.1.5V52a7,7,0,0,0-.2,1.6v.3h.2v-.5a5.07,5.07,0,0,1,.2-1.3V52l.1-.5a7.87,7.87,0,0,1,2.7-2.8c-.1,1.8-.2,3.9-2,5.5l-.2.2.2.2a1.8,1.8,0,0,1,.4.9,2.35,2.35,0,0,1-.2.8c-.1.1-.1.2-.2.2a1.61,1.61,0,0,1-.7.4v.2h0v-.2h-.4a1.45,1.45,0,0,1-.7-.2.22.22,0,0,1-.2-.2l-.2.2c-1.6,2-1.2,3.8-.9,5.5l.2,1,.2-.2a6,6,0,0,1,.8-.8,6.57,6.57,0,0,0,.1,4.8l.3,1,.2-.2a5.55,5.55,0,0,1,.6-.8c-.6,1.9.1,3.3.6,4.6l.4,1,.1-.2a4.05,4.05,0,0,0,.5-.9,6,6,0,0,0,1.1,4.5l.5.9.1-.2a9.74,9.74,0,0,0,.5-1.1,6.3,6.3,0,0,0,1.6,4.6l.6.9.1-.2a11.52,11.52,0,0,0,.6-2.1c.4,1.8,1.6,2.8,3.8,3.5l.2.1v-.2c-.2-2.3-.8-3.9-3.1-5.2a9.73,9.73,0,0,0,3.3.6h.3l-.3-.4a9.33,9.33,0,0,0-3-3.3m-3.1-33.7c-.5,2-1.2,4.4-4.2,5.4a.9.9,0,0,1,.1-.5,6.64,6.64,0,0,1,.6-2.2v-.1l.2-.5a7.83,7.83,0,0,1,3.3-2.1M10.41,46c.3-.1.5-.2.8-.3a10.63,10.63,0,0,0-.9,1.1h0c-.1-.3-.2-.5-.3-.8h0l.1.1V46h.3Zm.9-4.5c.3-.1.6-.1.8-.2a4.74,4.74,0,0,0-1,1h0a1.88,1.88,0,0,0-.2-.8h0l.1.2v-.1h0l.3-.1Zm4.9-5.3c-.7,1.9-1.7,4.3-4.7,4.9,0-.2.1-.3.1-.5a7.65,7.65,0,0,1,.8-2.1l.1-.1.3-.5a8.23,8.23,0,0,1,3.4-1.7m-3.4,1c.3,0,.6-.1.9-.1a3.13,3.13,0,0,0-1.1.9h0a2,2,0,0,0-.1-.8h0l.1.2h0Zm4.7-9.3a5.34,5.34,0,0,1-3.1,5.4v-.9c0-2.3.8-3.5,3.1-4.5m-2.6,5.4a2.09,2.09,0,0,0-.6.4h0a6.13,6.13,0,0,1,.6-.4m-.7,1,.3-.4a7,7,0,0,1,3.6-1.4c-.9,1.9-2.1,4.1-5.2,4.4.1-.2.1-.3.2-.5a8,8,0,0,1,1.1-2.1h0m-1.3-4,.3-.5a9.2,9.2,0,0,1,1,3.1v.8l-.1.5-.1.2a6.06,6.06,0,0,0-1,2c-.1.1-.2.3-.3.4a6.71,6.71,0,0,1-.9-3,5.62,5.62,0,0,1,1.1-3.5m-2.2,4.3.2-.5a6.85,6.85,0,0,1,1.4,3.7l-.1.5v.2a6.48,6.48,0,0,0-.8,2.1c-.1.1-.1.3-.2.4a5.85,5.85,0,0,1-1.2-3.4,6.58,6.58,0,0,1,.7-3m-2.2,7.2a10.89,10.89,0,0,1,.5-2.6l.2-.5a8.36,8.36,0,0,1,1.8,3.5v.7a6.64,6.64,0,0,0-.6,2.2c-.1.1-.1.3-.2.5a5.7,5.7,0,0,1-1.7-3.8m-1,4.3a8.92,8.92,0,0,1,.3-2.2l.1-.5a6.52,6.52,0,0,1,2.1,3.3v.7a7.84,7.84,0,0,0-.4,2.2,4.33,4.33,0,0,0-.1.5,5.62,5.62,0,0,1-2-4m2.3,5.2h0a2.47,2.47,0,0,0-.4-.9l.1.1.1.1v-.1h0l.2-.1.6-.3-.6,1.2m.1-1.2v-.5a4.09,4.09,0,0,1,.4-2.2v-.1l.2-.5a7.7,7.7,0,0,1,3-2.5c-.3,2.1-.7,4.6-3.6,5.8m8.3,23.6a8,8,0,0,1-3.7-1.4l-.3-.4-.1-.1a6.06,6.06,0,0,1-1-2,.76.76,0,0,0-.2-.4c3.2.2,4.4,2.4,5.3,4.3m-3.7-.5-.1.1-.1.2v-1.1a8.34,8.34,0,0,0,1.2.8,2.72,2.72,0,0,0-.9,0ZM12.61,69h0l-.1.1c0-.3.1-.5.1-.8v-.1a4.81,4.81,0,0,0,1.1.9,2.48,2.48,0,0,0-.9-.1Zm3.6.9a7.22,7.22,0,0,1-3.5-1.8l-.3-.4-.1-.1a7.65,7.65,0,0,1-.8-2.1,4.33,4.33,0,0,1-.1-.5c3.2.6,4.1,3,4.8,4.9m-5-5.2h0l-.1.1c.1-.3.1-.5.2-.8v-.1a4.74,4.74,0,0,0,1,1,2.35,2.35,0,0,0-.8-.2Zm3.5,1.2a7.06,7.06,0,0,1-3.3-2.2l-.2-.5v-.1a6.64,6.64,0,0,1-.6-2.2,1.09,1.09,0,0,0-.1-.5c3,1.1,3.7,3.5,4.2,5.5m-4.5-5.7h0l-.2.1h0l.3-.9h0a3.13,3.13,0,0,0,.9,1.1c-.3-.1-.5-.2-.8-.3Zm.7-3.7c2,1.4,2.4,3.5,2.6,5.3a7,7,0,0,1-3-2.5l-.2-.5v-.1a6.37,6.37,0,0,1-.2-.7h0a.37.37,0,0,0-.1-.3v-.6a1.8,1.8,0,0,0,.9-.6m-1,.6h0m-2,5.6-.1-.5a14.6,14.6,0,0,1-.3-2.2,5.11,5.11,0,0,1,1.1-3.1,1.49,1.49,0,0,0,.9.2h.2a15.69,15.69,0,0,0,.3,1.6v.7a6.52,6.52,0,0,1-2.1,3.3m1.3,4.8A4.71,4.71,0,0,1,9,67a8,8,0,0,1-.5-2.6,5.6,5.6,0,0,1,1.6-3.7c.1.2.1.3.2.5a6.64,6.64,0,0,0,.6,2.2v.7a7.64,7.64,0,0,1-1.7,3.4m1.7,4.5-.2-.5a7.89,7.89,0,0,1-.8-3.1,6.66,6.66,0,0,1,1.2-3.4c.1.2.2.3.2.4a6.48,6.48,0,0,0,.8,2.1v.2l.1.5a6,6,0,0,1-1.3,3.8m2.2,4.4-.3-.5a6.63,6.63,0,0,1-1.2-3.4,6.71,6.71,0,0,1,.9-3c.1.1.2.3.3.4a6.06,6.06,0,0,0,1,2l.1.2.1.5V73c.2,1-.2,2-.9,3.4m3.4,1.5a14.86,14.86,0,0,1-.6,2.5l-.3-.5a6.25,6.25,0,0,1-1.6-3.8,7.34,7.34,0,0,1,.6-2.6l.2.2a7.57,7.57,0,0,0,1.4,2.2h0V76l.2.4v.1a2.77,2.77,0,0,1,.1.9c.1.2,0,.3,0,.5m.2-1.4h0a2.19,2.19,0,0,1,.5.3,2.19,2.19,0,0,0-.5-.3h0m3.6,5.4c-2.3-.8-3.3-1.9-3.5-4.1v-.9c2.5,1.1,3.2,2.6,3.5,5m-3.5-5.7-.3-.3h0a3.11,3.11,0,0,1-.7-.9h0a13.09,13.09,0,0,1-.7-1.3l-.1-.3c3.2,0,4.6,2.1,5.7,3.9-1.8-.2-3-.4-3.9-1.1M69.21,43c-.1.1-.1.3-.2.4v3.8h.2V43Zm0,16.2H69v8.2c.1-.1.2-.2.2-.3Zm0-25H69v4.7a.76.76,0,0,1,.2.4v-5.1ZM68,43.45a3.17,3.17,0,0,0,.9-2.3,3.64,3.64,0,0,0-.9-2.3Zm2.4-9.3h-.2v13h.2Zm0,25h-.2v6.4a.52.52,0,0,0,.2-.4Zm1.2,0h-.2v4.4a.76.76,0,0,0,.2-.4v-4Zm-5.9-22.1v-2.9h-.2v2.9h.2m-1.2,7.3a2.92,2.92,0,0,0,.9.2v-6.8a2.92,2.92,0,0,0-.9.2v6.4Zm0-10.2h-.2v3.1a.35.35,0,0,0,.2-.1v-3Zm-1.2,9.5a4.7,4.7,0,0,0,.9.6V38a2,2,0,0,0-.9.6Zm3.6-9.5h-.2v3c.1,0,.2,0,.2.1v-3.1Zm-1.2,10.4a2.92,2.92,0,0,0,.9-.2V38a2.92,2.92,0,0,0-.9-.2Zm1.2-.3a3.33,3.33,0,0,0,1-.6v-5.1a3.33,3.33,0,0,0-1-.6ZM68,34.15h-.2v3.5c.1.1.2.1.2.2v-3.7Zm4.7,0h-.2v13h.2Zm-8.4,13h.2v-2.1c-.1,0-.2,0-.2-.1v2.2Zm1.1-1.9v2h.2v-2h-.2m0,26.2.2-.2V59.15h-.2Zm-1.1,1.1.2-.2V59.15h-.2Zm-1.2-25.4h.2v-2.7c-.1-.1-.2-.1-.2-.2Zm.2-13h-.2v3.7l.2-.2v-3.5Zm-.2,39.5c.1-.1.2-.1.2-.2V59.15h-.2Zm9.6-14.5h-.2v2a1.69,1.69,0,0,0,.2-.5v-1.5Zm1.2-25h-.2v13h.2Zm1.2,0h-.2v13h.2Zm-3.5,0h-.2v13h.2Zm-3.8,13H68v-2.8l-.2.2Zm-1.2,0h.2V45c-.1,0-.1.1-.2.1v2.1Zm1.2,21.7c.1-.1.2-.2.2-.3v-9.4h-.2Zm-1.2,1.3.2-.3V59.15h-.2Zm-11.5-11h-.2V63c.1,0,.2,0,.2.1v-3.9Zm-10.8-12h.2v-2.8l-.2.2Zm-1.2-9.9c.1,0,.2,0,.2.1v-3.2h-.2v3.1Zm1.2,36.2.2.2V59.15h-.2v14.3Zm-4.7-26.3h.2v-2.6c-.1-.1-.2-.1-.2-.2v2.8Zm5.9,0h.2v-4.3c-.1.1-.1.3-.2.4Zm-2.4,25.2.2.2V59.15h-.2Zm2.4,2,.2.2V59.15h-.2v15.2Zm-1.2-36.6c.1.1.2.1.2.2v-3.8h-.2v3.6Zm-3.6-.5a.35.35,0,0,0,.2-.1v-3h-.2v3.1Zm1.2-.2h.2v-2.9h-.2ZM40.71,70c.1.1.2.2.2.3V59.15h-.2Zm-1.1-32,.2-.2v-3.6h-.2V38Zm1.1,9.2h.2v-2.1c-.1,0-.2,0-.2-.1Zm1.2-1.9v2h.2v-2h-.2m0,26,.2.2V59.15h-.2ZM45.51,39a.76.76,0,0,1,.2.4v-5.2h-.2Zm-2.4,8.2h.2V45a.35.35,0,0,0-.2.1Zm8.2,16.4.2-.2v-4.2h-.2Zm0-16.4h.2v-13h-.2Zm-1.1,0h.2v-13h-.2Zm1.1,31.1.2.1v-8.2c-.1-.1-.2-.1-.2-.2Zm11.8-39.4a3.17,3.17,0,0,0-.9,2.3,3.64,3.64,0,0,0,.9,2.3ZM52.51,63c.1,0,.1,0,.2-.1v-3.7h-.2V63Zm0,16,.2.1v-8.3c-.1,0-.2,0-.2-.1ZM49,77l.2.1V59.15H49Zm1.2-11.9c.1-.1.1-.3.2-.4v-5.5h-.2v5.9Zm-2.4,11.1.2.2V59.15h-.2Zm-1.2-29h.2v-13h-.2Zm1.2,0H48v-13h-.2Zm-1.2,28.2.2.2V59.15h-.2Zm3.6,2.3.2.1v-8.7a.76.76,0,0,1-.2-.4ZM49,47.15h.2v-13H49Zm3.5,0h.2v-13h-.2v13Zm4.9,12h-.2v5.5a.76.76,0,0,1,.2.4v-5.9Zm1.2-25h-.2v13h.2v-13Zm-1.2,34.5c-.1.1-.1.3-.2.4v8.7l.2-.1Zm1.2-9.5h-.2v17.9l.2-.1Zm-1.2-25h-.2v13h.2v-13Zm-1.1,0h-.2v13h.2v-13Zm0,35.9-.2.2v8.2a.35.35,0,0,0,.2-.1Zm0-10.9h-.2v4.3c.1.1.2.1.2.2Zm5.8,0h-.2v15.5l.2-.2Zm0-15.8a.76.76,0,0,1-.2-.4v4.2h.2Zm-7-9.2h-.2v13h.2Zm7,0h-.2v5.1c.1-.1.1-.3.2-.4v-4.7Zm-1.1,25h-.2v16.4l.2-.2V59.15Zm-1.2-25h-.2v13h.2Zm0,25h-.2v17.2l.2-.2v-17Zm1.2-25h-.2v13H61Zm-7.1,45.3v-8.6h-.2v8.6h.2m-16.7-32.3h.2v-13h-.2Zm0,18a.76.76,0,0,1,.2.4v-6.4h-.2ZM36,63.05a.76.76,0,0,1,.2.4v-4.3H36Zm0-15.9h.2v-13H36v13Zm2.4-7.8c.1-.1.1-.3.2-.4v-4.8h-.2Zm0,27.6.2.3v-8.1h-.2Zm0-19.8h.2v-3.8a.76.76,0,0,1-.2-.4Zm1.2,21.4c.1.1.2.2.2.3v-9.7h-.2Zm-4.7-21.4h.2v-13h-.2Zm19-13h-.2v13h.2v-13Zm1.2,36.5c-.1,0-.2,0-.2.1v8.3l.2-.1v-8.3Zm-1.2-7.9v-3.6h-.2v3.6h.2m-19-2.2c.1.2.1.4.2.5v-2h-.2Zm-2.4-13.4h.2v-13h-.2Zm1.2,0h.2v-13h-.2Zm20.1-43.5a49.5,49.5,0,1,0,49.5,49.5,49.55,49.55,0,0,0-49.5-49.5m44.6,46.7a2.54,2.54,0,0,1-.2-.7v.7c-3.3-1.3-3.6-4.2-3.9-6.3,1.7.9,2.7,1.6,3.3,2.7.1.3.2.4.2.6v-.7a8.29,8.29,0,0,1,2.3-3.6c.4,2.1,1.4,4.5-1.7,7.3m-.6-4.6c-.1-.2-.2-.5-.3-.7,0,.2.1.4.1.7-3.4-1-4-3.8-4.5-5.8a7.73,7.73,0,0,1,3.6,2.3l.3.6a1.7,1.7,0,0,0-.1-.7c.1-1.2.7-2.2,1.9-3.8.6,2,1.8,4.3-1,7.4m-1-4.5a2.09,2.09,0,0,0-.4-.6,2.54,2.54,0,0,0,.2.7c-3.5-.6-4.4-3.3-5.1-5.3,1.9.6,3,1,3.8,1.9l.3.6c0-.2-.1-.4-.1-.7,0-1.2.5-2.3,1.5-4,.8,1.9,2.3,4-.2,7.4m-3.1-7.7v0c-2.8-1.6-3.4-3.3-3.4-6,2.4,1.1,3.4,2.4,3.4,5a10.59,10.59,0,0,1,1.1-3.1c1,1.9,2.7,3.8.6,7.5a2.09,2.09,0,0,1-.4-.6,6.37,6.37,0,0,1,.2.7c-3.5-.2-4.7-2.9-5.7-4.8,1.9.4,3.1.7,4,1.5.2.2.3.4.4.5a6.37,6.37,0,0,1-.2-.7m-39.9-19.5a39.1,39.1,0,1,1-39.1,39.1,39.09,39.09,0,0,1,39.1-39.1m-40.6,15.4a10.59,10.59,0,0,1,1.1,3.1c-.1-2.6.9-3.9,3.4-5,0,2.7-.6,4.3-3.3,5.9v.1a2.54,2.54,0,0,0-.2.7,1.76,1.76,0,0,1,.4-.5,7.13,7.13,0,0,1,4-1.5c-1,1.9-2.1,4.5-5.7,4.8a2.54,2.54,0,0,0,.2-.7c-.1.2-.3.4-.4.6-2.2-3.7-.5-5.6.5-7.5m-2.3,4.3c1,1.7,1.5,2.7,1.5,4a2,2,0,0,0-.1.7,3.33,3.33,0,0,0,.3-.6,7.1,7.1,0,0,1,3.8-1.9c-.7,2-1.7,4.7-5.1,5.3a6.37,6.37,0,0,1,.2-.7,2.09,2.09,0,0,1-.4.6c-2.4-3.3-1-5.4-.2-7.4m-1.8,4.6c1.2,1.6,1.8,2.6,1.9,3.8a1.48,1.48,0,0,1-.1.7l.3-.6c.7-1,1.8-1.6,3.6-2.3-.5,2.1-1.2,4.9-4.5,5.8,0-.3.1-.5.1-.7a4.88,4.88,0,0,0-.3.7c-2.8-3.1-1.5-5.4-1-7.4m-1.3,4.7c1.4,1.4,2.1,2.4,2.3,3.6v.7c.1-.2.1-.4.2-.6.6-1.1,1.6-1.8,3.3-2.7-.3,2.1-.6,5-3.9,6.3v-.7a6.37,6.37,0,0,0-.2.7c-3-2.8-2-5.2-1.7-7.3m.8,13.6a1.71,1.71,0,0,1-.7-1.3,1.43,1.43,0,0,1,.6-1.2C6.31,52,6.91,49.85,7,48c1.5,1.3,2.3,2.1,2.7,3.3,0,.3.1.5.1.7a2.54,2.54,0,0,1,.2-.7,7.72,7.72,0,0,1,3-3c-.2,1.9-.2,4.3-2.2,5.9a1.61,1.61,0,0,1,.5,1.1,1.22,1.22,0,0,1-.3.9c2.3,1.5,2.6,3.9,2.8,5.7-1.7-.9-2.7-1.6-3.3-2.7a3.93,3.93,0,0,1-.2-.6v.7A8.29,8.29,0,0,1,8,62.85c-.5-1.8-1.3-3.8.6-6.2m1.5,3.6c.1.2.2.5.3.7,0-.2-.1-.4-.1-.7,3.4,1,4,3.8,4.5,5.8a7.73,7.73,0,0,1-3.6-2.3l-.3-.6a2,2,0,0,0,.1.7c-.1,1.2-.7,2.2-1.9,3.8-.5-2-1.8-4.2,1-7.4m1,4.5a2.09,2.09,0,0,0,.4.6,2.54,2.54,0,0,0-.2-.7c3.5.6,4.4,3.3,5.1,5.3-1.9-.6-3-1-3.8-1.9l-.3-.6c0,.2.1.4.1.7,0,1.2-.5,2.3-1.5,4-.8-1.9-2.2-4,.2-7.4m1.5,4.4a2.09,2.09,0,0,1,.4.6,6.37,6.37,0,0,1-.2-.7c3.5.3,4.7,2.9,5.7,4.8-1.9-.4-3.1-.7-4-1.5-.2-.2-.3-.4-.4-.5a6.37,6.37,0,0,1,.2.7,7.22,7.22,0,0,1-1.1,4.1c-1-1.9-2.7-3.9-.6-7.5m4,8.7a14.84,14.84,0,0,1-.7,2.9c-1.2-1.8-3.1-3.5-1.4-7.4.1.1.2.3.3.4-.1-.2-.1-.3-.2-.5,3.5-.1,5,2.3,6.1,4.2a7.18,7.18,0,0,1-4.1-1.1c-.1-.1-.2-.3-.3-.4a4.17,4.17,0,0,1,.2.6v.1c2.9,1.3,3.6,2.8,3.9,5.5-2.3-.9-3.5-2-3.8-4.3M92,80.65a10,10,0,0,1-.7-2.9c-.3,2.4-1.4,3.4-3.8,4.3.3-2.7,1-4.2,3.9-5.5v-.1a1.42,1.42,0,0,0,.2-.6,1.38,1.38,0,0,0-.3.4,7.43,7.43,0,0,1-4.1,1.1c1.1-1.8,2.6-4.3,6.1-4.2-.1.2-.2.3-.2.5a1.38,1.38,0,0,0,.3-.4c1.7,3.9-.2,5.6-1.4,7.4m2.8-4a7.41,7.41,0,0,1-1.1-4.1,2.54,2.54,0,0,0,.2-.7,1.76,1.76,0,0,1-.4.5,7.13,7.13,0,0,1-4,1.5c1-1.9,2.1-4.5,5.7-4.8a2.54,2.54,0,0,0-.2.7c.1-.2.3-.4.4-.6,2.1,3.6.4,5.6-.6,7.5m2.2-4.4c-1-1.7-1.5-2.7-1.5-4a2,2,0,0,0,.1-.7,3.33,3.33,0,0,0-.3.6,7.1,7.1,0,0,1-3.8,1.9c.7-2,1.7-4.7,5.1-5.3a6.37,6.37,0,0,1-.2.7,2.09,2.09,0,0,1,.4-.6c2.5,3.3,1,5.4.2,7.4m1.8-4.5c-1.2-1.6-1.8-2.6-1.9-3.8a1.48,1.48,0,0,1,.1-.7l-.3.6c-.7,1-1.8,1.6-3.6,2.3.5-2.1,1.2-4.9,4.5-5.8,0,.3-.1.5-.1.7a4.88,4.88,0,0,0,.3-.7c2.8,3.1,1.6,5.3,1,7.4m1.3-4.8c-1.4-1.4-2.1-2.4-2.3-3.6v-.7c-.1.2-.1.4-.2.6-.6,1.1-1.6,1.8-3.3,2.7.3-1.9.6-4.3,2.8-5.7a1.48,1.48,0,0,1,.2-2c-2-1.7-2.1-4.1-2.2-6a7.72,7.72,0,0,1,3,3,6.37,6.37,0,0,0,.2.7l.1-.7c.4-1.2,1.2-2,2.7-3.3.1,1.9.7,4-1.5,6.2a1.43,1.43,0,0,1,.6,1.2,1.56,1.56,0,0,1-.7,1.3c1.7,2.4.9,4.4.6,6.3" transform="translate(-1.81 -1.15)"></path>
  <path class="cls-1" d="M25.81,70.55l3.4-2.2c1.2,1.7,7.8,11.2,16.8,12.9.2,4.5-1,4.8-1,4.8-2.2-.7-17-8.3-19-14-.7-1-.2-1.5-.2-1.5m36.7,14.9-1.3-3.8c1.9-.7,12.8-4.9,16.6-13.1,4.4.9,4.4,2.1,4.4,2.1-1,4.2-12.1,14.5-18.2,15-1.1.5-1.5-.2-1.5-.2" transform="translate(-1.81 -1.15)"></path>
  <path class="cls-1" d="M20.81,19.45l1.4-1.5.1.1c-.6.6-.4.8.1,1.3l1.8,1.8a2,2,0,0,1,0,3.2,1.82,1.82,0,0,1-3,.1l-2.1-2c-.5-.5-.7-.7-1.3-.1l-.1-.1,2.2-2.2.1.1c-.6.6-.4.8.1,1.3l2.3,2.2a1.12,1.12,0,0,0,1.8,0c.8-.8.3-1.7-.2-2.3l-1.9-1.9c-.5-.5-.8-.7-1.3-.1v.1Zm8.6-2.5h0l-1.6-2.2c-.3-.4-.6-.4-1.1-.1l-.1-.1,1.6-1.2.1.1c-.5.4-.5.7-.2,1.1l3.1,4.1-.1.1L25,17.15h0l2.3,3.1c.3.4.6.4,1.1.1l.1.1-1.7,1.3-.1-.1c.5-.4.5-.7.2-1.1l-2.6-3.5c-.4-.1-.7-.2-1,.1l-.1-.1,1.7-1.2,4.5,1.1Zm4.3-1.1c.4.6.5.8,1.2.4l.1.1-2.7,1.5-.1-.1c.7-.4.6-.6.3-1.2l-1.8-3.2c-.4-.6-.5-.8-1.2-.4l-.1-.1,2.7-1.5.1.1c-.7.4-.6.6-.3,1.2ZM39,8.35c-.4.3-.5.6-.5,1.6l-.2,5-.1.1L34,11a.86.86,0,0,0-.8-.2l-.1-.1,2.6-1.1.1.1c-.3.1-.7.3-.6.6l.4.4,2.4,2.4.1-3.1c0-.3,0-.6-.1-.7-.1-.4-.6-.2-.9-.1l-.1-.1,1.8-.7Zm3.8,1.7c1-.2.9-.8.9-1.7h.2l.7,3h-.2c-.3-.8-.6-1.3-1.5-1.1l.4,1.5c.2.7.2.9.8.7.8-.2,1.8-.4,1.9-2h.2l.2,1.9-5,1.2v-.2c.8-.2.8-.4.6-1.1l-.8-3.6c-.2-.7-.2-.9-1-.7v-.2L45,6.65l.4,1.7h-.2c-.6-1.2-1.2-1.2-2.3-.9l-.5.1.4,2.5Zm6.5,1c.1.7.1.9.9.9v.2l-3,.3v-.2c.8-.1.8-.3.8-1l-.3-3.7c-.1-.7-.1-1-.9-.9v-.2l3.3-.3c1.3-.1,2.2.3,2.3,1.5a1.52,1.52,0,0,1-1.2,1.6l1.7,2c.3.3.4.5.7.4v.2l-1.8.2-2.1-2.5h-.4v1.5Zm-.2-1.9h.4c1-.1,1.3-.6,1.3-1.3-.1-.9-.5-1.3-1.3-1.2h-.6l.2,2.5Zm9.2-1.1h-.2a1.73,1.73,0,0,0-1.5-1.7c-.5,0-1,.2-1,.7-.1,1.2,3.1,1.5,3,3.4a1.9,1.9,0,0,1-2.1,1.7,2,2,0,0,1-1.1-.3c-.1,0-.2-.1-.3-.1a.55.55,0,0,0-.5.3h-.2l.1-2.2h.2a2.05,2.05,0,0,0,1.8,2c.5,0,1.1-.2,1.1-.8.1-1.4-3.1-1.5-2.9-3.5A1.85,1.85,0,0,1,56.61,6a2.28,2.28,0,0,1,1.1.3c.1.1.2.1.4.2s.3-.2.3-.4h.2Zm3.5,3.5c-.1.7-.2.9.7,1.1v.2l-3-.5v-.2c.8.1.9-.1,1-.8l.6-3.6c.1-.7.2-.9-.7-1.1v-.2l3,.5v.2c-.8-.1-.9.1-1,.8l-.6,3.6ZM68,8.65l-1.3,4.2c-.2.7-.3.9.5,1.2v.2l-3-.9v-.2c.8.2.9,0,1.1-.7l1.3-4.3-.5-.1c-.6-.2-1.1-.1-1.6.8h-.2l.5-1.5L69.91,9l-.5,1.5h-.2c.1-1.1-.2-1.4-.9-1.6l-.3-.2Zm4.3,6.5c-.3.7-.4.9.5,1.3l-.1.1-3-1.4.1-.1c.9.4.9.3,1.3-.5l.5-1-.2-3c0-.8-.1-1-.5-1.2l-.1-.2,2.6,1.2-.1.1c-.3-.1-.5-.2-.6,0s0,.5,0,.6l.1,2.4,1.9-1.3c.1-.1.4-.3.5-.5s-.2-.5-.4-.6l.1-.1,1.6.8-.1.1c-.5-.2-.9.2-1.4.5l-2.2,1.5-.5,1.3Zm6.2,1.4a3.07,3.07,0,0,1,4.4-.5,3,3,0,0,1,.5,4.4,3.13,3.13,0,0,1-4.9-3.9m3.7,2.9c.6-.8,1.6-2.3.5-3.1s-2.3.4-2.9,1.2-1.6,2.3-.5,3.1,2.2-.4,2.9-1.2" transform="translate(-1.81 -1.15)"></path>
  <path class="cls-1" d="M84.41,24.15c-.5.5-.7.6-.1,1.3l-.1.1-2.1-2.3.1-.1c.6.6.7.5,1.3,0l2.7-2.5c.5-.5.7-.6.1-1.3l.1-.1,3.4,3.7-1.3,1.2-.1-.1c.8-1.1.4-1.6-.3-2.4l-.4-.4-1.8,1.6c.8.9,1.3.6,1.9.2l.1.1-2.2,2-.1-.1c.6-.7.9-1.1.1-2l-1.3,1.1Zm-59.2,65.5c-.4.6-.6.8.1,1.3l-.1.1-2.4-1.9.1-.1c.7.5.8.3,1.2-.2l2.2-2.9c.4-.6.6-.8-.1-1.3l.1-.1,2.2,1.7c1,.8,1.4,1.8.8,2.6s-1.5.9-2.9-.2l-.3-.2Zm1.1-1.5.1.1c.7.5,1.2.3,1.7-.4a1,1,0,0,0-.2-1.7l-.1-.1-1.5,2.1Zm4,5c-.4.6-.5.8.2,1.2l-.1.1-2.6-1.6.1-.1c.7.4.8.2,1.2-.4l1.9-3.1c.4-.6.5-.8-.2-1.2l.1-.1,2.6,1.6-.1.1c-.7-.4-.8-.2-1.2.4l-1.9,3.1Zm6.8-1.6-1.8,4.1c-.3.7-.4.9.4,1.2l-.1.1-2.8-1.3.1-.1c.8.3.9.1,1.2-.5l1.8-4.1-.4-.2c-.6-.3-1-.2-1.7.6l-.1-.1.7-1.5,4.8,2.2-.7,1.5-.1-.1c.2-1,0-1.4-.7-1.7l-.6-.1Zm5.8,2-1.2,4.3c-.2.7-.3.9.5,1.1v.2l-3-.8v-.2c.8.2.9,0,1.1-.7l1.2-4.3-.5-.1c-.7-.2-1.1-.1-1.6.9h-.2l.4-1.5,5.1,1.4-.4,1.5h-.2c.1-1.1-.3-1.4-.9-1.6l-.3-.2Zm6.4,2.7h-.2a1.83,1.83,0,0,0-1.4-1.8.86.86,0,0,0-1.1.6c-.2,1.2,3,1.7,2.7,3.6a1.89,1.89,0,0,1-2.3,1.5,3.58,3.58,0,0,1-1.1-.4c-.1,0-.2-.1-.3-.1a.55.55,0,0,0-.5.3h-.2l.3-2.2h.2A2.17,2.17,0,0,0,47,100a1,1,0,0,0,1.2-.7c.2-1.3-2.9-1.7-2.7-3.7a1.65,1.65,0,0,1,2-1.4,3,3,0,0,1,1,.4.52.52,0,0,0,.4.2c.2,0,.3-.2.4-.4h.2l-.2,1.9Zm2.2-.6c0-.7,0-1-.8-1v-.2h3.1c2.1,0,2.1,1.3,2.1,1.5,0,.8-.7,1.1-1.4,1.3h0c.8.2,1.7.5,1.7,1.5,0,.6-.5,1.6-2.6,1.6h-2.9v-.2c.8,0,.8-.2.8-1v-3.5Zm1.3,3.9c0,.4.1.6.5.6a1.16,1.16,0,0,0,1.2-1.2c0-.4-.1-1.3-1.4-1.3h-.3Zm0-2.3c1.1,0,1.5-.4,1.5-1.2,0-.3-.1-1.1-1.3-1.2h-.2v2.4Zm7.9-3.3,2-.3v.2c-.8.1-.8.4-.7,1.1l.4,2.6a2.07,2.07,0,0,1-1.9,2.6c-1.5.2-2.3-.4-2.5-1.7l-.4-2.9c-.1-.7-.1-.9-1-.8v-.2l3.1-.4v.2c-.8.1-.8.3-.7,1.1l.5,3.2a1.11,1.11,0,0,0,1.4,1.1,1.61,1.61,0,0,0,1.2-2l-.4-2.6c-.1-.7-.2-1-1-.9V94Zm6,3.5c.2.7.3.9,1.1.7v.2l-2.9.9v-.2c.8-.3.7-.5.5-1.2l-1.1-3.5c-.2-.7-.3-.9-1.1-.7v-.2l3.1-1c1.3-.4,2.3-.2,2.6.9a1.68,1.68,0,0,1-.8,1.8l2.1,1.6c.3.2.5.4.8.3v.2l-1.8.6-2.6-2-.4.1.5,1.5Zm-.6-1.7.4-.1c1-.3,1.2-.9.9-1.6a1.16,1.16,0,0,0-1.6-.9l-.5.2.8,2.4Zm9.5-5.1-.1.1a2.49,2.49,0,0,0-2.7-.6c-1.4.7-1,2.2-.4,3.3s1.5,2.3,2.9,1.6a2.1,2.1,0,0,0,.8-.6l-.4-.9c-.3-.6-.4-.9-1.2-.5l-.1-.1,2.6-1.3.1.1c-.6.3-.5.5-.2,1.2l.5.9a7,7,0,0,1-2,1.6,3.08,3.08,0,0,1-4.3-1.2,3.21,3.21,0,0,1,1.5-4.3,3,3,0,0,1,1.3-.4,1.48,1.48,0,0,0,.7-.1c.2-.1.2-.4.2-.6l.1-.1.7,1.9Zm4.8.2c.4.6.6.8,1.2.3l.1.1-2.5,1.8-.1-.1c.7-.5.5-.7.1-1.3l-2.2-3c-.4-.6-.6-.8-1.2-.3l-.1-.1,2.5-1.8.1.1c-.7.5-.5.7-.1,1.3l.9,1.3,1.7-1.2-.9-1.3c-.4-.6-.6-.8-1.2-.3l-.1-.1,2.5-1.8.1.1c-.7.5-.5.7-.1,1.3l2.2,3c.4.6.6.8,1.2.3l.1.1-2.5,1.8L82,91c.7-.5.5-.7.1-1.3l-1-1.4-1.7,1.2,1,1.4Z" transform="translate(-1.81 -1.15)"></path>
  <path class="cls-2" d="M64.71,81.85v-.5c-.1-.2-.3-.1-.4-.1v-.1l1-.4v.1c-.3.2-.3.4-.3.7l.1,3H65l-2.3-2.1c-.2-.2-.4-.4-.7-.2v-.1l1.3-.5v.1c-.1.1-.3.2-.3.4s.2.3.3.3l1.5,1.4-.1-2Zm3.4.4c.2.4.3.5.7.3v.1l-1.3.7v-.1c.4-.2.4-.3.2-.7l-1-1.8c-.2-.4-.3-.5-.7-.3v-.1l1.3-.7v.1c-.4.2-.4.3-.2.7Zm3.7-1.5-1.8-.7-.3.2.5.8c.2.4.3.5.7.2l.1.1-1.2.8v-.1c.4-.3.3-.4.1-.7l-1.1-1.7c-.2-.4-.3-.5-.7-.2v-.1l1.2-.8c.8-.5,1.3-.2,1.5.1a.93.93,0,0,1-.2,1.2l1.1.4a.9.9,0,0,0,1.1,0v.1l-1,.4Zm-2.2-.6h0c.5-.3.8-.7.5-1.2a.75.75,0,0,0-1-.2l-.3.3.8,1.1Zm4.5-1.9c.3.3.3.4.7.1l.1.1-1.1.9-.1-.1c.4-.3.3-.4,0-.7l-1.6-1.9-.4.3a.53.53,0,0,0-.1.8l-.1.1-.5-.6,2.1-1.7.5.6-.1.1a.61.61,0,0,0-.8-.1l-.4.3,1.8,1.8Zm1.7-2.2a1.08,1.08,0,0,0,1.8-.1,1.11,1.11,0,0,0-.1-1.8l-1.1-1c-.3-.3-.4-.4-.1-.7l-.1-.1-.8.9.1.1c.3-.3.4-.3.7,0l.9.9a3.74,3.74,0,0,1,.6.7,1,1,0,0,1-.3.9.76.76,0,0,1-.9.2,1.47,1.47,0,0,1-.6-.5l-1-.9c-.3-.3-.4-.4-.1-.7l-.1-.1-1,1,.1.1c.3-.3.4-.3.7,0l1.3,1.1Zm3.2-5.6h0a1.08,1.08,0,0,0-1.4.3.62.62,0,0,0,.1.8c.6.4,1.7-1.1,2.5-.5a1,1,0,0,1,.2,1.4c-.1.2-.3.3-.4.4s-.2.1-.3.2,0,.2.1.2l-.1.1-1-.7.1-.1a1,1,0,0,0,1.4-.3.63.63,0,0,0-.1-.9c-.6-.4-1.7,1-2.6.4a1,1,0,0,1-.2-1.3q.15-.3.3-.3c.1-.1.2-.1.2-.2s0-.2-.1-.3l.1-.1Zm-49.1,1.2c.1,0,.4-.1.4-.2a.3.3,0,0,0,0-.4l.1-.1.6.8-.1.1a.75.75,0,0,0-.8-.1l-2.9.8-.1-.1,1.5-2.7c.2-.3.3-.4.1-.8l.1-.1.8,1.1-.1.1c-.1-.1-.3-.3-.4-.2s-.2.3-.3.4l-1,1.8,2.1-.4Zm1.8,1.2.6.6c.3.4.4.5.1.9l.1.1L33,74l-1.8-1.9-.1.1c.3.4.2.4-.1.7l-1.5,1.4c-.3.3-.4.4-.7,0l-.1.1,1.8,1.9.8-.4-.1-.1c-.5.1-.8.1-1.1-.2l-.5-.5c-.1-.2-.2-.2,0-.4l.9-.8.5.5c.3.3.3.4,0,.8l.1.1.9-.8-.1-.1c-.4.3-.5.2-.8-.1l-.5-.5Zm1.2,5.7.2-1.9-.3-.2-.6.7c-.3.3-.4.4,0,.7l-.1.1L31,77l.1-.1c.4.3.4.2.7-.1l1.4-1.5c.3-.3.4-.4,0-.7l.1-.1,1.1,1c.7.7.5,1.2.3,1.4-.3.4-.8.3-1.2.1l-.1,1.1c0,.4-.1.7.2,1.1l-.1.1Zm.1-2.3h0c.4.4.9.6,1.3.2a.67.67,0,0,0,0-1c-.1-.1-.2-.2-.3-.2l-1,1Zm2.1,3.3c-.3.3-.3.4,0,.7l-.1.1-1.1-.9.1-.1c.4.3.5.2.7-.1l1.3-1.6c.3-.3.3-.4,0-.7l.1-.1,1.1.9-.1.1c-.4-.3-.5-.2-.7.1l-1.3,1.6Zm2.3,1.6c-.2.4-.3.5.1.7l-.1.1-1.2-.8.1-.1c.4.3.5.2.7-.2l1.4-2.1-.4-.3a.52.52,0,0,0-.8.2l-.1-.1.5-.6,2.3,1.5-.4.7-.1-.1c.1-.3.2-.6-.2-.8l-.4-.3-1.4,2.2Zm2.3.7-.4.3-.3.3c-.1.2.1.3.3.4V83l-.9-.5v-.1c.2.1.4,0,.7-.2l2.3-2h.1l-.2,3c0,.3-.1.6.3.8v.1l-1.2-.6v-.1c.2.1.3.1.4-.1s.1-.3.1-.4v-.5l-1.2-.5Zm1.2-1.1-1.1,1,1,.5.1-1.5Zm4.1,2.1h0c0-.5-.1-1.1-.7-1.2a.52.52,0,0,0-.7.3c-.2.7,1.5,1.4,1.2,2.3a1,1,0,0,1-1.3.6,2.19,2.19,0,0,1-.5-.3c-.1-.1-.2-.2-.3-.2s-.2,0-.2.1h-.1l.4-1.1h.1a1,1,0,0,0,.7,1.2.63.63,0,0,0,.8-.3c.2-.7-1.4-1.4-1.1-2.3a.88.88,0,0,1,1.2-.5c.2.1.3.1.4.2l.2.2c.1,0,.2,0,.2-.1h.1Z" transform="translate(-1.81 -1.15)"></path>
</svg>
