<?xml version="1.0" encoding="UTF-8"?>
<svg xmlns="http://www.w3.org/2000/svg" id="Layer_1" data-name="Layer 1" viewBox="0 0 112.7 51.1">
  <defs>
    <style>.cls-1{fill:#aca8a1;}</style>
  </defs>
  <path class="cls-1" d="M85.2,19a4,4,0,0,0-4.1,4,4.21,4.21,0,0,0,4,4.3,4.09,4.09,0,0,0,4-4.3A4,4,0,0,0,85.2,19Zm-55.6-.1h-1v3.7h.7c1.9,0,2.8-.5,2.8-1.9S31.3,18.92,29.6,18.92Zm14.8.1a4,4,0,0,0-4.1,4,4.21,4.21,0,0,0,4,4.3,4.09,4.09,0,0,0,4-4.3A3.87,3.87,0,0,0,44.4,19Zm26-.1h-1v3.7h.7c1.9,0,2.8-.5,2.8-1.9S72.1,18.92,70.4,18.92ZM.6,1.12l8.6,51.1,104.1-11V1.12Zm22,26.6a8,8,0,0,1-6.5,3.4,7.48,7.48,0,0,1-5.7-2.4A8.1,8.1,0,0,1,8.2,23a7.87,7.87,0,0,1,2.3-5.6,7.7,7.7,0,0,1,5.6-2.3,7.8,7.8,0,0,1,7.4,5.3H19.2a4.22,4.22,0,0,0-3.2-1.5,4,4,0,0,0-4,4,4.21,4.21,0,0,0,4,4.3,4,4,0,0,0,3.5-2.1H15.1V22h8.8v1A7.89,7.89,0,0,1,22.6,27.72Zm8.9,3.1-2.9-4.9v4.9H24.8V15.52h5.1a6.66,6.66,0,0,1,3.9.8,4.92,4.92,0,0,1,2.1,4.3,4.71,4.71,0,0,1-3.5,4.9l3.8,5.3Zm18.6-2.1a7.63,7.63,0,0,1-5.7,2.4,7.48,7.48,0,0,1-5.7-2.4A8.1,8.1,0,0,1,36.5,23a7.87,7.87,0,0,1,2.3-5.6,8,8,0,0,1,11.1.1,7.57,7.57,0,0,1,2.4,5.6A8,8,0,0,1,50.1,28.72Zm14.5-3.6c0,3.8-2.3,6-5.7,6s-5.6-2.1-5.6-6v-9.6h3.8V25c0,1.7.5,2.6,1.8,2.6s1.9-.9,1.9-2.6v-9.5h3.8v9.6Zm9.7.1a7.19,7.19,0,0,1-3.8.7H69.4v4.9H65.6V15.52h5.1a6.66,6.66,0,0,1,3.9.8,4.92,4.92,0,0,1,2.1,4.3A5.22,5.22,0,0,1,74.3,25.22Zm16.5,3.5a7.63,7.63,0,0,1-5.7,2.4,7.48,7.48,0,0,1-5.7-2.4A8.1,8.1,0,0,1,77.2,23a7.87,7.87,0,0,1,2.3-5.6A8,8,0,0,1,93,23.12,8,8,0,0,1,90.8,28.72Zm15.7,2.1h-3.3l-5.7-8.6v8.6H93.7V15.52h3.4l5.6,8.5v-8.5h3.8Z" transform="translate(-0.6 -1.12)"></path>
</svg>
