<?xml version="1.0" encoding="UTF-8"?>
<svg xmlns="http://www.w3.org/2000/svg" id="Layer_1" data-name="Layer 1" viewBox="0 0 66.4 99.7">
  <defs>
    <style>.cls-1,.cls-2{fill:#aca8a1;}.cls-1{fill-rule:evenodd;}</style>
  </defs>
  <path class="cls-1" d="M34.71,1.67Z" transform="translate(-1.41 -1.67)"></path>
  <polygon class="cls-1" points="33.2 0 0 19 0 29.2 33.3 10.2 33.3 3.8 33.2 3.8 33.2 0"></polygon>
  <polygon class="cls-1" points="33.2 12.8 0 31.8 0 42 33.3 23 33.3 16.6 33.2 16.6 33.2 12.8"></polygon>
  <path class="cls-1" d="M34.71,14.47Z" transform="translate(-1.41 -1.67)"></path>
  <polygon class="cls-1" points="33.3 29.6 33.2 29.6 33.2 25.8 0 44.7 0 54.9 33.3 36 33.3 29.6"></polygon>
  <path class="cls-1" d="M34.71,27.47Z" transform="translate(-1.41 -1.67)"></path>
  <polygon class="cls-1" points="33.2 25.8 33.2 25.8 33.3 25.8 33.2 25.8"></polygon>
  <polygon class="cls-1" points="40.3 33.8 40.3 40.4 42.7 41.7 42.7 41.7 43.3 42.1 44.2 42.7 44.2 33 44.2 33 44.2 32.2 33.3 25.8 33.3 29.6 40.3 33.8"></polygon>
  <polygon class="cls-1" points="33.3 29.6 33.3 25.8 33.3 25.8 33.2 25.8 33.2 29.6 33.3 29.6"></polygon>
  <polygon class="cls-1" points="33.2 12.8 33.2 12.8 33.3 12.8 33.2 12.8"></polygon>
  <polygon class="cls-1" points="55.1 49.2 55.3 49.3 55.3 29.5 55.4 29.5 55.4 25.7 33.3 12.8 33.3 16.6 51.4 27.2 51.4 47 53.7 48.3 53.7 48.3 55.1 49.2"></polygon>
  <polygon class="cls-1" points="33.3 12.8 33.2 12.8 33.2 16.6 33.3 16.6 33.3 12.8"></polygon>
  <polygon class="cls-1" points="33.2 0 33.2 0 33.3 0 33.2 0"></polygon>
  <polygon class="cls-1" points="33.3 0 33.3 3.8 62.5 21 62.5 53.6 65.4 55.3 66.4 55.9 66.4 55.9 66.4 55.9 66.4 23.3 66.4 23.3 66.4 19.5 33.3 0"></polygon>
  <polygon class="cls-1" points="33.3 0 33.2 0 33.2 3.8 33.3 3.8 33.3 0"></polygon>
  <polygon class="cls-1" points="9.5 60.7 0 55.1 0 95 9.5 95 9.5 60.7"></polygon>
  <polygon class="cls-1" points="20.5 67.2 11.1 61.6 11.1 95 20.5 95 20.5 67.2"></polygon>
  <polygon class="cls-1" points="31.6 73.8 22.1 68.2 22.1 68.2 22.1 95 31.6 95 31.6 73.8"></polygon>
  <polygon class="cls-1" points="9.5 60.7 11.1 61.6 44.2 42.7 43.3 42.1 42.7 41.7 9.5 60.7"></polygon>
  <path class="cls-1" d="M44.11,43.37l.6.4Z" transform="translate(-1.41 -1.67)"></path>
  <polygon class="cls-1" points="22.1 68.2 55.3 49.3 55.1 49.2 53.7 48.3 20.6 67.2 22.1 68.2 22.1 68.2 22.1 68.1 22.1 68.2"></polygon>
  <polygon class="cls-1" points="53.7 48.3 53.7 48.3 55.1 49.2 53.7 48.3"></polygon>
  <polygon class="cls-1" points="22.1 68.1 22.1 68.2 22.1 68.2 22.1 68.1"></polygon>
  <polygon class="cls-1" points="64.8 54.9 31.7 73.8 33.3 74.7 66.4 55.9 65.4 55.3 64.8 54.9"></polygon>
  <polygon class="cls-1" points="65.4 55.3 66.4 55.9 66.4 55.9 65.4 55.3"></polygon>
  <rect class="cls-2" x="4.8" y="90.2" height="9.5"></rect>
</svg>
