<?xml version="1.0" encoding="UTF-8"?>
<svg xmlns="http://www.w3.org/2000/svg" id="Layer_1" data-name="Layer 1" viewBox="0 0 147.55 28.5">
  <defs>
    <style>.cls-1{fill:#aca8a1;}</style>
  </defs>
  <path id="Pitchfork" class="cls-1" d="M46.11,7.68a6.58,6.58,0,0,0-4.2-1.3H31.51v2.3h2.2a.56.56,0,0,1,.5.6v12.2a.56.56,0,0,1-.5.6h-2.2v2.3h9.1v-2.3h-2.1A2,2,0,0,1,38,22c-.1-.1-.1-.2-.1-.5v-4.7h5a5,5,0,0,0,3.6-1.5,5.31,5.31,0,0,0,1.4-3.7,5.17,5.17,0,0,0-1.8-3.9m-2,3.9a2.82,2.82,0,0,1-2.8,2.9h-3.5V8.68h3.6A2.74,2.74,0,0,1,44.11,11.58Zm8-2.2a2.1,2.1,0,1,0-2-2.1,2.11,2.11,0,0,0,2,2.1m2.4,12.9c-.2,0-.3,0-.3-.1s-.1-.2-.1-.5V10.28l-5.5.5v2.1h1.9c.1,0,.3,0,.3.3v8.4c0,.6-.3.6-.4.6h-1.7v2.2h7.6v-2.2h-1.8Zm9.9-.2.4-.1v2.2l-.2.1a12.57,12.57,0,0,1-3.3.5h0a3.09,3.09,0,0,1-2.7-1,4.27,4.27,0,0,1-.4-2.3V13H56v-2.1h.3a2.21,2.21,0,0,0,2.2-1.1,8.56,8.56,0,0,0,.5-3.7v-.3h2.5v5.1h2.9V13h-2.9v8.6a1,1,0,0,0,.2.7,1.29,1.29,0,0,0,.8.2c.6-.1,1.1-.2,1.9-.4m10.7-3h2.4v.3a4.92,4.92,0,0,1-1.7,3.9,6.73,6.73,0,0,1-4.3,1.4h0a6.69,6.69,0,0,1-4.9-2,7.56,7.56,0,0,1-1.7-5,7.17,7.17,0,0,1,2-5.2,7.24,7.24,0,0,1,5.2-2.1,6.56,6.56,0,0,1,3.3.9,3.32,3.32,0,0,1,1.7,2.9,2.26,2.26,0,0,1-2.3,2.3,2.17,2.17,0,0,1-1.4-.5,1.68,1.68,0,0,1-.6-1.4,2.36,2.36,0,0,1,.7-1.6,3.89,3.89,0,0,0-1.5-.2,2.87,2.87,0,0,0-2.6,1.5,7,7,0,0,0-.7,3.3,6.31,6.31,0,0,0,.7,3.2,2.69,2.69,0,0,0,2.6,1.4c1.9,0,3-1,3.1-2.7v-.4m18.6,5.3h-7.3v-2.2h1.5a.45.45,0,0,0,.4-.3v-7.2a1.77,1.77,0,0,0-2-1.7,3,3,0,0,0-2.1.8,2.42,2.42,0,0,0-1,1.9v5.9a1.21,1.21,0,0,0,.1.5c.1.1.1.1.3.1h1.7v2.2h-7.6v-2.2h1.7c.1,0,.2,0,.2-.1a.59.59,0,0,0,.2-.5V7.48c0-.2-.1-.2-.1-.3a.35.35,0,0,0-.2-.1h-2V5l5.6-.5V12a5.37,5.37,0,0,1,4-1.8,4.27,4.27,0,0,1,4.5,3.7v7.7a.37.37,0,0,0,.1.3.31.31,0,0,0,.2.1H95c.1,0,.4,0,.4-.6v-8.7h-2v-2.1h2v-3A3.11,3.11,0,0,1,97,4.88a5.53,5.53,0,0,1,3.1-.8,5.59,5.59,0,0,1,2.5.5,2.13,2.13,0,0,1,1.3,2.2,2,2,0,0,1-.6,1.5,2,2,0,0,1-1.4.6,1.9,1.9,0,0,1-1.3-.5,1.9,1.9,0,0,1-.5-1.3,2.39,2.39,0,0,1,.2-.9h-.2a1.35,1.35,0,0,0-1.4,1.3v3.2h3.5v2.1h-3.5v8.7a1.21,1.21,0,0,0,.1.5c.1.1.1.1.3.1h2.4v2.2h-7.2l-.6.1m20.6-11.9a7,7,0,0,0-9.9-.1,7.28,7.28,0,0,0-1.9,5.1,7.93,7.93,0,0,0,1.7,5.2,6.31,6.31,0,0,0,5,2.1h0a6.77,6.77,0,0,0,5.1-2,7.54,7.54,0,0,0,1.9-5.2,8.56,8.56,0,0,0-1.9-5.1m-7.6,1.8a2.89,2.89,0,0,1,2.6-1.6,2.61,2.61,0,0,1,2.5,1.5,6.83,6.83,0,0,1,.7,3.2,8.12,8.12,0,0,1-.7,3.5,2.68,2.68,0,0,1-2.6,1.6,2.38,2.38,0,0,1-2.5-1.6,7.38,7.38,0,0,1-.6-3.4A5.92,5.92,0,0,1,106.71,14.28Zm21-3.2a2.86,2.86,0,0,1,.3,3.6,2.19,2.19,0,0,1-2.9.1,1.9,1.9,0,0,1-.5-1.3,1.69,1.69,0,0,1,.3-1,4.33,4.33,0,0,0-2,1.4,5,5,0,0,0-1.1,2.9v4.7a1.21,1.21,0,0,0,.1.5c.1.1.1.1.3.1h2.6v2.2h-8.5v-2.2H118c.1,0,.2,0,.2-.1a.59.59,0,0,0,.2-.5v-8.3c0-.2-.1-.2-.1-.3a.35.35,0,0,0-.2-.1h-2v-2.1l5.6-.5v2.2a4.29,4.29,0,0,1,3.7-2.2,6.14,6.14,0,0,1,2.3.9m15.9,11.2c-.9,0-1.2,0-1.7-.6l-4.4-5.8,2.9-2.6a1.1,1.1,0,0,1,.9-.3h1.5v-2.1h-7.3V13h1.6v.1c-.2.3-1.1,1.1-3.6,3.4V4.58l-5.6.5v2.1h2.2a.44.44,0,0,1,.1.3v14.1c0,.3-.1.5-.2.5a.31.31,0,0,1-.2.1H128v2.2h7.4v-2.2h-1.5c-.2,0-.3,0-.3-.1s-.1-.2-.1-.5v-2.1l1.6-1.5c1,1.3,1.8,2.2,2.3,2.9a11.14,11.14,0,0,1,.8,1.2s-.1.1-.1,0h-1.7v2.2H144v-2.1l-.4.1m-6.5-9.3Z" transform="translate(-1.26 -1.13)"></path>
  <path id="SM" class="cls-1" d="M144.11,13H144v-.8h.2a.66.66,0,0,0,.7.6c.2,0,.5-.1.5-.4,0-.1-.1-.2-.2-.3l-.8-.2a.51.51,0,0,1-.4-.5.66.66,0,0,1,.7-.6,1.42,1.42,0,0,1,.6.2l.1-.2h.2v.8h-.2c0-.4-.3-.6-.7-.6-.2,0-.4.1-.4.3s.1.2.2.3l.8.2c.2.1.4.2.4.5a.71.71,0,0,1-.8.7,1.07,1.07,0,0,1-.6-.2l-.2.2m4-.3c0,.1,0,.1-.1.1h-.2V13h1v-.2h-.2c-.1,0-.1,0-.1-.1v-1.5c0-.1,0-.1.1-.1h.2v-.2H148l-.6,1.6c-.4-1.1-.6-1.6-.6-1.6H146v.2h.2a.1.1,0,0,1,.1.1v1.5c0,.1,0,.1-.1.1H146V13h.9v-.2h-.2c-.1,0-.1,0-.1-.1v-1.6l.7,1.9h.2l.7-1.9-.1,1.6" transform="translate(-1.26 -1.13)"></path>
  <path class="cls-1" d="M25.41,5.18a14.21,14.21,0,1,0-19.8,20.4,14.21,14.21,0,0,0,19.8-20.4m-2.2,17.7A10.82,10.82,0,1,1,23,7.58,10.77,10.77,0,0,1,23.21,22.88Z" transform="translate(-1.26 -1.13)"></path>
  <path class="cls-1" d="M21.91,9h-4.8l1.4,1.4L7.61,21.28c.3.4.6.7.9,1.1s.7.7,1.1,1l10.9-11,1.4,1.4V9m-11.7-1.5,1.4,1.4-6,6v.7a9.29,9.29,0,0,0,.5,2.9l7.5-7.5,1.4,1.4V7.48Zm13.2,8.3h-4.8l1.4,1.4-7.5,7.5a11.27,11.27,0,0,0,3.2.5h.4l5.9-5.9,1.4,1.4Z" transform="translate(-1.26 -1.13)"></path>
</svg>
