<?xml version="1.0" encoding="UTF-8"?>
<svg xmlns="http://www.w3.org/2000/svg" id="Layer_1" data-name="Layer 1" viewBox="0 0 81.8 45.7">
  <defs>
    <style>.cls-1{fill:#aca8a1;}</style>
  </defs>
  <path class="cls-1" d="M77.12,37.66a3.16,3.16,0,0,1-3.2,3.2h-3.2v-33h3.2a3.16,3.16,0,0,1,3.2,3.2Zm-3.2-36.1h-9a.65.65,0,0,0-.6.6v44.5a.65.65,0,0,0,.6.6h9a9.58,9.58,0,0,0,9.6-9.5V11.06A9.58,9.58,0,0,0,73.92,1.56Zm-17.7,36.1a3.2,3.2,0,1,1-6.4,0V11.06A3.22,3.22,0,0,1,53,7.86a3.16,3.16,0,0,1,3.2,3.2ZM53,1.56a9.58,9.58,0,0,0-9.6,9.5v26.6a9.6,9.6,0,0,0,19.2,0V11.06A9.58,9.58,0,0,0,53,1.56Zm-41.7,0a9.58,9.58,0,0,0-9.6,9.5v26.6a9.58,9.58,0,0,0,9.6,9.5,9.43,9.43,0,0,0,5.9-2.1l.7,2.1h2.3a.65.65,0,0,0,.6-.6v-26a.65.65,0,0,0-.6-.6h-8.6a.65.65,0,0,0-.6.6v5.2a.65.65,0,0,0,.6.6h2.9v11.3a3.2,3.2,0,0,1-6.4,0V11.06a3.22,3.22,0,0,1,3.2-3.2,3.16,3.16,0,0,1,3.2,3.2v2a.65.65,0,0,0,.6.6h5.2a.65.65,0,0,0,.6-.6v-2A9.58,9.58,0,0,0,11.32,1.56Zm24.1,36.1a3.2,3.2,0,0,1-6.4,0V11.06a3.22,3.22,0,0,1,3.2-3.2,3.16,3.16,0,0,1,3.2,3.2Zm-3.2-36.1a9.58,9.58,0,0,0-9.6,9.5v26.6a9.6,9.6,0,0,0,19.2,0V11.06A9.71,9.71,0,0,0,32.22,1.56Z" transform="translate(-1.72 -1.56)"></path>
</svg>
