<?xml version="1.0" encoding="UTF-8"?>
<svg xmlns="http://www.w3.org/2000/svg" id="Layer_1" data-name="Layer 1" viewBox="0 0 145.45 43.4">
  <defs>
    <style>.cls-1{fill:#aca8a1;}.cls-2{fill:#f5f4f3;}</style>
  </defs>
  <path class="cls-1" d="M139,43.77a1,1,0,0,1-.9.6h-127a1,1,0,0,1-.9-.6l-8.3-20.5a2.44,2.44,0,0,1,0-1.2l8.3-20.5a1,1,0,0,1,.9-.6H138a1,1,0,0,1,.9.6l8.3,20.5a2.44,2.44,0,0,1,0,1.2Z" transform="translate(-1.79 -0.97)"></path>
  <path class="cls-2" d="M103.07,14.27v13.9a1.7,1.7,0,1,1-3.4,0V14.27s-.1-.5-.5-.5h-2.3a.49.49,0,0,0-.5.5v14.1a5.12,5.12,0,0,0,5.1,5.1,5,5,0,0,0,4.9-3.9,8.33,8.33,0,0,0,.1-1.2V14.27a.49.49,0,0,0-.5-.5h-2.4c-.5-.1-.5.5-.5.5" transform="translate(-1.79 -0.97)"></path>
  <path class="cls-2" d="M121.07,13.47a5.13,5.13,0,0,0-3.4,1.3,5.13,5.13,0,0,0-3.4-1.3,5,5,0,0,0-4.9,3.9,8.33,8.33,0,0,0-.1,1.2v14a.49.49,0,0,0,.5.5h2.3a.49.49,0,0,0,.5-.5V18.67a1.63,1.63,0,0,1,1.7-1.7,1.65,1.65,0,0,1,1.7,1.8v13.8a.49.49,0,0,0,.5.5h2.3a.49.49,0,0,0,.5-.5V18.77A1.71,1.71,0,0,1,121,17a1.58,1.58,0,0,1,1.7,1.7v13.9a.53.53,0,0,0,.6.5h2.2a.49.49,0,0,0,.5-.5v-14a4.72,4.72,0,0,0-4.9-5.1" transform="translate(-1.79 -0.97)"></path>
  <path class="cls-2" d="M21.07,21.67c-.6,0-.6,0-.6-.5v-3.5c0-.5,0-.5.5-.5a2.42,2.42,0,0,1,2.4,2.3,2.18,2.18,0,0,1-2.3,2.2m.2-8h-3.6c-.5,0-.5.3-.5.5v18.3a.49.49,0,0,0,.5.5H20a.49.49,0,0,0,.5-.5v-7c0-.5,0-.5.6-.5a6.9,6.9,0,0,0,4.1-1.6,5.58,5.58,0,0,0,1.6-4,5.59,5.59,0,0,0-5.5-5.7" transform="translate(-1.79 -0.97)"></path>
  <path class="cls-2" d="M74.27,17a.35.35,0,0,0,.4-.4V14a.39.39,0,0,0-.4-.4H68a.53.53,0,0,0-.4.5v18.6a.39.39,0,0,0,.4.4h6.3a.39.39,0,0,0,.4-.4v-2.6a.39.39,0,0,0-.4-.4h-3a.29.29,0,0,1-.3-.3v-4.1a.29.29,0,0,1,.3-.3h3.1s.3,0,.3-.4V22c0-.4-.3-.4-.3-.4h-3.1a.29.29,0,0,1-.3-.3v-4s0-.4.3-.4,2.8.1,3,.1" transform="translate(-1.79 -0.97)"></path>
  <path class="cls-2" d="M87.07,17.67c0-.5,0-.5.5-.5a2.42,2.42,0,0,1,2.4,2.3,2.26,2.26,0,0,1-2.3,2.3c-.6,0-.6,0-.6-.5Zm4.7,5.7a5.58,5.58,0,0,0,1.6-4,5.74,5.74,0,0,0-5.6-5.7h-3.6c-.5,0-.5.3-.5.5v18.3a.49.49,0,0,0,.5.5h2.3a.49.49,0,0,0,.5-.5v-7c0-.5,0-.5.6-.5a1.49,1.49,0,0,0,.6-.1.35.35,0,0,1,.2.1,16.79,16.79,0,0,1,1.6,7.4c0,.6.5.5.5.5h2.4a.49.49,0,0,0,.5-.5,19.06,19.06,0,0,0-1.8-8.8c0-.1.2-.1.2-.2" transform="translate(-1.79 -0.97)"></path>
  <path class="cls-2" d="M45.67,17.67c0-.5,0-.5.5-.5a2.42,2.42,0,0,1,2.4,2.3,2.24,2.24,0,0,1-2.3,2.2c-.6,0-.6,0-.6-.5Zm4.7,5.7a5.58,5.58,0,0,0,1.6-4,5.74,5.74,0,0,0-5.6-5.7h-3.6c-.5,0-.5.3-.5.5v18.3a.49.49,0,0,0,.5.5h2.3a.49.49,0,0,0,.5-.5v-7c0-.5,0-.5.6-.5a1.49,1.49,0,0,0,.6-.1.35.35,0,0,1,.2.1,16.79,16.79,0,0,1,1.6,7.4c0,.6.5.5.5.5h2.5a.49.49,0,0,0,.5-.5,19.06,19.06,0,0,0-1.8-8.8c-.1-.1.1-.1.1-.2" transform="translate(-1.79 -0.97)"></path>
  <path class="cls-2" d="M35.27,23.27h-2.4a.49.49,0,0,1-.5-.5v-4.1a1.7,1.7,0,0,1,3.4,0v4.1a.49.49,0,0,1-.5.5m-1.2-9.8a5.12,5.12,0,0,0-5.1,5.1v14a.49.49,0,0,0,.5.5h2.3a.49.49,0,0,0,.5-.5v-5.3a.53.53,0,0,1,.6-.5h2.4a.49.49,0,0,1,.5.5v5.3a.49.49,0,0,0,.5.5h2.3a.49.49,0,0,0,.5-.5v-14a5,5,0,0,0-5-5.1" transform="translate(-1.79 -0.97)"></path>
  <path class="cls-2" d="M61.47,27.27v.9a1.7,1.7,0,1,1-3.4,0v-9.5a1.7,1.7,0,1,1,3.4,0v1s0,.4.5.4h2.5c.3,0,.4-.5.4-.5v-1.1a5.1,5.1,0,0,0-10.2,0v9.7a5.1,5.1,0,0,0,10.2,0v-.9a.39.39,0,0,0-.4-.4h-2.6c-.4.1-.4.4-.4.4" transform="translate(-1.79 -0.97)"></path>
</svg>
