<?xml version="1.0" encoding="UTF-8"?>
<svg xmlns="http://www.w3.org/2000/svg" id="Layer_1" data-name="Layer 1" viewBox="0 0 78.64 80.9">
  <defs>
    <style>.cls-1{fill:#aca8a1;fill-rule:evenodd;}</style>
  </defs>
  <path class="cls-1" d="M36.34,45.64l-21.2-14.3c-.5-.3-1-.7-1.4-.9a14.56,14.56,0,0,0-1.6-.9,9.77,9.77,0,0,0-3.2-.5,6.92,6.92,0,0,0-4.3,1.4,5.26,5.26,0,0,0-1.4,1.2,8.16,8.16,0,0,0-2.3,5.8,7.93,7.93,0,0,0,2.3,5.7,8.23,8.23,0,0,0,2.2,1.6,7.3,7.3,0,0,0,3.5.9ZM9,24.54a7.68,7.68,0,0,0,2.2,2.2l23.9,16.4-10.7-24.8c-.1-.3-.2-.5-.3-.8a8.8,8.8,0,0,0-1.2-2.4,4.23,4.23,0,0,1-.5-.7,6.53,6.53,0,0,0-1.2-1.1c-.2-.1-.4-.3-.6-.4a8.09,8.09,0,0,0-6.2-1.1,9.54,9.54,0,0,0-3.4,1.5,5.73,5.73,0,0,0-1.1,1.1,5.55,5.55,0,0,1-.6.8,7,7,0,0,0-1.1,2.3,7.29,7.29,0,0,0-.2,3.9A7.56,7.56,0,0,0,9,24.54Zm26.4,15,3.9-27.2a28.83,28.83,0,0,0,.3-3.5,6.82,6.82,0,0,0-.5-2.3c-.1-.3-.2-.5-.3-.8a7.58,7.58,0,0,0-4.7-4.2,1.85,1.85,0,0,0-.7-.2,7.15,7.15,0,0,0-4.1,0,7.84,7.84,0,0,0-1.4.5,7.63,7.63,0,0,0-4.3,4.5c0,.1-.1.2-.1.3a7.78,7.78,0,0,0,.2,6Zm42.8-7a7,7,0,0,0-.8-1,15.76,15.76,0,0,0-1.5-1.2,16.18,16.18,0,0,0-1.8-1,6.9,6.9,0,0,0-2.5-.4,9.14,9.14,0,0,0-3.1.5,14.56,14.56,0,0,0-1.6.9c-.4.2-.9.6-1.4.9l-21.3,14.4h27.4a7.89,7.89,0,0,0,4.6-1.5,10,10,0,0,0,1.1-1l.2-.2a7.68,7.68,0,0,0,1.8-3.3,5,5,0,0,0,.2-1.2v-1A6.89,6.89,0,0,0,78.24,32.54Zm-37.1-22.2h2.2a3.1,3.1,0,0,1,1.2.3c.2.2-.2.4-.9.7l-.6.4-.7.6a2.38,2.38,0,0,0-.6,1.1,3.75,3.75,0,0,0-.1,1.1V15l3.5,24.5,11.8-26.9a7.77,7.77,0,0,0,.1-6c0-.1-.1-.2-.1-.3a7.91,7.91,0,0,0-4.3-4.5,7.84,7.84,0,0,0-1.4-.5,7.15,7.15,0,0,0-4.1,0,6.37,6.37,0,0,0-.7.2,8.19,8.19,0,0,0-4.7,4.2,6.89,6.89,0,0,1-.3.8,8.89,8.89,0,0,0-.4,3.6v.2ZM45.44,43l23.9-16.4a7.68,7.68,0,0,0,2.2-2.2c.1-.1.1-.1.1-.2a8.65,8.65,0,0,0,.7-1.7l.3-1.2a12.25,12.25,0,0,0,.2-1.9,8,8,0,0,0-1.5-4.3,5.55,5.55,0,0,0-.6-.8,11.41,11.41,0,0,0-1.1-1.1,7,7,0,0,0-3.4-1.5,8.09,8.09,0,0,0-6.2,1.1,2.09,2.09,0,0,1-.6.4,11.41,11.41,0,0,0-1.1,1.1,3,3,0,0,0-.5.7,23.21,23.21,0,0,0-1.6,3.2Zm-22.1,23.4-17-15.3v29.8h6.1v-15l17.1,16V52.44h-6.2Zm24.2-1.3a7.2,7.2,0,0,0,3.3-6.5,6.58,6.58,0,0,0-1.9-4.3,6.68,6.68,0,0,0-4.3-2H32.44v28.5h12.3a8.08,8.08,0,0,0,5.5-2.7,8.66,8.66,0,0,0,2.2-5.9A7.46,7.46,0,0,0,47.54,65.14Zm-8.9-7.8h3a2.88,2.88,0,0,1,2.1.9,2.78,2.78,0,0,1,1,2,3.85,3.85,0,0,1-.8,2.4,2.7,2.7,0,0,1-2.2,1h-3.1Zm6.6,17.1a6.11,6.11,0,0,1-3,.8h-3.6v-6.9h3.6c2.9.2,4.3,1.4,4.3,3.7A2.69,2.69,0,0,1,45.24,74.44Zm15.1-21.2a15.54,15.54,0,0,0-5.6,5.2,14.31,14.31,0,0,0-2.3,7.3,15.31,15.31,0,0,0,2.1,7.9,14.79,14.79,0,0,0,5.5,5.6,18.42,18.42,0,0,0,7.7,2.5,9.76,9.76,0,0,0,1.9.1,13.86,13.86,0,0,0,5.3-1v-6.9a10.42,10.42,0,0,1-4.9,1.5,13,13,0,0,1-2.3-.2,9.74,9.74,0,0,1-5.5-3.1,8.73,8.73,0,0,1,.1-11.7,9.37,9.37,0,0,1,5.9-3c1-.1,1.7-.2,2-.2a10.15,10.15,0,0,1,4.7,1.5v-6.3a19,19,0,0,0-7-1.2A15.4,15.4,0,0,0,60.34,53.24Z" transform="translate(-0.94 -1.04)"></path>
</svg>
