<?xml version="1.0" encoding="UTF-8"?>
<svg xmlns="http://www.w3.org/2000/svg" id="Layer_1" data-name="Layer 1" viewBox="0 0 126.8 57.3">
  <defs>
    <style>.cls-1{fill:#aca8a1;}</style>
  </defs>
  <path id="path3033" class="cls-1" d="M10.9,3a5.57,5.57,0,0,1,1.9.9A4.89,4.89,0,0,1,14,5.24a3.17,3.17,0,0,1,.4,1.6,3.59,3.59,0,0,1-.2,1.1,3.13,3.13,0,0,1-.5,1,2.7,2.7,0,0,1-.7.8,4.05,4.05,0,0,1-.9.5v.1a3.67,3.67,0,0,1,2,1.4,4,4,0,0,1,.7,2.4,4.71,4.71,0,0,1-.4,1.7,5.26,5.26,0,0,1-1.2,1.4,7.45,7.45,0,0,1-2,1,11.93,11.93,0,0,1-2.9.4,9.48,9.48,0,0,1-3-.4,6.81,6.81,0,0,1-2.1-1A5.26,5.26,0,0,1,2,15.84a3.29,3.29,0,0,1-.4-1.7v-.5h4a1.48,1.48,0,0,0,.1.7,2.09,2.09,0,0,0,.4.6,1.61,1.61,0,0,0,.7.4,3.75,3.75,0,0,0,1.1.1,3.59,3.59,0,0,0,1.1-.2,1.53,1.53,0,0,0,1.1-1.1,2,2,0,0,0,.1-.8,1.48,1.48,0,0,0-.1-.7,2.19,2.19,0,0,0-.3-.5,2.19,2.19,0,0,0-.5-.3,1.27,1.27,0,0,0-.6-.1H7.1V8.94H8.4a1.27,1.27,0,0,0,.6-.1,2.19,2.19,0,0,0,.5-.3A.85.85,0,0,0,9.8,8a1.48,1.48,0,0,0,.1-.7,2,2,0,0,0-.1-.7,1.84,1.84,0,0,0-1-1,2.22,2.22,0,0,0-.9-.1,2.77,2.77,0,0,0-.9.1.92.92,0,0,0-.6.4,1.27,1.27,0,0,0-.4.6,1.48,1.48,0,0,0-.1.7H2.1v-.6a2.93,2.93,0,0,1,.4-1.6,5.26,5.26,0,0,1,1.2-1.4,5.57,5.57,0,0,1,1.9-.9,10.9,10.9,0,0,1,2.6-.3,10,10,0,0,1,2.7.5" transform="translate(-1.3 -2.54)"></path>
  <path id="path3037" class="cls-1" d="M23.1,18.44V2.94H35.7v3.7H28.1v2.7h6.5v3.6H28.1v5.6h-5Z" transform="translate(-1.3 -2.54)"></path>
  <path id="path3041" class="cls-1" d="M39.5,18.44V2.94h5v11.6h8v4h-13Z" transform="translate(-1.3 -2.54)"></path>
  <path id="path3045" class="cls-1" d="M62.8,6.64a3.59,3.59,0,0,0-1,.7,2.38,2.38,0,0,0-.6,1.1,6.05,6.05,0,0,0-.2,1.5v1.4a7.72,7.72,0,0,0,.2,1.5,2.38,2.38,0,0,0,.6,1.1,2.29,2.29,0,0,0,1,.7,3.19,3.19,0,0,0,1.4.3,2.9,2.9,0,0,0,1.4-.3,2.55,2.55,0,0,0,1-.7,2.38,2.38,0,0,0,.6-1.1,6.05,6.05,0,0,0,.2-1.5V9.94a7.72,7.72,0,0,0-.2-1.5,2.38,2.38,0,0,0-.6-1.1,2.29,2.29,0,0,0-1-.7,3.19,3.19,0,0,0-1.4-.3,4.88,4.88,0,0,0-1.4.3m4.9-3.5a6.14,6.14,0,0,1,2.6,1.5,6,6,0,0,1,1.6,2.5,9.51,9.51,0,0,1,.6,3.5,9.51,9.51,0,0,1-.6,3.5,7.16,7.16,0,0,1-1.6,2.5,4.64,4.64,0,0,1-2.6,1.6,12.5,12.5,0,0,1-3.6.5,11.09,11.09,0,0,1-3.4-.5,6.14,6.14,0,0,1-2.6-1.5,6,6,0,0,1-1.6-2.5,9.51,9.51,0,0,1-.6-3.5,9.51,9.51,0,0,1,.6-3.5,7.16,7.16,0,0,1,1.6-2.5,6.14,6.14,0,0,1,2.6-1.5,12.3,12.3,0,0,1,3.5-.5,12.48,12.48,0,0,1,3.5.4" transform="translate(-1.3 -2.54)"></path>
  <path id="path3049" class="cls-1" d="M85.2,12.44v6h-5v-6L74,2.94h5.7l3,5.2h.1l3-5.2h5.4Z" transform="translate(-1.3 -2.54)"></path>
  <path id="path3053" class="cls-1" d="M99.5,6.64v8.1h1.7a5.9,5.9,0,0,0,1.4-.2,3.59,3.59,0,0,0,1-.7,2.87,2.87,0,0,0,.6-1.1,5.9,5.9,0,0,0,.2-1.4V9.94a5.9,5.9,0,0,0-.2-1.4,2.38,2.38,0,0,0-.6-1.1,3.59,3.59,0,0,0-1-.7,5.9,5.9,0,0,0-1.4-.2H99.5Zm1.7-3.7a12.3,12.3,0,0,1,3.5.5,7.22,7.22,0,0,1,2.6,1.4,6,6,0,0,1,1.6,2.4,9,9,0,0,1,.5,3.4,12.3,12.3,0,0,1-.5,3.5,6,6,0,0,1-1.6,2.4,6.47,6.47,0,0,1-2.6,1.4,12.3,12.3,0,0,1-3.5.5H94.5V2.94Z" transform="translate(-1.3 -2.54)"></path>
  <path id="path3057" class="cls-1" d="M123,2.94a8.49,8.49,0,0,1,2.2.9,5.36,5.36,0,0,1,1.5,1.5,3.8,3.8,0,0,1,.6,2.2v.3h-4.7v-.1a1.27,1.27,0,0,0-.1-.6,1,1,0,0,0-.4-.5c-.2-.1-.4-.3-.6-.4a2.77,2.77,0,0,0-.9-.1,2.81,2.81,0,0,0-1.5.3c-.3.2-.5.4-.5.7a.75.75,0,0,0,.4.7,3,3,0,0,0,1,.4q.6.15,1.5.3a13.64,13.64,0,0,1,1.7.4,10.93,10.93,0,0,1,1.7.5,7.14,7.14,0,0,1,1.5.8,4.73,4.73,0,0,1,1.1,1.3,3.42,3.42,0,0,1,.4,1.8,6.18,6.18,0,0,1-.5,2.5,3.91,3.91,0,0,1-1.4,1.7,6.39,6.39,0,0,1-2.2,1,11.15,11.15,0,0,1-2.7.3,26.61,26.61,0,0,1-3-.2,8.54,8.54,0,0,1-2.4-.9,4.36,4.36,0,0,1-1.6-1.7,5.4,5.4,0,0,1-.6-2.7h4.7a2.51,2.51,0,0,0,.2,1,1,1,0,0,0,.5.6,6.89,6.89,0,0,0,.8.3,3.4,3.4,0,0,0,1,.1h.7c.3,0,.5-.1.7-.1a2.19,2.19,0,0,0,.5-.3.85.85,0,0,0,.2-.6.75.75,0,0,0-.4-.7,3,3,0,0,0-1-.4q-.6-.15-1.5-.3a10.46,10.46,0,0,1-1.7-.4,5.78,5.78,0,0,1-1.7-.6A7.46,7.46,0,0,1,115,11a3.05,3.05,0,0,1-1-1.3,3.81,3.81,0,0,1-.4-1.9,4.14,4.14,0,0,1,.6-2.3A5.36,5.36,0,0,1,115.7,4a7.26,7.26,0,0,1,2.2-.9,10.9,10.9,0,0,1,2.6-.3,5.3,5.3,0,0,1,2.5.1" transform="translate(-1.3 -2.54)"></path>
  <path id="path3061" class="cls-1" d="M6.3,32.74v2.7h3.8a.9.9,0,0,0,.5-.1c.2-.1.3-.1.4-.3a.52.52,0,0,0,.2-.4c0-.2.1-.3.1-.5v-.2a.9.9,0,0,0-.1-.5c-.1-.2-.1-.3-.2-.4a1.38,1.38,0,0,0-.4-.3.75.75,0,0,0-.5-.1H6.3Zm0-5.9v2.6H9.7a.9.9,0,0,0,.5-.1c.1-.1.3-.1.4-.3a.52.52,0,0,0,.2-.4.9.9,0,0,0,.1-.5v-.2a.9.9,0,0,0-.1-.5c-.1-.1-.1-.3-.2-.4a1.38,1.38,0,0,0-.4-.3.75.75,0,0,0-.5-.1H6.3Zm5.3-3.4a5.08,5.08,0,0,1,1.7.3,6.38,6.38,0,0,1,1.4.8,2.73,2.73,0,0,1,.9,1.2,4,4,0,0,1,.3,1.5,6.05,6.05,0,0,1-.2,1.5,1.7,1.7,0,0,1-.6,1,2.7,2.7,0,0,1-.8.7,3,3,0,0,1-1,.4v.1a3.58,3.58,0,0,1,1.1.4,2.18,2.18,0,0,1,.9.7,2.38,2.38,0,0,1,.6,1.1,3.9,3.9,0,0,1,.2,1.6,3.29,3.29,0,0,1-.4,1.7,4.12,4.12,0,0,1-1,1.3,3.92,3.92,0,0,1-1.4.8,4.84,4.84,0,0,1-1.8.3H1.3V23.44Z" transform="translate(-1.3 -2.54)"></path>
  <path id="path3065" class="cls-1" d="M30.2,27.84c-.1-.2-.2-.3-.3-.5s-.3-.2-.4-.3a.9.9,0,0,0-.5-.1H25.7v2.9H29a.75.75,0,0,0,.5-.1,1.38,1.38,0,0,0,.4-.3,2.19,2.19,0,0,0,.3-.5,1.27,1.27,0,0,0,.1-.6,1.09,1.09,0,0,0-.1-.5m5,1.7a3.38,3.38,0,0,1-.6,1.2,9,9,0,0,1-.9,1,4,4,0,0,1-1.3.7l3.5,6.5H30.3l-2.8-5.7H25.7v5.7h-5V23.44h9.5a5.56,5.56,0,0,1,2.3.4,4.88,4.88,0,0,1,1.6,1,4,4,0,0,1,1,1.5,5.66,5.66,0,0,1,.3,1.8,5.21,5.21,0,0,1-.2,1.4" transform="translate(-1.3 -2.54)"></path>
  <path id="path3069" class="cls-1" d="M39.6,39V23.44H53v3.8H44.6v2.1h7.2v3.6H44.6v2.3h8.6v3.7H39.6Z" transform="translate(-1.3 -2.54)"></path>
  <path id="path3073" class="cls-1" d="M75.3,39H69.8l-2-9.5h-.1l-2,9.5H60.2l-3.6-15.5h5.2l1.8,8.8h.1l1.8-8.8h4.9l1.9,8.8h.1l1.7-8.8h5Z" transform="translate(-1.3 -2.54)"></path>
  <path id="path3075" class="cls-1" d="M87.8,39h-5V23.44h5Z" transform="translate(-1.3 -2.54)"></path>
  <path id="path3079" class="cls-1" d="M107.7,39h-4.4l-6.5-7.5V39H92.2V23.44h4.4l6.5,7.7v-7.7h4.6V39Z" transform="translate(-1.3 -2.54)"></path>
  <path id="path3083" class="cls-1" d="M123.3,23.54a8.22,8.22,0,0,1,2.5,1.1,5.81,5.81,0,0,1,1.7,1.8,5.26,5.26,0,0,1,.6,2.6h-4.8a2.92,2.92,0,0,0-.2-.9,4.35,4.35,0,0,0-.6-.7,3.55,3.55,0,0,0-.9-.4,4.25,4.25,0,0,0-1.1-.2,3.67,3.67,0,0,0-2.7.9,3.57,3.57,0,0,0-.9,2.6v1.4a3.57,3.57,0,0,0,.9,2.6,3.67,3.67,0,0,0,2.7.9c.4,0,.8-.1,1.1-.1a1.88,1.88,0,0,0,.9-.4,1.34,1.34,0,0,0,.6-.7,1.2,1.2,0,0,0,.2-.8h-3.5V30h8.3v8.7h-2.6l-.5-1.5a9.46,9.46,0,0,1-2.4,1.4,9.59,9.59,0,0,1-3.1.5,7.83,7.83,0,0,1-5.8-2c-1.3-1.4-1.9-3.4-1.9-6a9.51,9.51,0,0,1,.6-3.5,6.19,6.19,0,0,1,1.7-2.5,5.94,5.94,0,0,1,2.7-1.5,12.5,12.5,0,0,1,3.6-.5c.9.1,1.9.2,2.9.4" transform="translate(-1.3 -2.54)"></path>
  <path id="path3087" class="cls-1" d="M53.5,44.14a7,7,0,0,1,2.4,1.3,5.11,5.11,0,0,1,1.5,2.1,6.55,6.55,0,0,1,.5,2.9H53.1a4.3,4.3,0,0,0-.2-1.2,1.93,1.93,0,0,0-.5-.9,1.46,1.46,0,0,0-.9-.6,3.73,3.73,0,0,0-1.2-.2,2.5,2.5,0,0,0-1.3.3,2.18,2.18,0,0,0-.9.7,3.7,3.7,0,0,0-.5,1.1,6.05,6.05,0,0,0-.2,1.5v1.4a7.72,7.72,0,0,0,.2,1.5,3.7,3.7,0,0,0,.5,1.1,1.6,1.6,0,0,0,.9.7,2.77,2.77,0,0,0,1.3.3,3,3,0,0,0,2.2-.8,2.82,2.82,0,0,0,.7-2.1h4.6a7.78,7.78,0,0,1-.5,2.8,5.11,5.11,0,0,1-1.5,2.1,5.76,5.76,0,0,1-2.3,1.3,10.38,10.38,0,0,1-3.2.4c-2.7,0-4.7-.7-6-2s-2-3.4-2-6,.7-4.7,2-6,3.4-2,6-2a8.13,8.13,0,0,1,3.2.3" transform="translate(-1.3 -2.54)"></path>
  <path id="path3091" class="cls-1" d="M68.7,47.74a3.59,3.59,0,0,0-1,.7,2.38,2.38,0,0,0-.6,1.1,6.05,6.05,0,0,0-.2,1.5v1.4a7.72,7.72,0,0,0,.2,1.5,2.38,2.38,0,0,0,.6,1.1,2.29,2.29,0,0,0,1,.7,3.19,3.19,0,0,0,1.4.3,2.9,2.9,0,0,0,1.4-.3,2.55,2.55,0,0,0,1-.7,2.38,2.38,0,0,0,.6-1.1,6.05,6.05,0,0,0,.2-1.5V51a7.72,7.72,0,0,0-.2-1.5,2.38,2.38,0,0,0-.6-1.1,2.29,2.29,0,0,0-1-.7,3.42,3.42,0,0,0-2.8,0m5-3.5a6.14,6.14,0,0,1,2.6,1.5,6,6,0,0,1,1.6,2.5,10.51,10.51,0,0,1,0,7,7.16,7.16,0,0,1-1.6,2.5,6.14,6.14,0,0,1-2.6,1.5,12.5,12.5,0,0,1-3.6.5,12.3,12.3,0,0,1-3.5-.5,6.14,6.14,0,0,1-2.6-1.5,6,6,0,0,1-1.6-2.5,10.51,10.51,0,0,1,0-7,7.16,7.16,0,0,1,1.6-2.5,6.14,6.14,0,0,1,2.6-1.5,12.3,12.3,0,0,1,3.5-.5,13.61,13.61,0,0,1,3.6.5" transform="translate(-1.3 -2.54)"></path>
  <path id="path3093" class="cls-1" d="M86.4,59.54H81.7V55h4.8v4.5Z" transform="translate(-1.3 -2.54)"></path>
</svg>
