<?xml version="1.0" encoding="UTF-8"?>
<svg xmlns="http://www.w3.org/2000/svg" id="Layer_1" data-name="Layer 1" viewBox="0 0 132.2 33.6">
  <defs>
    <style>.cls-1{fill:#aca8a1;}</style>
  </defs>
  <path class="cls-1" d="M5.16,11.41H4v5.7H2V2.21c1.1,0,2.3-.1,3.7-.1,3.4,0,5.3,1.7,5.3,4.4C10.86,9.41,8.46,11.41,5.16,11.41Zm.2-7.6H4v5.9a4.87,4.87,0,0,0,1.2.1c2.2,0,3.6-1.2,3.6-3.1S7.66,3.81,5.36,3.81Z" transform="translate(-1.86 -1.01)"></path>
  <path class="cls-1" d="M18.16,7.91c-2.3-.4-3.4,1.3-3.4,4.8v4.4h-2v-11h1.9c0,.7-.1,1.7-.2,2.6h0c.5-1.5,1.6-3,3.8-2.8Z" transform="translate(-1.86 -1.01)"></path>
  <path class="cls-1" d="M21.56,4.31A1.32,1.32,0,0,1,20.26,3a1.3,1.3,0,1,1,2.6,0A1.32,1.32,0,0,1,21.56,4.31Zm-1,12.8v-11h2V17h-2Z" transform="translate(-1.86 -1.01)"></path>
  <path class="cls-1" d="M29.66,17.21c-2.2,0-2.9-.9-2.9-3.3V7.61h-2.2V6.11h2.2V2.61l2-.5v4.1h3.1v1.5h-3.1v5.6c0,1.8.3,2.3,1.6,2.3a6.8,6.8,0,0,0,1.5-.2v1.7A16.2,16.2,0,0,1,29.66,17.21Z" transform="translate(-1.86 -1.01)"></path>
  <path class="cls-1" d="M33.66,17.11v-1.4l5.2-7.8h-5.1V6.11h7.4v1.4L36,15.31h5.3v1.8Z" transform="translate(-1.86 -1.01)"></path>
  <path class="cls-1" d="M50.26,17.11l-4-5.6v5.6h-2V1h2v9.9l3.8-4.8h2.4l-4.2,5,4.5,5.9h-2.5Z" transform="translate(-1.86 -1.01)"></path>
  <path class="cls-1" d="M63.36,11.51h-7.1c-.1,2.9,1.1,4.2,3.5,4.2A8.33,8.33,0,0,0,63,15l.2,1.6a10.6,10.6,0,0,1-3.7.7c-3.4,0-5.2-1.8-5.2-5.6,0-3.3,1.8-5.7,4.9-5.7s4.4,2.1,4.4,4.6A2,2,0,0,0,63.36,11.51ZM59,7.41c-1.4,0-2.4,1.1-2.7,2.7h5.1A2.35,2.35,0,0,0,59,7.41Z" transform="translate(-1.86 -1.01)"></path>
  <path class="cls-1" d="M71.66,7.91c-2.3-.4-3.4,1.3-3.4,4.8v4.4h-2v-11h1.9c0,.7-.1,1.7-.2,2.6h0c.5-1.5,1.6-3,3.8-2.8Z" transform="translate(-1.86 -1.01)"></path>
  <path class="cls-1" d="M88.26,4.61a10.57,10.57,0,0,0-4-.8c-3.1,0-5.7,2-5.7,5.9,0,3.7,2.2,5.8,5.5,5.8a10.13,10.13,0,0,0,2.6-.4V9.51h2v6.9a16.32,16.32,0,0,1-4.9.9c-4.5,0-7.4-2.7-7.4-7.3s3-7.9,8-7.9a14.53,14.53,0,0,1,4.1.6Z" transform="translate(-1.86 -1.01)"></path>
  <path class="cls-1" d="M97.76,7.91c-2.3-.4-3.4,1.3-3.4,4.8v4.4h-2v-11h1.9c0,.7-.1,1.7-.2,2.6h0c.5-1.5,1.6-3,3.8-2.8Z" transform="translate(-1.86 -1.01)"></path>
  <path class="cls-1" d="M103.86,17.31c-3,0-4.9-1.7-4.9-5.6,0-3.2,2-5.8,5.3-5.8,2.8,0,4.9,1.5,4.9,5.5C109.16,14.71,107.06,17.31,103.86,17.31Zm.2-9.7c-1.6,0-3.1,1.2-3.1,3.9s1.1,4.1,3.1,4.1c1.6,0,3-1.3,3-4.1C107.16,9,106.16,7.61,104.06,7.61Z" transform="translate(-1.86 -1.01)"></path>
  <path class="cls-1" d="M119,17.11a19.53,19.53,0,0,1,.2-2.3h0a4,4,0,0,1-3.8,2.5c-2.5,0-3.3-1.6-3.3-3.5V6.11h2v7.1c0,1.5.4,2.4,1.9,2.4,1.8,0,3.1-1.8,3.1-4.2V6.11h2V17H119Z" transform="translate(-1.86 -1.01)"></path>
  <path class="cls-1" d="M128.46,17.21a10.28,10.28,0,0,1-1.8-.1v5.4h-2V6.11h1.9a8.2,8.2,0,0,1-.2,2.2h0a3.75,3.75,0,0,1,3.7-2.4c2.6,0,4,1.8,4,5.1C134.06,15,132,17.21,128.46,17.21Zm1.1-9.6c-2,0-3,2.3-3,4.2v3.6a5.82,5.82,0,0,0,1.9.3c2.1,0,3.5-1.3,3.5-4.4C132,8.91,131.26,7.61,129.56,7.61Z" transform="translate(-1.86 -1.01)"></path>
  <rect class="cls-1" y="19.6" width="119.3" height="2.3"></rect>
  <rect class="cls-1" x="128.2" y="19.6" width="3.8" height="2.3"></rect>
  <path class="cls-1" d="M3.56,32H3v2.5h-.6v-6.3h1.4c1.4,0,2.1.7,2.1,1.8S5,32,3.56,32Zm.2-3.3h-.7v2.8h.6c1.1,0,1.7-.6,1.7-1.4S4.86,28.71,3.76,28.71Z" transform="translate(-1.86 -1.01)"></path>
  <path class="cls-1" d="M12.26,34.51l-2.4-3h0v3h-.6v-6.3h1.4c1.1,0,2,.4,2,1.5s-.9,1.8-2.1,1.8a4.35,4.35,0,0,1,.6.7l2,2.3Zm-1.8-5.8h-.6v2.4h.6c1,0,1.6-.5,1.6-1.2C12.06,29,11.46,28.71,10.46,28.71Z" transform="translate(-1.86 -1.01)"></path>
  <path class="cls-1" d="M16.26,34.51v-6.3h.6v6.3Z" transform="translate(-1.86 -1.01)"></path>
  <path class="cls-1" d="M22.86,34.51h-.6L20,28.21h.7l1.5,4.3c.1.4.3.9.4,1.4h0a7.84,7.84,0,0,1,.5-1.4l1.6-4.3h.6Z" transform="translate(-1.86 -1.01)"></path>
  <path class="cls-1" d="M32.26,34.51l-.6-1.6h-2.9l-.6,1.6h-.6l2.4-6.3h.6l2.4,6.3Zm-1.7-4.7-.3-.9h0l-.3.9-1,2.7h2.6Z" transform="translate(-1.86 -1.01)"></path>
  <path class="cls-1" d="M37.86,28.71v5.8h-.6v-5.8h-1.9v-.5h4.5v.5Z" transform="translate(-1.86 -1.01)"></path>
  <path class="cls-1" d="M42.86,34.51v-6.3H46v.5h-2.5V31h2.4v.5h-2.4V34H46v.5Z" transform="translate(-1.86 -1.01)"></path>
  <path class="cls-1" d="M56,34.61c-1.9,0-2.8-1.2-2.8-3.1s.9-3.3,3-3.3a7.72,7.72,0,0,1,1.5.2l-.1.6a4,4,0,0,0-1.5-.3c-1.6,0-2.3,1.3-2.3,2.7,0,1.7.7,2.7,2.4,2.7a3.71,3.71,0,0,0,1.5-.4l.1.5A4.78,4.78,0,0,1,56,34.61Z" transform="translate(-1.86 -1.01)"></path>
  <path class="cls-1" d="M65,34.51l-.6-1.6h-2.9l-.6,1.6h-.6l2.4-6.3h.6l2.4,6.3Zm-1.7-4.7-.3-.9h0l-.3.9-1,2.7h2.6Z" transform="translate(-1.86 -1.01)"></path>
  <path class="cls-1" d="M69.86,32h-.6v2.5h-.6v-6.3h1.4c1.4,0,2.1.7,2.1,1.8S71.26,32,69.86,32Zm.2-3.3h-.7v2.8H70c1.1,0,1.7-.6,1.7-1.4S71.16,28.71,70.06,28.71Z" transform="translate(-1.86 -1.01)"></path>
  <path class="cls-1" d="M75.56,34.51v-6.3h.6v6.3Z" transform="translate(-1.86 -1.01)"></path>
  <path class="cls-1" d="M81.66,28.71v5.8h-.6v-5.8h-1.9v-.5h4.5v.5Z" transform="translate(-1.86 -1.01)"></path>
  <path class="cls-1" d="M90,34.51l-.6-1.6h-2.9l-.6,1.6h-.6l2.4-6.3h.6l2.4,6.3Zm-1.7-4.7-.3-.9h0l-.3.9-1,2.7h2.6Z" transform="translate(-1.86 -1.01)"></path>
  <path class="cls-1" d="M93.66,34.51v-6.3h.6V34h2.4v.5Z" transform="translate(-1.86 -1.01)"></path>
</svg>
