<?xml version="1.0" encoding="UTF-8"?>
<svg xmlns="http://www.w3.org/2000/svg" id="Layer_1" data-name="Layer 1" viewBox="0 0 134.4 30">
  <defs>
    <style>.cls-1{fill:#fff;}.cls-2{fill:#aca8a1;}</style>
  </defs>
  <rect id="White_BG" data-name="White BG" class="cls-1" width="29.6" height="29.6"></rect>
  <path id="Window" class="cls-2" d="M17.18,16.66l4.8,4.8a11.64,11.64,0,0,1,4.4-2.7l-2.3-6.4A17.56,17.56,0,0,0,17.18,16.66Zm12,9.8-2.5-6.7a11.35,11.35,0,0,0-3.9,2.5l5.1,5A5.67,5.67,0,0,1,29.18,26.46Zm.7-.2a3.08,3.08,0,0,1,1-.1h0v-7.1a13.45,13.45,0,0,0-3.5.5Zm-10.3,1.2a12.7,12.7,0,0,0-.5,3.4V31h7.1v-.1c0-.4.1-.7.1-1.1ZM27,30a2.77,2.77,0,0,0-.1.9V31h3.9V27h0a3.85,3.85,0,0,0-3.6,2.4A3.93,3.93,0,0,1,27,30Zm-4.7-7.2a11.78,11.78,0,0,0-2.5,4l6.7,2.3a5.67,5.67,0,0,1,.8-1.3Zm-5.6-5.6a20.3,20.3,0,0,0-4.4,7l6.4,2.2a12.71,12.71,0,0,1,2.8-4.4Zm-4.6,7.6a19.81,19.81,0,0,0-.9,6v.1H18v-.1a12.09,12.09,0,0,1,.6-3.8ZM1.18,1.26V29c.5-15.7,14.5-27.1,27.4-27.7Zm3.4,21A27.94,27.94,0,0,0,3,31h6.7v-.1a22.68,22.68,0,0,1,1-6.5Zm7.1-11,4.5,4.4a21,21,0,0,1,7.4-4.6l-2.2-6A28.25,28.25,0,0,0,11.68,11.26Zm12.5-.5a20.91,20.91,0,0,1,6.7-1.1V3.06A29.28,29.28,0,0,0,22,4.76Zm-13,1a28.93,28.93,0,0,0-6.3,9.8l6.1,2.1a20.27,20.27,0,0,1,4.7-7.5ZM27,18.46a12.26,12.26,0,0,1,3.9-.6v-6.8a21.18,21.18,0,0,0-6.2,1Z" transform="translate(-1.18 -1.26)"></path>
  <path class="cls-2" d="M37.58,3.56h-3.2V1.26h8.8v2.2H40v9.8h-2.4V3.56Z" transform="translate(-1.18 -1.26)"></path>
  <path class="cls-2" d="M43.88,1.26H46v4.5h0a2.57,2.57,0,0,1,2.3-1.4c2.3,0,2.9,1.4,2.9,3.6v5.3h-2.1V8.36c0-1.4-.4-2.1-1.4-2.1-1.2,0-1.7.7-1.7,2.5v4.5h-2.1v-12Z" transform="translate(-1.18 -1.26)"></path>
  <path class="cls-2" d="M54.08,9.56c.1,1.5.7,2.2,1.9,2.2a1.73,1.73,0,0,0,1.7-1.1h1.9a3.61,3.61,0,0,1-3.7,2.9c-2.5,0-4-1.9-4-4.6s1.6-4.6,4-4.6c2.7,0,3.9,2.5,3.8,5.2Zm3.5-1.5c-.2-1.2-.7-1.8-1.7-1.8a1.76,1.76,0,0,0-1.8,1.8Z" transform="translate(-1.18 -1.26)"></path>
  <path class="cls-2" d="M34.28,16.16H40c3.3,0,4.6,2.3,4.6,4.8s-1.3,4.8-4.6,4.8h-2.8v5.3h-2.9Zm3,6.9h2c1.4,0,2.6-.3,2.6-2.2s-1.2-2.2-2.6-2.2h-2Z" transform="translate(-1.18 -1.26)"></path>
  <path class="cls-2" d="M45.38,20.16h2.5v2h0a3.55,3.55,0,0,1,3.1-2.3,1.27,1.27,0,0,1,.6.1v2.7a2.79,2.79,0,0,0-1-.1c-1.9,0-2.6,1.6-2.6,3.4v4.8h-2.6V20.16Z" transform="translate(-1.18 -1.26)"></path>
  <path class="cls-2" d="M55.68,18.56H53v-2.4h2.7v2.4ZM53,20.16h2.7v10.7H53Z" transform="translate(-1.18 -1.26)"></path>
  <path class="cls-2" d="M62.78,31h-3l-3.3-10.7h2.8l2,7.3h0l2-7.3h2.6Z" transform="translate(-1.18 -1.26)"></path>
  <path class="cls-2" d="M66.38,23.46c.1-2.8,2.4-3.6,4.5-3.6,1.9,0,4.2.5,4.2,3.1v5.6a7,7,0,0,0,.3,2.4h-2.7a3.55,3.55,0,0,1-.2-1,4.1,4.1,0,0,1-3.3,1.3,3,3,0,0,1-3.3-3.2c0-2.4,1.6-3,3.3-3.3s3.1-.2,3.1-1.4-.8-1.5-1.7-1.5a1.63,1.63,0,0,0-1.8,1.6Zm6.1,2.2a4.42,4.42,0,0,1-2.2.6c-.8.2-1.6.5-1.6,1.6s.8,1.4,1.6,1.4c2.1,0,2.1-1.8,2.1-2.5v-1.1Z" transform="translate(-1.18 -1.26)"></path>
  <path class="cls-2" d="M79.68,19.36h1.9v2h-1.9v6.2c0,1,.2,1.2,1.1,1.2a2.2,2.2,0,0,0,.8-.1V31a7.59,7.59,0,0,1-1.6.1c-1.6,0-3-.4-3-2.6v-7.2h-1.6v-2H77v-3.2h2.7v3.3Z" transform="translate(-1.18 -1.26)"></path>
  <path class="cls-2" d="M84.78,26.26c.1,1.9.9,2.7,2.4,2.7a2.15,2.15,0,0,0,2.1-1.4h2.3a4.37,4.37,0,0,1-4.5,3.6c-3,0-4.9-2.3-4.9-5.6s2-5.7,4.9-5.7c3.3,0,4.9,3.1,4.7,6.4Zm4.3-1.8c-.2-1.5-.8-2.3-2.1-2.3a2.2,2.2,0,0,0-2.2,2.3Z" transform="translate(-1.18 -1.26)"></path>
  <path class="cls-2" d="M93,16.16h6c2.5,0,4.3.9,4.3,3.7a3.31,3.31,0,0,1-1.8,3.1c1.6.5,2.4,1.9,2.4,3.8,0,3-2.3,4.3-4.7,4.3H93Zm2.9,6h2.7a1.63,1.63,0,0,0,1.8-1.8c0-1.4-1-1.7-2-1.7h-2.5v3.5Zm0,6.2h2.9c1.2,0,2.2-.4,2.2-2a1.9,1.9,0,0,0-2.1-2.1H96l-.1,4.1Z" transform="translate(-1.18 -1.26)"></path>
  <path class="cls-2" d="M104.78,23.46c.1-2.8,2.4-3.6,4.5-3.6,1.9,0,4.2.5,4.2,3.1v5.6a7,7,0,0,0,.3,2.4h-2.7a3.55,3.55,0,0,1-.2-1,4.1,4.1,0,0,1-3.3,1.3,3,3,0,0,1-3.3-3.2c0-2.4,1.6-3,3.3-3.3s3.1-.2,3.1-1.4-.8-1.5-1.7-1.5a1.63,1.63,0,0,0-1.8,1.6Zm6.1,2.2a4.42,4.42,0,0,1-2.2.6c-.8.2-1.6.5-1.6,1.6s.8,1.4,1.6,1.4c2.1,0,2.1-1.8,2.1-2.5l.1-1.1Z" transform="translate(-1.18 -1.26)"></path>
  <path class="cls-2" d="M115.28,20.16h2.5v1.5h.1a3.41,3.41,0,0,1,3-1.8c2.8,0,3.5,1.8,3.5,4.4v6.6h-2.7v-6.1c0-1.8-.5-2.6-1.7-2.6-1.4,0-2.1.9-2.1,3.1v5.6h-2.7l.1-10.7Z" transform="translate(-1.18 -1.26)"></path>
  <path class="cls-2" d="M126,16.16h2.7v8l3.3-3.9h3.1l-3.6,3.9,4.1,6.8h-3.2l-2.7-4.8-1,1.1V31H126Z" transform="translate(-1.18 -1.26)"></path>
</svg>
