<?xml version="1.0" encoding="UTF-8"?>
<svg xmlns="http://www.w3.org/2000/svg" id="Layer_1" data-name="Layer 1" viewBox="0 0 69.6 69.6">
  <defs>
    <style>.cls-1{fill:#aca8a1;}</style>
  </defs>
  <path class="cls-1" d="M16.86,30.6l-4.6,4.9c-.5.6-.1.8.3.8l4.1.2c.8,0,.9-.3.9-.7l.2-5.1C17.76,30.2,17.66,29.7,16.86,30.6ZM1.06.9V70.5h69.6V.9Zm20.2,43.9h-7.1c-.7,0-.5-.1.1-.3l2.2-.6c.4-.1.5-.2.6-.8l.3-5c.1-.9-.2-.8-.9-.9a26.8,26.8,0,0,0-4-.2c-1.2,0-1.3-.1-2.2.9l-4.2,5.3c-.5.6-.1.9.5,1l2.2.4c1.1.2,1,.3.1.3H2.76c-.6,0-.8,0-.3-.3l.7-.4a4.23,4.23,0,0,0,.7-.5l15.5-17c.3-.3.5-.6.5,0l-.6,16.2a.92.92,0,0,0,.6,1l1.6.6C22.06,44.7,22.16,44.8,21.26,44.8ZM33.36,27l-1.3.4c-.5.2-.6.3-.8,1.1L27.86,43c-.2.8.1.9.5,1.1l1.4.4c.6.2,1.2.4-.2.4h-6.4c-1.3,0-.3-.3,0-.3l1.8-.5c.4-.1.5-.5.7-1.1l3.4-14.3c.3-1.1-.6-1.3-.6-1.3a6,6,0,0,1-1.1-.3c-.8-.2-1-.3.1-.3h5.6C33.76,26.8,33.76,26.9,33.36,27Zm15.1,16.7c-8.3,3.2-13.8.2-14.4-5.4-.5-4.9,5.6-13.9,17.6-11.3.7.1.7.3.6.9l-1.4,4.2c-.3,1-.4.7-.3-.3l.2-3.2c0-.8-.4-.9-.7-1-4.7-.9-10,.5-12.5,6.3-3.2,7.5,3.1,11.6,8.3,10.4.6-.1.8-.1,1-.7l.7-2.8c.1-.3.2-.8-.4-.9l-2.7-.7c-.6-.2-1.2-.3-.3-.3h5.7c.6,0,.6.2.5.6l-1.1,3.3C49,43.4,49,43.5,48.46,43.7ZM69,44.8h-7.1c-.7,0-.5-.1.1-.3l2.2-.6c.4-.1.5-.2.6-.8l.3-5c.1-.9-.2-.8-.9-.9a26.8,26.8,0,0,0-4-.2c-1.2,0-1.3-.1-2.2.9l-4.2,5.3c-.5.6-.1.9.5,1l2.2.4c1.1.2,1,.3.1.3h-6.1c-.6,0-.8,0-.3-.3l.7-.4a4.23,4.23,0,0,0,.7-.5l15.6-17c.3-.3.5-.6.5,0l-.6,16.2a.92.92,0,0,0,.6,1l1.6.6C69.86,44.7,69.86,44.8,69,44.8Zm-4.4-14.2L60,35.5c-.5.6-.1.8.3.8l4.1.2c.8,0,.9-.3.9-.7l.2-5.1C65.56,30.2,65.46,29.7,64.56,30.6Z" transform="translate(-1.06 -0.9)"></path>
</svg>
